<svg width="409" height="109" viewBox="0 0 409 109" fill="none" xmlns="http://www.w3.org/2000/svg">
<path d="M2.136 0.199999H14.736V17H11.952V2.768H4.896V17H2.136V0.199999ZM25.6841 3.728C26.9641 3.728 28.1161 4.024 29.1401 4.616C30.1641 5.192 30.9641 6 31.5401 7.04C32.1161 8.08 32.4041 9.24 32.4041 10.52C32.4041 12.472 31.7641 14.096 30.4841 15.392C29.2201 16.672 27.6201 17.312 25.6841 17.312C24.0201 17.312 22.5881 16.792 21.3881 15.752V21.656H18.7241V4.04H20.5241L21.0281 5.624C22.2761 4.36 23.8281 3.728 25.6841 3.728ZM22.4441 13.568C23.2441 14.368 24.2521 14.768 25.4681 14.768C26.7001 14.768 27.7161 14.368 28.5161 13.568C29.3161 12.752 29.7161 11.736 29.7161 10.52C29.7161 9.304 29.3161 8.296 28.5161 7.496C27.7161 6.68 26.7081 6.272 25.4921 6.272C24.6921 6.272 23.9641 6.456 23.3081 6.824C22.6521 7.192 22.1401 7.704 21.7721 8.36C21.4201 9 21.2441 9.72 21.2441 10.52C21.2441 11.736 21.6441 12.752 22.4441 13.568ZM46.119 4.04H48.183V17H46.023L45.759 15.416C44.511 16.68 42.951 17.312 41.079 17.312C39.143 17.312 37.527 16.664 36.231 15.368C34.951 14.072 34.311 12.456 34.311 10.52C34.311 8.568 34.951 6.952 36.231 5.672C37.527 4.376 39.143 3.728 41.079 3.728C42.983 3.728 44.559 4.368 45.807 5.648L46.119 4.04ZM38.223 13.568C39.039 14.368 40.055 14.768 41.271 14.768C42.503 14.768 43.511 14.368 44.295 13.568C45.095 12.752 45.495 11.736 45.495 10.52C45.495 9.288 45.095 8.272 44.295 7.472C43.511 6.672 42.503 6.272 41.271 6.272C40.471 6.272 39.743 6.456 39.087 6.824C38.447 7.192 37.943 7.704 37.575 8.36C37.207 9 37.023 9.72 37.023 10.52C37.023 11.736 37.423 12.752 38.223 13.568ZM60.1419 17L56.2539 11.48H54.6459V17H51.9819V4.04H54.6459V9.056H56.2779L59.8059 4.04H62.9499L58.5579 10.256L63.4299 17H60.1419ZM75.519 4.04V6.44H70.959V17H68.367V6.44H63.783V4.04H75.519ZM87.3609 4.04H88.8489V17H86.3049V8.768L79.3929 17H77.8569V4.04H80.4249V12.2L87.3609 4.04ZM100.806 17L96.918 11.48H95.31V17H92.646V4.04H95.31V9.056H96.942L100.47 4.04H103.614L99.222 10.256L104.094 17H100.806ZM116.433 15.392C115.121 16.672 113.473 17.312 111.489 17.312C109.505 17.312 107.849 16.672 106.521 15.392C105.209 14.096 104.553 12.472 104.553 10.52C104.553 9.24 104.849 8.08 105.441 7.04C106.049 6 106.881 5.192 107.937 4.616C109.009 4.024 110.193 3.728 111.489 3.728C112.785 3.728 113.961 4.024 115.017 4.616C116.089 5.192 116.921 6 117.513 7.04C118.121 8.08 118.425 9.24 118.425 10.52C118.425 12.472 117.761 14.096 116.433 15.392ZM111.489 14.768C112.305 14.768 113.033 14.592 113.673 14.24C114.313 13.872 114.809 13.368 115.161 12.728C115.529 12.072 115.713 11.336 115.713 10.52C115.713 9.288 115.313 8.272 114.513 7.472C113.729 6.672 112.721 6.272 111.489 6.272C110.257 6.272 109.241 6.672 108.441 7.472C107.657 8.272 107.265 9.288 107.265 10.52C107.265 11.752 107.657 12.768 108.441 13.568C109.241 14.368 110.257 14.768 111.489 14.768ZM120.951 11.576V8.984H128.655V11.576H120.951ZM143.035 15.392C141.723 16.672 140.075 17.312 138.091 17.312C136.107 17.312 134.451 16.672 133.123 15.392C131.811 14.096 131.155 12.472 131.155 10.52C131.155 9.24 131.451 8.08 132.043 7.04C132.651 6 133.483 5.192 134.539 4.616C135.611 4.024 136.795 3.728 138.091 3.728C139.387 3.728 140.563 4.024 141.619 4.616C142.691 5.192 143.523 6 144.115 7.04C144.723 8.08 145.027 9.24 145.027 10.52C145.027 12.472 144.363 14.096 143.035 15.392ZM138.091 14.768C138.907 14.768 139.635 14.592 140.275 14.24C140.915 13.872 141.411 13.368 141.763 12.728C142.131 12.072 142.315 11.336 142.315 10.52C142.315 9.288 141.915 8.272 141.115 7.472C140.331 6.672 139.323 6.272 138.091 6.272C136.859 6.272 135.843 6.672 135.043 7.472C134.259 8.272 133.867 9.288 133.867 10.52C133.867 11.752 134.259 12.768 135.043 13.568C135.843 14.368 136.859 14.768 138.091 14.768ZM154.825 3.728C156.105 3.728 157.257 4.024 158.281 4.616C159.305 5.192 160.105 6 160.681 7.04C161.257 8.08 161.545 9.24 161.545 10.52C161.545 12.472 160.905 14.096 159.625 15.392C158.361 16.672 156.761 17.312 154.825 17.312C153.161 17.312 151.729 16.792 150.529 15.752V21.656H147.865V4.04H149.665L150.169 5.624C151.417 4.36 152.969 3.728 154.825 3.728ZM151.585 13.568C152.385 14.368 153.393 14.768 154.609 14.768C155.841 14.768 156.857 14.368 157.657 13.568C158.457 12.752 158.857 11.736 158.857 10.52C158.857 9.304 158.457 8.296 157.657 7.496C156.857 6.68 155.849 6.272 154.633 6.272C153.833 6.272 153.105 6.456 152.449 6.824C151.793 7.192 151.281 7.704 150.913 8.36C150.561 9 150.385 9.72 150.385 10.52C150.385 11.736 150.785 12.752 151.585 13.568ZM173.916 4.04H175.404V17H172.86V8.768L165.948 17H164.412V4.04H166.98V12.2L173.916 4.04ZM191.513 10.544C191.513 10.784 191.497 11.08 191.465 11.432H180.953C181.113 12.472 181.545 13.296 182.249 13.904C182.969 14.512 183.857 14.816 184.913 14.816C185.425 14.816 185.905 14.744 186.353 14.6C186.801 14.44 187.193 14.224 187.529 13.952C187.881 13.664 188.169 13.32 188.393 12.92H191.201C190.689 14.296 189.873 15.376 188.753 16.16C187.633 16.928 186.353 17.312 184.913 17.312C183.009 17.312 181.417 16.664 180.137 15.368C178.873 14.072 178.241 12.456 178.241 10.52C178.241 8.584 178.873 6.968 180.137 5.672C181.417 4.376 183.009 3.728 184.913 3.728C186.209 3.728 187.361 4.04 188.369 4.664C189.377 5.272 190.153 6.096 190.697 7.136C191.241 8.16 191.513 9.296 191.513 10.544ZM184.913 6.128C183.921 6.128 183.073 6.408 182.369 6.968C181.681 7.528 181.225 8.296 181.001 9.272H188.849C188.689 8.616 188.425 8.056 188.057 7.592C187.689 7.112 187.233 6.752 186.689 6.512C186.161 6.256 185.569 6.128 184.913 6.128ZM202.981 4.04H205.597V17H202.981V11.576H196.981V17H194.341V4.04H196.981V9.128H202.981V4.04ZM219.636 4.04V6.44H215.076V17H212.484V6.44H207.9V4.04H219.636ZM231.478 4.04H232.966V17H230.422V8.768L223.51 17H221.974V4.04H224.542V12.2L231.478 4.04ZM243.723 3.728C245.003 3.728 246.155 4.024 247.179 4.616C248.203 5.192 249.003 6 249.579 7.04C250.155 8.08 250.443 9.24 250.443 10.52C250.443 12.472 249.803 14.096 248.523 15.392C247.259 16.672 245.659 17.312 243.723 17.312C242.059 17.312 240.627 16.792 239.427 15.752V21.656H236.763V4.04H238.563L239.067 5.624C240.315 4.36 241.867 3.728 243.723 3.728ZM240.483 13.568C241.283 14.368 242.291 14.768 243.507 14.768C244.739 14.768 245.755 14.368 246.555 13.568C247.355 12.752 247.755 11.736 247.755 10.52C247.755 9.304 247.355 8.296 246.555 7.496C245.755 6.68 244.747 6.272 243.531 6.272C242.731 6.272 242.003 6.456 241.347 6.824C240.691 7.192 240.179 7.704 239.811 8.36C239.459 9 239.283 9.72 239.283 10.52C239.283 11.736 239.683 12.752 240.483 13.568ZM264.23 15.392C262.918 16.672 261.27 17.312 259.286 17.312C257.302 17.312 255.646 16.672 254.318 15.392C253.006 14.096 252.35 12.472 252.35 10.52C252.35 9.24 252.646 8.08 253.238 7.04C253.846 6 254.678 5.192 255.734 4.616C256.806 4.024 257.99 3.728 259.286 3.728C260.582 3.728 261.758 4.024 262.814 4.616C263.886 5.192 264.718 6 265.31 7.04C265.918 8.08 266.222 9.24 266.222 10.52C266.222 12.472 265.558 14.096 264.23 15.392ZM259.286 14.768C260.102 14.768 260.83 14.592 261.47 14.24C262.11 13.872 262.606 13.368 262.958 12.728C263.326 12.072 263.51 11.336 263.51 10.52C263.51 9.288 263.11 8.272 262.31 7.472C261.526 6.672 260.518 6.272 259.286 6.272C258.054 6.272 257.038 6.672 256.238 7.472C255.454 8.272 255.062 9.288 255.062 10.52C255.062 11.752 255.454 12.768 256.238 13.568C257.038 14.368 258.054 14.768 259.286 14.768ZM277.844 10.232C278.148 10.36 278.42 10.528 278.66 10.736C278.916 10.928 279.132 11.16 279.308 11.432C279.484 11.688 279.62 11.976 279.716 12.296C279.812 12.616 279.86 12.944 279.86 13.28C279.86 14.336 279.476 15.224 278.708 15.944C277.94 16.648 276.98 17 275.828 17H269.06V4.04H275.732C276.82 4.04 277.708 4.352 278.396 4.976C279.1 5.584 279.452 6.376 279.452 7.352C279.452 7.96 279.308 8.52 279.02 9.032C278.732 9.544 278.34 9.944 277.844 10.232ZM276.812 7.784C276.812 7.336 276.66 6.976 276.356 6.704C276.068 6.432 275.684 6.296 275.204 6.296H271.676V9.272H275.204C275.684 9.272 276.068 9.136 276.356 8.864C276.66 8.592 276.812 8.232 276.812 7.784ZM275.348 14.672C275.876 14.672 276.3 14.52 276.62 14.216C276.956 13.912 277.124 13.528 277.124 13.064C277.124 12.584 276.956 12.192 276.62 11.888C276.284 11.584 275.852 11.432 275.324 11.432H271.676V14.672H275.348ZM293.713 4.04H295.777V17H293.617L293.353 15.416C292.105 16.68 290.545 17.312 288.673 17.312C286.737 17.312 285.121 16.664 283.825 15.368C282.545 14.072 281.905 12.456 281.905 10.52C281.905 8.568 282.545 6.952 283.825 5.672C285.121 4.376 286.737 3.728 288.673 3.728C290.577 3.728 292.153 4.368 293.401 5.648L293.713 4.04ZM285.817 13.568C286.633 14.368 287.649 14.768 288.865 14.768C290.097 14.768 291.105 14.368 291.889 13.568C292.689 12.752 293.089 11.736 293.089 10.52C293.089 9.288 292.689 8.272 291.889 7.472C291.105 6.672 290.097 6.272 288.865 6.272C288.065 6.272 287.337 6.456 286.681 6.824C286.041 7.192 285.537 7.704 285.169 8.36C284.801 9 284.617 9.72 284.617 10.52C284.617 11.736 285.017 12.752 285.817 13.568ZM308.216 4.04H310.832V17H308.216V11.576H302.216V17H299.576V4.04H302.216V9.128H308.216V4.04ZM323.263 4.04H325.879V17H323.263V11.576H317.263V17H314.623V4.04H317.263V9.128H323.263V4.04ZM340.589 15.392C339.277 16.672 337.629 17.312 335.645 17.312C333.661 17.312 332.005 16.672 330.677 15.392C329.365 14.096 328.709 12.472 328.709 10.52C328.709 9.24 329.005 8.08 329.597 7.04C330.205 6 331.037 5.192 332.093 4.616C333.165 4.024 334.349 3.728 335.645 3.728C336.941 3.728 338.117 4.024 339.173 4.616C340.245 5.192 341.077 6 341.669 7.04C342.277 8.08 342.581 9.24 342.581 10.52C342.581 12.472 341.917 14.096 340.589 15.392ZM335.645 14.768C336.461 14.768 337.189 14.592 337.829 14.24C338.469 13.872 338.965 13.368 339.317 12.728C339.685 12.072 339.869 11.336 339.869 10.52C339.869 9.288 339.469 8.272 338.669 7.472C337.885 6.672 336.877 6.272 335.645 6.272C334.413 6.272 333.397 6.672 332.597 7.472C331.813 8.272 331.421 9.288 331.421 10.52C331.421 11.752 331.813 12.768 332.597 13.568C333.397 14.368 334.413 14.768 335.645 14.768ZM357.731 10.544C357.731 10.784 357.715 11.08 357.683 11.432H347.171C347.331 12.472 347.763 13.296 348.467 13.904C349.187 14.512 350.075 14.816 351.131 14.816C351.643 14.816 352.123 14.744 352.571 14.6C353.019 14.44 353.411 14.224 353.747 13.952C354.099 13.664 354.387 13.32 354.611 12.92H357.419C356.907 14.296 356.091 15.376 354.971 16.16C353.851 16.928 352.571 17.312 351.131 17.312C349.227 17.312 347.635 16.664 346.355 15.368C345.091 14.072 344.459 12.456 344.459 10.52C344.459 8.584 345.091 6.968 346.355 5.672C347.635 4.376 349.227 3.728 351.131 3.728C352.427 3.728 353.579 4.04 354.587 4.664C355.595 5.272 356.371 6.096 356.915 7.136C357.459 8.16 357.731 9.296 357.731 10.544ZM351.131 6.128C350.139 6.128 349.291 6.408 348.587 6.968C347.899 7.528 347.443 8.296 347.219 9.272H355.067C354.907 8.616 354.643 8.056 354.275 7.592C353.907 7.112 353.451 6.752 352.907 6.512C352.379 6.256 351.787 6.128 351.131 6.128ZM12.816 44.392C11.504 45.672 9.856 46.312 7.872 46.312C5.888 46.312 4.232 45.672 2.904 44.392C1.592 43.096 0.936 41.472 0.936 39.52C0.936 38.24 1.232 37.08 1.824 36.04C2.432 35 3.264 34.192 4.32 33.616C5.392 33.024 6.576 32.728 7.872 32.728C9.168 32.728 10.344 33.024 11.4 33.616C12.472 34.192 13.304 35 13.896 36.04C14.504 37.08 14.808 38.24 14.808 39.52C14.808 41.472 14.144 43.096 12.816 44.392ZM7.872 43.768C8.688 43.768 9.416 43.592 10.056 43.24C10.696 42.872 11.192 42.368 11.544 41.728C11.912 41.072 12.096 40.336 12.096 39.52C12.096 38.288 11.696 37.272 10.896 36.472C10.112 35.672 9.104 35.272 7.872 35.272C6.64 35.272 5.624 35.672 4.824 36.472C4.04 37.272 3.648 38.288 3.648 39.52C3.648 40.752 4.04 41.768 4.824 42.568C5.624 43.368 6.64 43.768 7.872 43.768ZM24.246 33.664C26.118 33.664 27.638 34.24 28.806 35.392C29.99 36.544 30.582 38.04 30.582 39.88C30.582 41.784 29.958 43.336 28.71 44.536C27.478 45.72 25.862 46.312 23.862 46.312C21.75 46.312 20.086 45.656 18.87 44.344C17.67 43.016 17.07 41.2 17.07 38.896C17.07 35.744 17.67 33.352 18.87 31.72C20.086 30.072 22.11 28.904 24.942 28.216L28.998 27.232V29.872L24.99 30.832C22.222 31.488 20.582 32.936 20.07 35.176C21.19 34.168 22.582 33.664 24.246 33.664ZM23.862 43.792C25.014 43.792 25.966 43.424 26.718 42.688C27.486 41.936 27.87 41 27.87 39.88C27.87 39.128 27.694 38.456 27.342 37.864C26.99 37.256 26.51 36.784 25.902 36.448C25.294 36.096 24.614 35.92 23.862 35.92C23.11 35.92 22.422 36.096 21.798 36.448C21.19 36.784 20.71 37.256 20.358 37.864C20.022 38.456 19.854 39.128 19.854 39.88C19.854 41 20.23 41.936 20.982 42.688C21.75 43.424 22.71 43.792 23.862 43.792ZM40.4029 32.728C41.6829 32.728 42.8349 33.024 43.8589 33.616C44.8829 34.192 45.6829 35 46.2589 36.04C46.8349 37.08 47.1229 38.24 47.1229 39.52C47.1229 41.472 46.4829 43.096 45.2029 44.392C43.9389 45.672 42.3389 46.312 40.4029 46.312C38.7389 46.312 37.3069 45.792 36.1069 44.752V50.656H33.4429V33.04H35.2429L35.7469 34.624C36.9949 33.36 38.5469 32.728 40.4029 32.728ZM37.1629 42.568C37.9629 43.368 38.9709 43.768 40.1869 43.768C41.4189 43.768 42.4349 43.368 43.2349 42.568C44.0349 41.752 44.4349 40.736 44.4349 39.52C44.4349 38.304 44.0349 37.296 43.2349 36.496C42.4349 35.68 41.4269 35.272 40.2109 35.272C39.4109 35.272 38.6829 35.456 38.0269 35.824C37.3709 36.192 36.8589 36.704 36.4909 37.36C36.1389 38 35.9629 38.72 35.9629 39.52C35.9629 40.736 36.3629 41.752 37.1629 42.568ZM60.8378 33.04H62.9018V46H60.7418L60.4778 44.416C59.2298 45.68 57.6698 46.312 55.7978 46.312C53.8618 46.312 52.2458 45.664 50.9498 44.368C49.6698 43.072 49.0298 41.456 49.0298 39.52C49.0298 37.568 49.6698 35.952 50.9498 34.672C52.2458 33.376 53.8618 32.728 55.7978 32.728C57.7018 32.728 59.2778 33.368 60.5258 34.648L60.8378 33.04ZM52.9418 42.568C53.7578 43.368 54.7738 43.768 55.9898 43.768C57.2218 43.768 58.2298 43.368 59.0138 42.568C59.8138 41.752 60.2137 40.736 60.2137 39.52C60.2137 38.288 59.8138 37.272 59.0138 36.472C58.2298 35.672 57.2218 35.272 55.9898 35.272C55.1898 35.272 54.4618 35.456 53.8058 35.824C53.1658 36.192 52.6618 36.704 52.2938 37.36C51.9258 38 51.7418 38.72 51.7418 39.52C51.7418 40.736 52.1418 41.752 52.9418 42.568ZM73.9487 39.112C75.0847 39.784 75.6527 40.832 75.6527 42.256C75.6527 43.456 75.1727 44.432 74.2127 45.184C73.2527 45.936 72.0207 46.312 70.5167 46.312C69.0607 46.312 67.8687 45.936 66.9407 45.184C66.0287 44.416 65.5327 43.392 65.4527 42.112H67.8767C67.9727 42.672 68.2527 43.112 68.7167 43.432C69.1807 43.752 69.7807 43.912 70.5167 43.912C71.2687 43.912 71.8767 43.744 72.3407 43.408C72.8047 43.056 73.0367 42.608 73.0367 42.064C73.0367 41.536 72.8287 41.104 72.4127 40.768C72.0127 40.432 71.4767 40.264 70.8047 40.264H69.1247V38.2H70.8047C71.4127 38.2 71.8927 38.064 72.2447 37.792C72.5967 37.504 72.7727 37.12 72.7727 36.64C72.7727 36.128 72.5647 35.72 72.1487 35.416C71.7327 35.112 71.1807 34.96 70.4927 34.96C69.8687 34.96 69.3487 35.104 68.9327 35.392C68.5327 35.68 68.2927 36.08 68.2127 36.592H65.7887C65.8527 35.44 66.3247 34.512 67.2047 33.808C68.1007 33.088 69.2207 32.728 70.5647 32.728C71.9407 32.728 73.0687 33.08 73.9487 33.784C74.8447 34.488 75.2927 35.376 75.2927 36.448C75.2927 37.6 74.8447 38.488 73.9487 39.112ZM89.4801 44.392C88.1681 45.672 86.5201 46.312 84.5361 46.312C82.5521 46.312 80.8961 45.672 79.5681 44.392C78.2561 43.096 77.6001 41.472 77.6001 39.52C77.6001 38.24 77.8961 37.08 78.4881 36.04C79.0961 35 79.9281 34.192 80.9841 33.616C82.0561 33.024 83.2401 32.728 84.5361 32.728C85.8321 32.728 87.0081 33.024 88.0641 33.616C89.1361 34.192 89.9681 35 90.5601 36.04C91.1681 37.08 91.4721 38.24 91.4721 39.52C91.4721 41.472 90.8081 43.096 89.4801 44.392ZM84.5361 43.768C85.3521 43.768 86.0801 43.592 86.7201 43.24C87.3601 42.872 87.8561 42.368 88.2081 41.728C88.5761 41.072 88.7601 40.336 88.7601 39.52C88.7601 38.288 88.3601 37.272 87.5601 36.472C86.7761 35.672 85.7681 35.272 84.5361 35.272C83.3041 35.272 82.2881 35.672 81.4881 36.472C80.7041 37.272 80.3121 38.288 80.3121 39.52C80.3121 40.752 80.7041 41.768 81.4881 42.568C82.2881 43.368 83.3041 43.768 84.5361 43.768ZM103.094 39.232C103.398 39.36 103.67 39.528 103.91 39.736C104.166 39.928 104.382 40.16 104.558 40.432C104.734 40.688 104.87 40.976 104.966 41.296C105.062 41.616 105.11 41.944 105.11 42.28C105.11 43.336 104.726 44.224 103.958 44.944C103.19 45.648 102.23 46 101.078 46H94.3101V33.04H100.982C102.07 33.04 102.958 33.352 103.646 33.976C104.35 34.584 104.702 35.376 104.702 36.352C104.702 36.96 104.558 37.52 104.27 38.032C103.982 38.544 103.59 38.944 103.094 39.232ZM102.062 36.784C102.062 36.336 101.91 35.976 101.606 35.704C101.318 35.432 100.934 35.296 100.454 35.296H96.9261V38.272H100.454C100.934 38.272 101.318 38.136 101.606 37.864C101.91 37.592 102.062 37.232 102.062 36.784ZM100.598 43.672C101.126 43.672 101.55 43.52 101.87 43.216C102.206 42.912 102.374 42.528 102.374 42.064C102.374 41.584 102.206 41.192 101.87 40.888C101.534 40.584 101.102 40.432 100.574 40.432H96.9261V43.672H100.598ZM118.963 33.04H121.027V46H118.867L118.603 44.416C117.355 45.68 115.795 46.312 113.923 46.312C111.987 46.312 110.371 45.664 109.075 44.368C107.795 43.072 107.155 41.456 107.155 39.52C107.155 37.568 107.795 35.952 109.075 34.672C110.371 33.376 111.987 32.728 113.923 32.728C115.827 32.728 117.403 33.368 118.651 34.648L118.963 33.04ZM111.067 42.568C111.883 43.368 112.899 43.768 114.115 43.768C115.347 43.768 116.355 43.368 117.139 42.568C117.939 41.752 118.339 40.736 118.339 39.52C118.339 38.288 117.939 37.272 117.139 36.472C116.355 35.672 115.347 35.272 114.115 35.272C113.315 35.272 112.587 35.456 111.931 35.824C111.291 36.192 110.787 36.704 110.419 37.36C110.051 38 109.867 38.72 109.867 39.52C109.867 40.736 110.267 41.752 111.067 42.568ZM133.466 33.04H136.082V46H133.466V40.576H127.466V46H124.826V33.04H127.466V38.128H133.466V33.04ZM149.377 33.04H150.865V46H148.321V37.768L141.409 46H139.873V33.04H142.441V41.2L149.377 33.04ZM166.974 39.544C166.974 39.784 166.958 40.08 166.926 40.432H156.414C156.574 41.472 157.006 42.296 157.71 42.904C158.43 43.512 159.318 43.816 160.374 43.816C160.886 43.816 161.366 43.744 161.814 43.6C162.262 43.44 162.654 43.224 162.99 42.952C163.342 42.664 163.63 42.32 163.854 41.92H166.662C166.15 43.296 165.334 44.376 164.214 45.16C163.094 45.928 161.814 46.312 160.374 46.312C158.47 46.312 156.878 45.664 155.598 44.368C154.334 43.072 153.702 41.456 153.702 39.52C153.702 37.584 154.334 35.968 155.598 34.672C156.878 33.376 158.47 32.728 160.374 32.728C161.67 32.728 162.822 33.04 163.83 33.664C164.838 34.272 165.614 35.096 166.158 36.136C166.702 37.16 166.974 38.296 166.974 39.544ZM160.374 35.128C159.382 35.128 158.534 35.408 157.83 35.968C157.142 36.528 156.686 37.296 156.462 38.272H164.31C164.15 37.616 163.886 37.056 163.518 36.592C163.15 36.112 162.694 35.752 162.15 35.512C161.622 35.256 161.03 35.128 160.374 35.128ZM182.905 33.04H185.497V46H182.905V41.368C182.025 41.688 181.097 41.848 180.121 41.848C178.537 41.848 177.265 41.384 176.305 40.456C175.345 39.528 174.865 38.248 174.865 36.616V33.04H177.481V36.52C177.481 37.448 177.721 38.16 178.201 38.656C178.697 39.152 179.409 39.4 180.337 39.4C181.265 39.4 182.121 39.192 182.905 38.776V33.04ZM201.591 39.544C201.591 39.784 201.575 40.08 201.543 40.432H191.031C191.191 41.472 191.623 42.296 192.327 42.904C193.047 43.512 193.935 43.816 194.991 43.816C195.503 43.816 195.983 43.744 196.431 43.6C196.879 43.44 197.271 43.224 197.607 42.952C197.959 42.664 198.247 42.32 198.471 41.92H201.279C200.767 43.296 199.951 44.376 198.831 45.16C197.711 45.928 196.431 46.312 194.991 46.312C193.087 46.312 191.495 45.664 190.215 44.368C188.951 43.072 188.319 41.456 188.319 39.52C188.319 37.584 188.951 35.968 190.215 34.672C191.495 33.376 193.087 32.728 194.991 32.728C196.287 32.728 197.439 33.04 198.447 33.664C199.455 34.272 200.231 35.096 200.775 36.136C201.319 37.16 201.591 38.296 201.591 39.544ZM194.991 35.128C193.999 35.128 193.151 35.408 192.447 35.968C191.759 36.528 191.303 37.296 191.079 38.272H198.927C198.767 37.616 198.503 37.056 198.135 36.592C197.767 36.112 197.311 35.752 196.767 35.512C196.239 35.256 195.647 35.128 194.991 35.128ZM211.379 32.728C212.659 32.728 213.811 33.024 214.835 33.616C215.859 34.192 216.659 35 217.235 36.04C217.811 37.08 218.099 38.24 218.099 39.52C218.099 41.472 217.459 43.096 216.179 44.392C214.915 45.672 213.315 46.312 211.379 46.312C209.715 46.312 208.283 45.792 207.083 44.752V50.656H204.419V33.04H206.219L206.723 34.624C207.971 33.36 209.523 32.728 211.379 32.728ZM208.139 42.568C208.939 43.368 209.947 43.768 211.163 43.768C212.395 43.768 213.411 43.368 214.211 42.568C215.011 41.752 215.411 40.736 215.411 39.52C215.411 38.304 215.011 37.296 214.211 36.496C213.411 35.68 212.403 35.272 211.187 35.272C210.387 35.272 209.659 35.456 209.003 35.824C208.347 36.192 207.835 36.704 207.467 37.36C207.115 38 206.939 38.72 206.939 39.52C206.939 40.736 207.339 41.752 208.139 42.568ZM233.278 39.544C233.278 39.784 233.262 40.08 233.23 40.432H222.718C222.878 41.472 223.31 42.296 224.014 42.904C224.734 43.512 225.622 43.816 226.678 43.816C227.19 43.816 227.67 43.744 228.118 43.6C228.566 43.44 228.958 43.224 229.294 42.952C229.646 42.664 229.934 42.32 230.158 41.92H232.966C232.454 43.296 231.638 44.376 230.518 45.16C229.398 45.928 228.118 46.312 226.678 46.312C224.774 46.312 223.182 45.664 221.902 44.368C220.638 43.072 220.006 41.456 220.006 39.52C220.006 37.584 220.638 35.968 221.902 34.672C223.182 33.376 224.774 32.728 226.678 32.728C227.974 32.728 229.126 33.04 230.134 33.664C231.142 34.272 231.918 35.096 232.462 36.136C233.006 37.16 233.278 38.296 233.278 39.544ZM226.678 35.128C225.686 35.128 224.838 35.408 224.134 35.968C223.446 36.528 222.99 37.296 222.766 38.272H230.614C230.454 37.616 230.19 37.056 229.822 36.592C229.454 36.112 228.998 35.752 228.454 35.512C227.926 35.256 227.334 35.128 226.678 35.128ZM243.355 39.112C244.491 39.784 245.059 40.832 245.059 42.256C245.059 43.456 244.579 44.432 243.619 45.184C242.659 45.936 241.427 46.312 239.923 46.312C238.467 46.312 237.275 45.936 236.347 45.184C235.435 44.416 234.939 43.392 234.859 42.112H237.283C237.379 42.672 237.659 43.112 238.123 43.432C238.587 43.752 239.187 43.912 239.923 43.912C240.675 43.912 241.283 43.744 241.747 43.408C242.211 43.056 242.443 42.608 242.443 42.064C242.443 41.536 242.235 41.104 241.819 40.768C241.419 40.432 240.883 40.264 240.211 40.264H238.531V38.2H240.211C240.819 38.2 241.299 38.064 241.651 37.792C242.003 37.504 242.179 37.12 242.179 36.64C242.179 36.128 241.971 35.72 241.555 35.416C241.139 35.112 240.587 34.96 239.899 34.96C239.275 34.96 238.755 35.104 238.339 35.392C237.939 35.68 237.699 36.08 237.619 36.592H235.195C235.259 35.44 235.731 34.512 236.611 33.808C237.507 33.088 238.627 32.728 239.971 32.728C241.347 32.728 242.475 33.08 243.355 33.784C244.251 34.488 244.699 35.376 244.699 36.448C244.699 37.6 244.251 38.488 243.355 39.112ZM254.013 33.04H265.317V46H262.677V35.464H256.677V46H254.013V33.04ZM276.067 32.728C277.347 32.728 278.499 33.024 279.523 33.616C280.547 34.192 281.347 35 281.923 36.04C282.499 37.08 282.787 38.24 282.787 39.52C282.787 41.472 282.147 43.096 280.867 44.392C279.603 45.672 278.003 46.312 276.067 46.312C274.403 46.312 272.971 45.792 271.771 44.752V50.656H269.107V33.04H270.907L271.411 34.624C272.659 33.36 274.211 32.728 276.067 32.728ZM272.827 42.568C273.627 43.368 274.635 43.768 275.851 43.768C277.083 43.768 278.099 43.368 278.899 42.568C279.699 41.752 280.099 40.736 280.099 39.52C280.099 38.304 279.699 37.296 278.899 36.496C278.099 35.68 277.091 35.272 275.875 35.272C275.075 35.272 274.347 35.456 273.691 35.824C273.035 36.192 272.523 36.704 272.155 37.36C271.803 38 271.627 38.72 271.627 39.52C271.627 40.736 272.027 41.752 272.827 42.568ZM295.158 33.04H296.646V46H294.102V37.768L287.19 46H285.654V33.04H288.222V41.2L295.158 33.04ZM308.603 46L304.715 40.48H303.107V46H300.443V33.04H303.107V38.056H304.739L308.267 33.04H311.411L307.019 39.256L311.891 46H308.603ZM316.012 33.04H324.82V46H322.204V35.344H318.196L317.62 41.08C317.444 42.904 316.972 44.192 316.204 44.944C315.452 45.696 314.308 46.072 312.772 46.072H312.316V43.624H312.94C314.204 43.624 314.916 42.832 315.076 41.248L316.012 33.04ZM339.463 33.04H341.527V46H339.367L339.103 44.416C337.855 45.68 336.295 46.312 334.423 46.312C332.487 46.312 330.871 45.664 329.575 44.368C328.295 43.072 327.655 41.456 327.655 39.52C327.655 37.568 328.295 35.952 329.575 34.672C330.871 33.376 332.487 32.728 334.423 32.728C336.327 32.728 337.903 33.368 339.151 34.648L339.463 33.04ZM331.567 42.568C332.383 43.368 333.399 43.768 334.615 43.768C335.847 43.768 336.855 43.368 337.639 42.568C338.439 41.752 338.839 40.736 338.839 39.52C338.839 38.288 338.439 37.272 337.639 36.472C336.855 35.672 335.847 35.272 334.615 35.272C333.815 35.272 333.087 35.456 332.431 35.824C331.791 36.192 331.287 36.704 330.919 37.36C330.551 38 330.367 38.72 330.367 39.52C330.367 40.736 330.767 41.752 331.567 42.568ZM356.582 43.48H358.262V49.264H355.838V46H346.382V49.264H343.958V43.48H345.326C345.694 43.176 345.974 42.712 346.166 42.088C346.374 41.464 346.558 40.52 346.718 39.256C346.878 37.976 347.086 35.904 347.342 33.04H356.582V43.48ZM349.694 35.392C349.518 38 349.318 39.872 349.094 41.008C348.87 42.144 348.542 42.968 348.11 43.48H353.966V35.392H349.694ZM369.763 33.04H372.379V46H369.763V40.576H363.763V46H361.123V33.04H363.763V38.128H369.763V33.04ZM385.409 33.04H388.265L382.313 46.24C381.561 47.888 380.793 49.032 380.009 49.672C379.241 50.328 378.209 50.656 376.913 50.656H375.593V48.256H376.697C377.545 48.256 378.169 48.088 378.569 47.752C378.969 47.416 379.409 46.72 379.889 45.664L380.177 45.064L374.537 33.04H377.441L381.545 42.088L385.409 33.04ZM401.556 32.728C403.492 32.728 405.092 33.376 406.356 34.672C407.636 35.952 408.276 37.576 408.276 39.544C408.276 41.496 407.644 43.112 406.38 44.392C405.116 45.672 403.508 46.312 401.556 46.312C400.42 46.312 399.38 46.08 398.436 45.616C397.492 45.152 396.724 44.504 396.132 43.672C395.54 42.824 395.156 41.856 394.98 40.768H393.036V46.024H390.396V33.04H393.036V38.272H394.98C395.252 36.624 395.988 35.288 397.188 34.264C398.404 33.24 399.86 32.728 401.556 32.728ZM398.676 42.568C399.444 43.368 400.404 43.768 401.556 43.768C402.708 43.768 403.668 43.368 404.436 42.568C405.204 41.768 405.588 40.76 405.588 39.544C405.588 38.312 405.204 37.296 404.436 36.496C403.668 35.68 402.708 35.272 401.556 35.272C400.404 35.272 399.444 35.68 398.676 36.496C397.908 37.296 397.524 38.312 397.524 39.544C397.524 40.76 397.908 41.768 398.676 42.568ZM11.4 62.04H12.888V75H10.344V66.768L3.432 75H1.896V62.04H4.464V70.2L11.4 62.04ZM37.6599 68.568C37.6599 70.472 37.0279 72.048 35.7639 73.296C34.5159 74.544 32.9239 75.216 30.9879 75.312V79.08H28.4439V75.312C26.5079 75.216 24.9079 74.544 23.6439 73.296C22.3959 72.048 21.7719 70.472 21.7719 68.568C21.7719 66.664 22.4039 65.072 23.6679 63.792C24.9319 62.512 26.5239 61.824 28.4439 61.728V58.104H30.9879V61.728C32.9079 61.824 34.4999 62.512 35.7639 63.792C37.0279 65.056 37.6599 66.648 37.6599 68.568ZM24.3879 68.544C24.3879 69.728 24.7639 70.72 25.5159 71.52C26.2839 72.32 27.2679 72.76 28.4679 72.84V64.2C27.2679 64.28 26.2839 64.728 25.5159 65.544C24.7639 66.36 24.3879 67.36 24.3879 68.544ZM30.9639 72.84C32.1639 72.76 33.1399 72.32 33.8919 71.52C34.6599 70.72 35.0439 69.728 35.0439 68.544C35.0439 67.36 34.6599 66.36 33.8919 65.544C33.1239 64.728 32.1479 64.28 30.9639 64.2V72.84ZM49.2923 62.04H52.1483L46.1963 75.24C45.4443 76.888 44.6763 78.032 43.8923 78.672C43.1243 79.328 42.0923 79.656 40.7963 79.656H39.4763V77.256H40.5803C41.4283 77.256 42.0523 77.088 42.4523 76.752C42.8523 76.416 43.2923 75.72 43.7723 74.664L44.0603 74.064L38.4203 62.04H41.3242L45.4283 71.088L49.2923 62.04ZM62.9188 62.04H65.5348V75H62.9188V69.576H56.9188V75H54.2788V62.04H56.9188V67.128H62.9188V62.04ZM80.5817 72.48H82.2617V78.264H79.8377V75H70.3817V78.264H67.9577V72.48H69.3257C69.6937 72.176 69.9737 71.712 70.1657 71.088C70.3737 70.464 70.5577 69.52 70.7177 68.256C70.8777 66.976 71.0857 64.904 71.3417 62.04H80.5817V72.48ZM73.6937 64.392C73.5177 67 73.3177 68.872 73.0937 70.008C72.8697 71.144 72.5417 71.968 72.1097 72.48H77.9657V64.392H73.6937ZM95.7362 62.04H97.8002V75H95.6402L95.3762 73.416C94.1282 74.68 92.5682 75.312 90.6962 75.312C88.7602 75.312 87.1442 74.664 85.8482 73.368C84.5682 72.072 83.9282 70.456 83.9282 68.52C83.9282 66.568 84.5682 64.952 85.8482 63.672C87.1442 62.376 88.7602 61.728 90.6962 61.728C92.6002 61.728 94.1762 62.368 95.4242 63.648L95.7362 62.04ZM87.8402 71.568C88.6562 72.368 89.6722 72.768 90.8882 72.768C92.1202 72.768 93.1282 72.368 93.9122 71.568C94.7122 70.752 95.1122 69.736 95.1122 68.52C95.1122 67.288 94.7122 66.272 93.9122 65.472C93.1282 64.672 92.1202 64.272 90.8882 64.272C90.0882 64.272 89.3602 64.456 88.7042 64.824C88.0642 65.192 87.5602 65.704 87.1922 66.36C86.8242 67 86.6402 67.72 86.6402 68.52C86.6402 69.736 87.0402 70.752 87.8402 71.568ZM118.039 75H115.471L113.911 66.168L109.567 74.856H109.015L104.695 66.168L103.135 75H100.567L102.895 62.04H105.151L109.303 70.32L113.479 62.04H115.711L118.039 75ZM133.013 68.544C133.013 68.784 132.997 69.08 132.965 69.432H122.453C122.613 70.472 123.045 71.296 123.749 71.904C124.469 72.512 125.357 72.816 126.413 72.816C126.925 72.816 127.405 72.744 127.853 72.6C128.301 72.44 128.693 72.224 129.029 71.952C129.381 71.664 129.669 71.32 129.893 70.92H132.701C132.189 72.296 131.373 73.376 130.253 74.16C129.133 74.928 127.853 75.312 126.413 75.312C124.509 75.312 122.917 74.664 121.637 73.368C120.373 72.072 119.741 70.456 119.741 68.52C119.741 66.584 120.373 64.968 121.637 63.672C122.917 62.376 124.509 61.728 126.413 61.728C127.709 61.728 128.861 62.04 129.869 62.664C130.877 63.272 131.653 64.096 132.197 65.136C132.741 66.16 133.013 67.296 133.013 68.544ZM126.413 64.128C125.421 64.128 124.573 64.408 123.869 64.968C123.181 65.528 122.725 66.296 122.501 67.272H130.349C130.189 66.616 129.925 66.056 129.557 65.592C129.189 65.112 128.733 64.752 128.189 64.512C127.661 64.256 127.069 64.128 126.413 64.128ZM144.481 62.04H147.097V75H144.481V69.576H138.481V75H135.841V62.04H138.481V67.128H144.481V62.04ZM161.136 62.04V64.44H156.576V75H153.984V64.44H149.4V62.04H161.136ZM173.947 62.04H176.011V75H173.851L173.587 73.416C172.339 74.68 170.779 75.312 168.907 75.312C166.971 75.312 165.355 74.664 164.059 73.368C162.779 72.072 162.139 70.456 162.139 68.52C162.139 66.568 162.779 64.952 164.059 63.672C165.355 62.376 166.971 61.728 168.907 61.728C170.811 61.728 172.387 62.368 173.635 63.648L173.947 62.04ZM166.051 71.568C166.867 72.368 167.883 72.768 169.099 72.768C170.331 72.768 171.339 72.368 172.123 71.568C172.923 70.752 173.323 69.736 173.323 68.52C173.323 67.288 172.923 66.272 172.123 65.472C171.339 64.672 170.331 64.272 169.099 64.272C168.299 64.272 167.571 64.456 166.915 64.824C166.275 65.192 165.771 65.704 165.403 66.36C165.035 67 164.851 67.72 164.851 68.52C164.851 69.736 165.251 70.752 166.051 71.568ZM182.09 62.04H190.898V75H188.282V64.344H184.274L183.698 70.08C183.522 71.904 183.05 73.192 182.282 73.944C181.53 74.696 180.386 75.072 178.85 75.072H178.394V72.624H179.018C180.282 72.624 180.994 71.832 181.154 70.248L182.09 62.04ZM200.069 65.88C201.493 65.88 202.645 66.304 203.525 67.152C204.405 68 204.845 69.104 204.845 70.464C204.845 71.808 204.405 72.904 203.525 73.752C202.645 74.584 201.493 75 200.069 75H194.693V62.04H197.309V65.88H200.069ZM199.757 72.696C200.477 72.696 201.061 72.496 201.509 72.096C201.957 71.68 202.181 71.136 202.181 70.464C202.181 70.016 202.077 69.624 201.869 69.288C201.677 68.936 201.397 68.664 201.029 68.472C200.661 68.28 200.237 68.184 199.757 68.184H197.309V72.696H199.757ZM216.036 62.04H218.652V75H216.036V69.576H210.036V75H207.396V62.04H210.036V67.128H216.036V62.04ZM231.683 62.04H234.539L228.587 75.24C227.835 76.888 227.067 78.032 226.283 78.672C225.515 79.328 224.483 79.656 223.187 79.656H221.867V77.256H222.971C223.819 77.256 224.443 77.088 224.843 76.752C225.243 76.416 225.683 75.72 226.163 74.664L226.451 74.064L220.811 62.04H223.715L227.819 71.088L231.683 62.04ZM247.829 61.728C249.765 61.728 251.365 62.376 252.629 63.672C253.909 64.952 254.549 66.576 254.549 68.544C254.549 70.496 253.917 72.112 252.653 73.392C251.389 74.672 249.781 75.312 247.829 75.312C246.693 75.312 245.653 75.08 244.709 74.616C243.765 74.152 242.997 73.504 242.405 72.672C241.813 71.824 241.429 70.856 241.253 69.768H239.309V75.024H236.669V62.04H239.309V67.272H241.253C241.525 65.624 242.261 64.288 243.461 63.264C244.677 62.24 246.133 61.728 247.829 61.728ZM244.949 71.568C245.717 72.368 246.677 72.768 247.829 72.768C248.981 72.768 249.941 72.368 250.709 71.568C251.477 70.768 251.861 69.76 251.861 68.544C251.861 67.312 251.477 66.296 250.709 65.496C249.941 64.68 248.981 64.272 247.829 64.272C246.677 64.272 245.717 64.68 244.949 65.496C244.181 66.296 243.797 67.312 243.797 68.544C243.797 69.76 244.181 70.768 244.949 71.568ZM272.099 62.04H274.715V75H272.099V69.576H266.099V75H263.459V62.04H266.099V67.128H272.099V62.04ZM289.353 62.04H291.417V75H289.257L288.993 73.416C287.745 74.68 286.185 75.312 284.313 75.312C282.377 75.312 280.761 74.664 279.465 73.368C278.185 72.072 277.545 70.456 277.545 68.52C277.545 66.568 278.185 64.952 279.465 63.672C280.761 62.376 282.377 61.728 284.313 61.728C286.217 61.728 287.793 62.368 289.041 63.648L289.353 62.04ZM281.457 71.568C282.273 72.368 283.289 72.768 284.505 72.768C285.737 72.768 286.745 72.368 287.529 71.568C288.329 70.752 288.729 69.736 288.729 68.52C288.729 67.288 288.329 66.272 287.529 65.472C286.745 64.672 285.737 64.272 284.505 64.272C283.705 64.272 282.977 64.456 282.321 64.824C281.681 65.192 281.177 65.704 280.809 66.36C280.441 67 280.257 67.72 280.257 68.52C280.257 69.736 280.657 70.752 281.457 71.568ZM304.456 62.04H307.312L301.36 75.24C300.608 76.888 299.84 78.032 299.056 78.672C298.288 79.328 297.256 79.656 295.96 79.656H294.64V77.256H295.744C296.592 77.256 297.216 77.088 297.616 76.752C298.016 76.416 298.456 75.72 298.936 74.664L299.224 74.064L293.584 62.04H296.488L300.592 71.088L304.456 62.04ZM317.603 75L313.715 69.48H312.107V75H309.443V62.04H312.107V67.056H313.739L317.267 62.04H320.411L316.019 68.256L320.891 75H317.603ZM331.972 62.04H334.828L328.876 75.24C328.124 76.888 327.356 78.032 326.572 78.672C325.804 79.328 324.772 79.656 323.476 79.656H322.156V77.256H323.26C324.108 77.256 324.732 77.088 325.132 76.752C325.532 76.416 325.972 75.72 326.452 74.664L326.74 74.064L321.1 62.04H324.004L328.108 71.088L331.972 62.04ZM18.336 104H15.768L14.208 95.168L9.864 103.856H9.312L4.992 95.168L3.432 104H0.864L3.192 91.04H5.448L9.6 99.32L13.776 91.04H16.008L18.336 104ZM30.5953 91.04H32.0833V104H29.5393V95.768L22.6273 104H21.0913V91.04H23.6593V99.2L30.5953 91.04ZM42.8404 90.728C44.1204 90.728 45.2724 91.024 46.2964 91.616C47.3204 92.192 48.1204 93 48.6964 94.04C49.2724 95.08 49.5604 96.24 49.5604 97.52C49.5604 99.472 48.9204 101.096 47.6404 102.392C46.3764 103.672 44.7764 104.312 42.8404 104.312C41.1764 104.312 39.7444 103.792 38.5444 102.752V108.656H35.8804V91.04H37.6804L38.1844 92.624C39.4324 91.36 40.9844 90.728 42.8404 90.728ZM39.6004 100.568C40.4004 101.368 41.4084 101.768 42.6244 101.768C43.8564 101.768 44.8724 101.368 45.6724 100.568C46.4724 99.752 46.8724 98.736 46.8724 97.52C46.8724 96.304 46.4724 95.296 45.6724 94.496C44.8724 93.68 43.8644 93.272 42.6484 93.272C41.8484 93.272 41.1204 93.456 40.4644 93.824C39.8084 94.192 39.2964 94.704 38.9284 95.36C38.5764 96 38.4004 96.72 38.4004 97.52C38.4004 98.736 38.8004 99.752 39.6004 100.568ZM63.3473 102.392C62.0353 103.672 60.3873 104.312 58.4033 104.312C56.4193 104.312 54.7633 103.672 53.4353 102.392C52.1233 101.096 51.4673 99.472 51.4673 97.52C51.4673 96.24 51.7633 95.08 52.3553 94.04C52.9633 93 53.7953 92.192 54.8513 91.616C55.9233 91.024 57.1073 90.728 58.4033 90.728C59.6993 90.728 60.8753 91.024 61.9313 91.616C63.0033 92.192 63.8353 93 64.4273 94.04C65.0353 95.08 65.3393 96.24 65.3393 97.52C65.3393 99.472 64.6753 101.096 63.3473 102.392ZM58.4033 101.768C59.2193 101.768 59.9473 101.592 60.5873 101.24C61.2273 100.872 61.7233 100.368 62.0753 99.728C62.4433 99.072 62.6273 98.336 62.6273 97.52C62.6273 96.288 62.2273 95.272 61.4273 94.472C60.6433 93.672 59.6353 93.272 58.4033 93.272C57.1713 93.272 56.1553 93.672 55.3553 94.472C54.5713 95.272 54.1793 96.288 54.1793 97.52C54.1793 98.752 54.5713 99.768 55.3553 100.568C56.1553 101.368 57.1713 101.768 58.4033 101.768ZM76.9613 97.232C77.2653 97.36 77.5373 97.528 77.7773 97.736C78.0333 97.928 78.2493 98.16 78.4253 98.432C78.6013 98.688 78.7373 98.976 78.8333 99.296C78.9293 99.616 78.9773 99.944 78.9773 100.28C78.9773 101.336 78.5933 102.224 77.8253 102.944C77.0573 103.648 76.0973 104 74.9453 104H68.1773V91.04H74.8493C75.9373 91.04 76.8253 91.352 77.5133 91.976C78.2173 92.584 78.5693 93.376 78.5693 94.352C78.5693 94.96 78.4253 95.52 78.1373 96.032C77.8493 96.544 77.4573 96.944 76.9613 97.232ZM75.9293 94.784C75.9293 94.336 75.7773 93.976 75.4733 93.704C75.1853 93.432 74.8013 93.296 74.3213 93.296H70.7933V96.272H74.3213C74.8013 96.272 75.1853 96.136 75.4733 95.864C75.7773 95.592 75.9293 95.232 75.9293 94.784ZM74.4653 101.672C74.9933 101.672 75.4173 101.52 75.7373 101.216C76.0733 100.912 76.2413 100.528 76.2413 100.064C76.2413 99.584 76.0733 99.192 75.7373 98.888C75.4013 98.584 74.9693 98.432 74.4413 98.432H70.7933V101.672H74.4653ZM92.9019 102.392C91.5899 103.672 89.9419 104.312 87.9579 104.312C85.9739 104.312 84.3179 103.672 82.9899 102.392C81.6779 101.096 81.0219 99.472 81.0219 97.52C81.0219 96.24 81.3179 95.08 81.9099 94.04C82.5179 93 83.3499 92.192 84.4059 91.616C85.4779 91.024 86.6619 90.728 87.9579 90.728C89.2539 90.728 90.4299 91.024 91.4859 91.616C92.5579 92.192 93.3899 93 93.9819 94.04C94.5899 95.08 94.8939 96.24 94.8939 97.52C94.8939 99.472 94.2299 101.096 92.9019 102.392ZM87.9579 101.768C88.7739 101.768 89.5019 101.592 90.1419 101.24C90.7819 100.872 91.2779 100.368 91.6299 99.728C91.9979 99.072 92.1819 98.336 92.1819 97.52C92.1819 96.288 91.7819 95.272 90.9819 94.472C90.1979 93.672 89.1899 93.272 87.9579 93.272C86.7259 93.272 85.7099 93.672 84.9099 94.472C84.1259 95.272 83.7339 96.288 83.7339 97.52C83.7339 98.752 84.1259 99.768 84.9099 100.568C85.7099 101.368 86.7259 101.768 87.9579 101.768ZM106.012 91.04V93.416H100.348V104H97.7319V91.04H106.012ZM118.847 102.392C117.535 103.672 115.887 104.312 113.903 104.312C111.919 104.312 110.263 103.672 108.935 102.392C107.623 101.096 106.967 99.472 106.967 97.52C106.967 96.24 107.263 95.08 107.855 94.04C108.463 93 109.295 92.192 110.351 91.616C111.423 91.024 112.607 90.728 113.903 90.728C115.199 90.728 116.375 91.024 117.431 91.616C118.503 92.192 119.335 93 119.927 94.04C120.535 95.08 120.839 96.24 120.839 97.52C120.839 99.472 120.175 101.096 118.847 102.392ZM113.903 101.768C114.719 101.768 115.447 101.592 116.087 101.24C116.727 100.872 117.223 100.368 117.575 99.728C117.943 99.072 118.127 98.336 118.127 97.52C118.127 96.288 117.727 95.272 116.927 94.472C116.143 93.672 115.135 93.272 113.903 93.272C112.671 93.272 111.655 93.672 110.855 94.472C110.071 95.272 109.679 96.288 109.679 97.52C109.679 98.752 110.071 99.768 110.855 100.568C111.655 101.368 112.671 101.768 113.903 101.768ZM138.964 91.04H141.82L135.868 104.24C135.116 105.888 134.348 107.032 133.564 107.672C132.796 108.328 131.764 108.656 130.468 108.656H129.148V106.256H130.252C131.1 106.256 131.724 106.088 132.124 105.752C132.524 105.416 132.964 104.72 133.444 103.664L133.732 103.064L128.092 91.04H130.996L135.1 100.088L138.964 91.04ZM150.911 90.728C152.191 90.728 153.343 91.024 154.367 91.616C155.391 92.192 156.191 93 156.767 94.04C157.343 95.08 157.631 96.24 157.631 97.52C157.631 99.472 156.991 101.096 155.711 102.392C154.447 103.672 152.847 104.312 150.911 104.312C149.247 104.312 147.815 103.792 146.615 102.752V108.656H143.951V91.04H145.751L146.255 92.624C147.503 91.36 149.055 90.728 150.911 90.728ZM147.671 100.568C148.471 101.368 149.479 101.768 150.695 101.768C151.927 101.768 152.943 101.368 153.743 100.568C154.543 99.752 154.943 98.736 154.943 97.52C154.943 96.304 154.543 95.296 153.743 94.496C152.943 93.68 151.935 93.272 150.719 93.272C149.919 93.272 149.191 93.456 148.535 93.824C147.879 94.192 147.367 94.704 146.999 95.36C146.647 96 146.471 96.72 146.471 97.52C146.471 98.736 146.871 99.752 147.671 100.568ZM171.418 102.392C170.106 103.672 168.458 104.312 166.474 104.312C164.49 104.312 162.834 103.672 161.506 102.392C160.194 101.096 159.538 99.472 159.538 97.52C159.538 96.24 159.834 95.08 160.426 94.04C161.034 93 161.866 92.192 162.922 91.616C163.994 91.024 165.178 90.728 166.474 90.728C167.77 90.728 168.946 91.024 170.002 91.616C171.074 92.192 171.906 93 172.498 94.04C173.106 95.08 173.41 96.24 173.41 97.52C173.41 99.472 172.746 101.096 171.418 102.392ZM166.474 101.768C167.29 101.768 168.018 101.592 168.658 101.24C169.298 100.872 169.794 100.368 170.146 99.728C170.514 99.072 170.698 98.336 170.698 97.52C170.698 96.288 170.298 95.272 169.498 94.472C168.714 93.672 167.706 93.272 166.474 93.272C165.242 93.272 164.226 93.672 163.426 94.472C162.642 95.272 162.25 96.288 162.25 97.52C162.25 98.752 162.642 99.768 163.426 100.568C164.226 101.368 165.242 101.768 166.474 101.768ZM185.032 97.232C185.336 97.36 185.608 97.528 185.848 97.736C186.104 97.928 186.32 98.16 186.496 98.432C186.672 98.688 186.808 98.976 186.904 99.296C187 99.616 187.048 99.944 187.048 100.28C187.048 101.336 186.664 102.224 185.896 102.944C185.128 103.648 184.168 104 183.016 104H176.248V91.04H182.92C184.008 91.04 184.896 91.352 185.584 91.976C186.288 92.584 186.64 93.376 186.64 94.352C186.64 94.96 186.496 95.52 186.208 96.032C185.92 96.544 185.528 96.944 185.032 97.232ZM184 94.784C184 94.336 183.848 93.976 183.544 93.704C183.256 93.432 182.872 93.296 182.392 93.296H178.864V96.272H182.392C182.872 96.272 183.256 96.136 183.544 95.864C183.848 95.592 184 95.232 184 94.784ZM182.536 101.672C183.064 101.672 183.488 101.52 183.808 101.216C184.144 100.912 184.312 100.528 184.312 100.064C184.312 99.584 184.144 99.192 183.808 98.888C183.472 98.584 183.04 98.432 182.512 98.432H178.864V101.672H182.536ZM198.692 91.04H201.308V104H198.692V98.576H192.692V104H190.052V91.04H192.692V96.128H198.692V91.04ZM208.723 91.04H214.915V104H212.323V99.248H209.611L206.779 104H203.875L206.971 98.816C206.187 98.496 205.571 98.016 205.123 97.376C204.675 96.736 204.451 95.992 204.451 95.144C204.451 93.976 204.859 93 205.675 92.216C206.491 91.432 207.507 91.04 208.723 91.04ZM209.083 96.92H212.323V93.392H209.083C208.699 93.392 208.355 93.472 208.051 93.632C207.763 93.776 207.539 93.984 207.379 94.256C207.219 94.512 207.139 94.816 207.139 95.168C207.139 95.68 207.315 96.104 207.667 96.44C208.019 96.76 208.491 96.92 209.083 96.92Z" fill="white"/>
</svg>
