<svg width="278" height="35" viewBox="0 0 278 35" fill="none" xmlns="http://www.w3.org/2000/svg">
<path d="M10.6442 22.288C8.16424 22.288 6.10024 21.472 4.45224 19.84C2.82024 18.192 2.00424 16.112 2.00424 13.6C2.00424 11.088 2.82024 9.016 4.45224 7.384C6.10024 5.736 8.16424 4.912 10.6442 4.912C11.9562 4.912 13.1722 5.168 14.2922 5.68C15.4122 6.192 16.3482 6.92 17.1002 7.864C17.8682 8.808 18.3962 9.904 18.6842 11.152H15.9002C15.5002 10.032 14.8362 9.16 13.9082 8.536C12.9802 7.896 11.8922 7.576 10.6442 7.576C8.96424 7.576 7.57224 8.144 6.46824 9.28C5.36424 10.416 4.81224 11.864 4.81224 13.624C4.81224 15.368 5.36424 16.808 6.46824 17.944C7.57224 19.064 8.96424 19.624 10.6442 19.624C11.9242 19.624 13.0362 19.288 13.9802 18.616C14.9242 17.928 15.5802 16.992 15.9482 15.808H18.7562C18.3242 17.776 17.3722 19.352 15.9002 20.536C14.4282 21.704 12.6762 22.288 10.6442 22.288ZM37.8467 22H35.2787L33.7187 13.168L29.3747 21.856H28.8227L24.5027 13.168L22.9427 22H20.3747L22.7027 9.04H24.9587L29.1107 17.32L33.2867 9.04H35.5187L37.8467 22ZM51.4283 20.392C50.1163 21.672 48.4683 22.312 46.4843 22.312C44.5003 22.312 42.8443 21.672 41.5163 20.392C40.2043 19.096 39.5483 17.472 39.5483 15.52C39.5483 14.24 39.8443 13.08 40.4363 12.04C41.0443 11 41.8763 10.192 42.9323 9.616C44.0043 9.024 45.1883 8.728 46.4843 8.728C47.7803 8.728 48.9563 9.024 50.0123 9.616C51.0843 10.192 51.9163 11 52.5083 12.04C53.1163 13.08 53.4203 14.24 53.4203 15.52C53.4203 17.472 52.7563 19.096 51.4283 20.392ZM46.4843 19.768C47.3003 19.768 48.0283 19.592 48.6683 19.24C49.3083 18.872 49.8043 18.368 50.1563 17.728C50.5243 17.072 50.7083 16.336 50.7083 15.52C50.7083 14.288 50.3083 13.272 49.5083 12.472C48.7243 11.672 47.7163 11.272 46.4843 11.272C45.2523 11.272 44.2363 11.672 43.4363 12.472C42.6523 13.272 42.2603 14.288 42.2603 15.52C42.2603 16.752 42.6523 17.768 43.4363 18.568C44.2363 19.368 45.2523 19.768 46.4843 19.768ZM66.1313 9.04V11.44H61.5713V22H58.9793V11.44H54.3953V9.04H66.1313ZM75.4292 8.728C76.7092 8.728 77.8612 9.024 78.8852 9.616C79.9092 10.192 80.7092 11 81.2852 12.04C81.8612 13.08 82.1492 14.24 82.1492 15.52C82.1492 17.472 81.5092 19.096 80.2292 20.392C78.9652 21.672 77.3652 22.312 75.4292 22.312C73.7652 22.312 72.3332 21.792 71.1332 20.752V26.656H68.4692V9.04H70.2692L70.7732 10.624C72.0212 9.36 73.5732 8.728 75.4292 8.728ZM72.1892 18.568C72.9892 19.368 73.9972 19.768 75.2132 19.768C76.4452 19.768 77.4612 19.368 78.2612 18.568C79.0612 17.752 79.4612 16.736 79.4612 15.52C79.4612 14.304 79.0612 13.296 78.2612 12.496C77.4612 11.68 76.4532 11.272 75.2372 11.272C74.4372 11.272 73.7092 11.456 73.0532 11.824C72.3972 12.192 71.8852 12.704 71.5172 13.36C71.1652 14 70.9892 14.72 70.9892 15.52C70.9892 16.736 71.3892 17.752 72.1892 18.568ZM97.3281 15.544C97.3281 15.784 97.3121 16.08 97.2801 16.432H86.7681C86.9281 17.472 87.3601 18.296 88.0641 18.904C88.7841 19.512 89.6721 19.816 90.7281 19.816C91.2401 19.816 91.7201 19.744 92.1681 19.6C92.6161 19.44 93.0081 19.224 93.3441 18.952C93.6961 18.664 93.9841 18.32 94.2081 17.92H97.0161C96.5041 19.296 95.6881 20.376 94.5681 21.16C93.4481 21.928 92.1681 22.312 90.7281 22.312C88.8241 22.312 87.2321 21.664 85.9521 20.368C84.6881 19.072 84.0561 17.456 84.0561 15.52C84.0561 13.584 84.6881 11.968 85.9521 10.672C87.2321 9.376 88.8241 8.728 90.7281 8.728C92.0241 8.728 93.1761 9.04 94.1841 9.664C95.1921 10.272 95.9681 11.096 96.5121 12.136C97.0561 13.16 97.3281 14.296 97.3281 15.544ZM90.7281 11.128C89.7361 11.128 88.8881 11.408 88.1841 11.968C87.4961 12.528 87.0401 13.296 86.8161 14.272H94.6641C94.5041 13.616 94.2401 13.056 93.8721 12.592C93.5041 12.112 93.0481 11.752 92.5041 11.512C91.9761 11.256 91.3841 11.128 90.7281 11.128ZM110.053 9.04V11.44H105.493V22H102.901V11.44H98.3172V9.04H110.053ZM117.767 12.88C119.191 12.88 120.343 13.304 121.223 14.152C122.103 15 122.543 16.104 122.543 17.464C122.543 18.808 122.103 19.904 121.223 20.752C120.343 21.584 119.191 22 117.767 22H112.391V9.04H115.007V12.88H117.767ZM117.455 19.696C118.175 19.696 118.759 19.496 119.207 19.096C119.655 18.68 119.879 18.136 119.879 17.464C119.879 17.016 119.775 16.624 119.567 16.288C119.375 15.936 119.095 15.664 118.727 15.472C118.359 15.28 117.935 15.184 117.455 15.184H115.007V19.696H117.455ZM130.579 9.04H141.883V22H139.243V11.464H133.243V22H130.579V9.04ZM152.632 8.728C153.912 8.728 155.064 9.024 156.088 9.616C157.112 10.192 157.912 11 158.488 12.04C159.064 13.08 159.352 14.24 159.352 15.52C159.352 17.472 158.712 19.096 157.432 20.392C156.168 21.672 154.568 22.312 152.632 22.312C150.968 22.312 149.536 21.792 148.336 20.752V26.656H145.672V9.04H147.472L147.976 10.624C149.224 9.36 150.776 8.728 152.632 8.728ZM149.392 18.568C150.192 19.368 151.2 19.768 152.416 19.768C153.648 19.768 154.664 19.368 155.464 18.568C156.264 17.752 156.664 16.736 156.664 15.52C156.664 14.304 156.264 13.296 155.464 12.496C154.664 11.68 153.656 11.272 152.44 11.272C151.64 11.272 150.912 11.456 150.256 11.824C149.6 12.192 149.088 12.704 148.72 13.36C148.368 14 148.192 14.72 148.192 15.52C148.192 16.736 148.592 17.752 149.392 18.568ZM173.139 20.392C171.827 21.672 170.179 22.312 168.195 22.312C166.211 22.312 164.555 21.672 163.227 20.392C161.915 19.096 161.259 17.472 161.259 15.52C161.259 14.24 161.555 13.08 162.147 12.04C162.755 11 163.587 10.192 164.643 9.616C165.715 9.024 166.899 8.728 168.195 8.728C169.491 8.728 170.667 9.024 171.723 9.616C172.795 10.192 173.627 11 174.219 12.04C174.827 13.08 175.131 14.24 175.131 15.52C175.131 17.472 174.467 19.096 173.139 20.392ZM168.195 19.768C169.011 19.768 169.739 19.592 170.379 19.24C171.019 18.872 171.515 18.368 171.867 17.728C172.235 17.072 172.419 16.336 172.419 15.52C172.419 14.288 172.019 13.272 171.219 12.472C170.435 11.672 169.427 11.272 168.195 11.272C166.963 11.272 165.947 11.672 165.147 12.472C164.363 13.272 163.971 14.288 163.971 15.52C163.971 16.752 164.363 17.768 165.147 18.568C165.947 19.368 166.963 19.768 168.195 19.768ZM186.249 9.04V11.416H180.585V22H177.969V9.04H186.249ZM195.523 8.728C196.803 8.728 197.955 9.024 198.979 9.616C200.003 10.192 200.803 11 201.379 12.04C201.955 13.08 202.243 14.24 202.243 15.52C202.243 17.472 201.603 19.096 200.323 20.392C199.059 21.672 197.459 22.312 195.523 22.312C193.859 22.312 192.427 21.792 191.227 20.752V26.656H188.563V9.04H190.363L190.867 10.624C192.115 9.36 193.667 8.728 195.523 8.728ZM192.283 18.568C193.083 19.368 194.091 19.768 195.307 19.768C196.539 19.768 197.555 19.368 198.355 18.568C199.155 17.752 199.555 16.736 199.555 15.52C199.555 14.304 199.155 13.296 198.355 12.496C197.555 11.68 196.547 11.272 195.331 11.272C194.531 11.272 193.803 11.456 193.147 11.824C192.491 12.192 191.979 12.704 191.611 13.36C191.259 14 191.083 14.72 191.083 15.52C191.083 16.736 191.483 17.752 192.283 18.568ZM215.958 9.04H218.022V22H215.862L215.598 20.416C214.35 21.68 212.79 22.312 210.918 22.312C208.982 22.312 207.366 21.664 206.07 20.368C204.79 19.072 204.15 17.456 204.15 15.52C204.15 13.568 204.79 11.952 206.07 10.672C207.366 9.376 208.982 8.728 210.918 8.728C212.822 8.728 214.398 9.368 215.646 10.648L215.958 9.04ZM208.062 18.568C208.878 19.368 209.894 19.768 211.11 19.768C212.342 19.768 213.35 19.368 214.134 18.568C214.934 17.752 215.334 16.736 215.334 15.52C215.334 14.288 214.934 13.272 214.134 12.472C213.35 11.672 212.342 11.272 211.11 11.272C210.31 11.272 209.582 11.456 208.926 11.824C208.286 12.192 207.782 12.704 207.414 13.36C207.046 14 206.862 14.72 206.862 15.52C206.862 16.736 207.262 17.752 208.062 18.568ZM238.261 22H235.693L234.133 13.168L229.789 21.856H229.237L224.917 13.168L223.357 22H220.789L223.117 9.04H225.373L229.525 17.32L233.701 9.04H235.933L238.261 22ZM257.456 22H254.888L253.328 13.168L248.984 21.856H248.432L244.112 13.168L242.552 22H239.984L242.312 9.04H244.568L248.72 17.32L252.896 9.04H255.128L257.456 22ZM265.587 12.88C267.011 12.88 268.163 13.304 269.043 14.152C269.923 15 270.363 16.104 270.363 17.464C270.363 18.808 269.923 19.904 269.043 20.752C268.163 21.584 267.011 22 265.587 22H260.211V9.04H262.827V12.88H265.587ZM272.619 9.04H275.283V22H272.619V9.04ZM265.275 19.696C265.995 19.696 266.579 19.496 267.027 19.096C267.475 18.68 267.699 18.136 267.699 17.464C267.699 17.016 267.595 16.624 267.387 16.288C267.195 15.936 266.915 15.664 266.547 15.472C266.179 15.28 265.755 15.184 265.275 15.184H262.827V19.696H265.275Z" fill="white"/>
<path d="M1.94824 34H277.948" stroke="white" stroke-width="2"/>
</svg>
