<svg width="880" height="238" viewBox="0 0 880 238" fill="none" xmlns="http://www.w3.org/2000/svg">
<path d="M88.608 68H77.376L69.504 19.328L47.712 66.944H44.928L23.04 19.328L15.168 68H3.936L14.88 0.799995H25.728L46.272 46.496L66.816 0.799995H77.76L88.608 68ZM141.025 16.16H149.281V68H140.641L139.585 61.664C134.593 66.72 128.353 69.248 120.865 69.248C113.121 69.248 106.657 66.656 101.473 61.472C96.3528 56.288 93.7928 49.824 93.7928 42.08C93.7928 34.272 96.3528 27.808 101.473 22.688C106.657 17.504 113.121 14.912 120.865 14.912C128.481 14.912 134.785 17.472 139.777 22.592L141.025 16.16ZM109.441 54.272C112.705 57.472 116.769 59.072 121.633 59.072C126.561 59.072 130.593 57.472 133.729 54.272C136.929 51.008 138.529 46.944 138.529 42.08C138.529 37.152 136.929 33.088 133.729 29.888C130.593 26.688 126.561 25.088 121.633 25.088C118.433 25.088 115.521 25.824 112.897 27.296C110.337 28.768 108.321 30.816 106.849 33.44C105.377 36 104.641 38.88 104.641 42.08C104.641 46.944 106.241 51.008 109.441 54.272ZM195.677 16.16V25.664H173.021V68H162.557V16.16H195.677ZM241.028 16.16H246.98V68H236.804V35.072L209.156 68H203.012V16.16H213.284V48.8L241.028 16.16ZM283.576 69.248C275.896 69.248 269.432 66.656 264.184 61.472C259 56.224 256.408 49.76 256.408 42.08C256.408 34.336 259 27.872 264.184 22.688C269.432 17.504 275.928 14.912 283.672 14.912C290.008 14.912 295.512 16.704 300.184 20.288C304.856 23.872 307.896 28.64 309.304 34.592H298.744C297.4 31.648 295.384 29.344 292.696 27.68C290.008 25.952 286.968 25.088 283.576 25.088C280.568 25.088 277.816 25.824 275.32 27.296C272.824 28.768 270.84 30.816 269.368 33.44C267.96 36 267.256 38.88 267.256 42.08C267.256 46.88 268.824 50.912 271.96 54.176C275.096 57.44 278.968 59.072 283.576 59.072C286.968 59.072 289.976 58.208 292.6 56.48C295.288 54.752 297.336 52.288 298.744 49.088H309.496C308.024 55.168 304.92 60.064 300.184 63.776C295.512 67.424 289.976 69.248 283.576 69.248ZM358.57 16.16V25.76H340.33V68H329.962V25.76H311.626V16.16H358.57ZM393.842 14.912C398.962 14.912 403.57 16.096 407.666 18.464C411.762 20.768 414.962 24 417.266 28.16C419.57 32.32 420.722 36.96 420.722 42.08C420.722 49.888 418.162 56.384 413.042 61.568C407.986 66.688 401.586 69.248 393.842 69.248C387.186 69.248 381.458 67.168 376.658 63.008V86.624H366.002V16.16H373.202L375.218 22.496C380.21 17.44 386.418 14.912 393.842 14.912ZM380.882 54.272C384.082 57.472 388.114 59.072 392.978 59.072C397.906 59.072 401.97 57.472 405.17 54.272C408.37 51.008 409.97 46.944 409.97 42.08C409.97 37.216 408.37 33.184 405.17 29.984C401.97 26.72 397.938 25.088 393.074 25.088C389.874 25.088 386.962 25.824 384.338 27.296C381.714 28.768 379.666 30.816 378.194 33.44C376.786 36 376.082 38.88 376.082 42.08C376.082 46.944 377.682 51.008 380.882 54.272ZM473.661 16.16H481.917V68H473.277L472.221 61.664C467.229 66.72 460.989 69.248 453.501 69.248C445.757 69.248 439.293 66.656 434.109 61.472C428.989 56.288 426.429 49.824 426.429 42.08C426.429 34.272 428.989 27.808 434.109 22.688C439.293 17.504 445.757 14.912 453.501 14.912C461.117 14.912 467.421 17.472 472.413 22.592L473.661 16.16ZM442.077 54.272C445.341 57.472 449.405 59.072 454.269 59.072C459.197 59.072 463.229 57.472 466.365 54.272C469.565 51.008 471.165 46.944 471.165 42.08C471.165 37.152 469.565 33.088 466.365 29.888C463.229 26.688 459.197 25.088 454.269 25.088C451.069 25.088 448.157 25.824 445.533 27.296C442.973 28.768 440.957 30.816 439.485 33.44C438.013 36 437.277 38.88 437.277 42.08C437.277 46.944 438.877 51.008 442.077 54.272ZM536.185 16.16V25.76H517.945V68H507.577V25.76H489.241V16.16H536.185ZM580.576 16.16H592L568.192 68.96C565.184 75.552 562.112 80.128 558.976 82.688C555.904 85.312 551.776 86.624 546.592 86.624H541.312V77.024H545.728C549.12 77.024 551.616 76.352 553.216 75.008C554.816 73.664 556.576 70.88 558.496 66.656L559.648 64.256L537.088 16.16H548.704L565.12 52.352L580.576 16.16ZM626.443 14.912C631.563 14.912 636.171 16.096 640.267 18.464C644.363 20.768 647.563 24 649.867 28.16C652.171 32.32 653.323 36.96 653.323 42.08C653.323 49.888 650.763 56.384 645.643 61.568C640.587 66.688 634.187 69.248 626.443 69.248C619.787 69.248 614.059 67.168 609.259 63.008V86.624H598.603V16.16H605.803L607.819 22.496C612.811 17.44 619.019 14.912 626.443 14.912ZM613.483 54.272C616.683 57.472 620.715 59.072 625.579 59.072C630.507 59.072 634.571 57.472 637.771 54.272C640.971 51.008 642.571 46.944 642.571 42.08C642.571 37.216 640.971 33.184 637.771 29.984C634.571 26.72 630.539 25.088 625.675 25.088C622.475 25.088 619.563 25.824 616.939 27.296C614.315 28.768 612.267 30.816 610.795 33.44C609.387 36 608.683 38.88 608.683 42.08C608.683 46.944 610.283 51.008 613.483 54.272ZM706.262 16.16H714.518V68H705.878L704.822 61.664C699.83 66.72 693.59 69.248 686.102 69.248C678.358 69.248 671.894 66.656 666.71 61.472C661.59 56.288 659.03 49.824 659.03 42.08C659.03 34.272 661.59 27.808 666.71 22.688C671.894 17.504 678.358 14.912 686.102 14.912C693.718 14.912 700.022 17.472 705.014 22.592L706.262 16.16ZM674.678 54.272C677.942 57.472 682.006 59.072 686.87 59.072C691.798 59.072 695.83 57.472 698.966 54.272C702.166 51.008 703.766 46.944 703.766 42.08C703.766 37.152 702.166 33.088 698.966 29.888C695.83 26.688 691.798 25.088 686.87 25.088C683.67 25.088 680.758 25.824 678.134 27.296C675.574 28.768 673.558 30.816 672.086 33.44C670.614 36 669.878 38.88 669.878 42.08C669.878 46.944 671.478 51.008 674.678 54.272Z" fill="white"/>
<path d="M31.46 167H24.752L15.912 152.804L7.072 167H0.364L12.272 147.916L1.196 130.6H7.904L15.912 143.392L23.868 130.6H30.524L19.552 148.124L31.46 167ZM56.1844 138.92H59.4084V167H53.8964V149.164L38.9204 167H35.5924V138.92H41.1564V156.6L56.1844 138.92ZM103.255 167H97.6913L94.3113 147.864L84.8993 166.688H83.7033L74.3433 147.864L70.9633 167H65.3993L70.4433 138.92H75.3313L84.3273 156.86L93.3753 138.92H98.2113L103.255 167ZM129.817 138.92H133.041V167H127.529V149.164L112.553 167H109.225V138.92H114.789V156.6L129.817 138.92ZM158.948 167L150.524 155.04H147.04V167H141.268V138.92H147.04V149.788H150.576L158.22 138.92H165.032L155.516 152.388L166.072 167H158.948ZM192.807 163.516C189.964 166.289 186.394 167.676 182.095 167.676C177.796 167.676 174.208 166.289 171.331 163.516C168.488 160.708 167.067 157.189 167.067 152.96C167.067 150.187 167.708 147.673 168.991 145.42C170.308 143.167 172.111 141.416 174.399 140.168C176.722 138.885 179.287 138.244 182.095 138.244C184.903 138.244 187.451 138.885 189.739 140.168C192.062 141.416 193.864 143.167 195.147 145.42C196.464 147.673 197.123 150.187 197.123 152.96C197.123 157.189 195.684 160.708 192.807 163.516ZM182.095 162.164C183.863 162.164 185.44 161.783 186.827 161.02C188.214 160.223 189.288 159.131 190.051 157.744C190.848 156.323 191.247 154.728 191.247 152.96C191.247 150.291 190.38 148.089 188.647 146.356C186.948 144.623 184.764 143.756 182.095 143.756C179.426 143.756 177.224 144.623 175.491 146.356C173.792 148.089 172.943 150.291 172.943 152.96C172.943 155.629 173.792 157.831 175.491 159.564C177.224 161.297 179.426 162.164 182.095 162.164ZM202.596 155.248V149.632H219.288V155.248H202.596ZM246.195 138.92V144.12H236.315V167H230.699V144.12H220.767V138.92H246.195ZM277.124 153.012C277.124 153.532 277.089 154.173 277.02 154.936H254.244C254.591 157.189 255.527 158.975 257.052 160.292C258.612 161.609 260.536 162.268 262.824 162.268C263.933 162.268 264.973 162.112 265.944 161.8C266.915 161.453 267.764 160.985 268.492 160.396C269.255 159.772 269.879 159.027 270.364 158.16H276.448C275.339 161.141 273.571 163.481 271.144 165.18C268.717 166.844 265.944 167.676 262.824 167.676C258.699 167.676 255.249 166.272 252.476 163.464C249.737 160.656 248.368 157.155 248.368 152.96C248.368 148.765 249.737 145.264 252.476 142.456C255.249 139.648 258.699 138.244 262.824 138.244C265.632 138.244 268.128 138.92 270.312 140.272C272.496 141.589 274.177 143.375 275.356 145.628C276.535 147.847 277.124 150.308 277.124 153.012ZM262.824 143.444C260.675 143.444 258.837 144.051 257.312 145.264C255.821 146.477 254.833 148.141 254.348 150.256H271.352C271.005 148.835 270.433 147.621 269.636 146.616C268.839 145.576 267.851 144.796 266.672 144.276C265.528 143.721 264.245 143.444 262.824 143.444ZM305.376 167H298.876L291.856 156.288L284.784 167H278.44L288.424 152.492L279.22 138.92H285.668L291.908 148.384L298.304 138.92H304.648L295.288 152.18L305.376 167ZM328.43 138.92H334.098V167H328.43V155.248H315.43V167H309.71V138.92H315.43V149.944H328.43V138.92ZM365.971 163.516C363.128 166.289 359.558 167.676 355.259 167.676C350.96 167.676 347.372 166.289 344.495 163.516C341.652 160.708 340.231 157.189 340.231 152.96C340.231 150.187 340.872 147.673 342.155 145.42C343.472 143.167 345.275 141.416 347.563 140.168C349.886 138.885 352.451 138.244 355.259 138.244C358.067 138.244 360.615 138.885 362.903 140.168C365.226 141.416 367.028 143.167 368.311 145.42C369.628 147.673 370.287 150.187 370.287 152.96C370.287 157.189 368.848 160.708 365.971 163.516ZM355.259 162.164C357.027 162.164 358.604 161.783 359.991 161.02C361.378 160.223 362.452 159.131 363.215 157.744C364.012 156.323 364.411 154.728 364.411 152.96C364.411 150.291 363.544 148.089 361.811 146.356C360.112 144.623 357.928 143.756 355.259 143.756C352.59 143.756 350.388 144.623 348.655 146.356C346.956 148.089 346.107 150.291 346.107 152.96C346.107 155.629 346.956 157.831 348.655 159.564C350.388 161.297 352.59 162.164 355.259 162.164ZM380.716 138.92H399.8V167H394.132V143.912H385.448L384.2 156.34C383.819 160.292 382.796 163.083 381.132 164.712C379.503 166.341 377.024 167.156 373.696 167.156H372.708V161.852H374.06C376.799 161.852 378.341 160.136 378.688 156.704L380.716 138.92ZM431.682 163.516C428.839 166.289 425.269 167.676 420.97 167.676C416.671 167.676 413.083 166.289 410.206 163.516C407.363 160.708 405.942 157.189 405.942 152.96C405.942 150.187 406.583 147.673 407.866 145.42C409.183 143.167 410.986 141.416 413.274 140.168C415.597 138.885 418.162 138.244 420.97 138.244C423.778 138.244 426.326 138.885 428.614 140.168C430.937 141.416 432.739 143.167 434.022 145.42C435.339 147.673 435.998 150.187 435.998 152.96C435.998 157.189 434.559 160.708 431.682 163.516ZM420.97 162.164C422.738 162.164 424.315 161.783 425.702 161.02C427.089 160.223 428.163 159.131 428.926 157.744C429.723 156.323 430.122 154.728 430.122 152.96C430.122 150.291 429.255 148.089 427.522 146.356C425.823 144.623 423.639 143.756 420.97 143.756C418.301 143.756 416.099 144.623 414.366 146.356C412.667 148.089 411.818 150.291 411.818 152.96C411.818 155.629 412.667 157.831 414.366 159.564C416.099 161.297 418.301 162.164 420.97 162.164ZM460.087 138.92V144.068H447.815V167H442.147V138.92H460.087ZM485.692 138.92H488.916V167H483.404V149.164L468.428 167H465.1V138.92H470.664V156.6L485.692 138.92ZM512.431 138.92H518.047V167H512.431V156.964C510.524 157.657 508.514 158.004 506.399 158.004C502.967 158.004 500.211 156.999 498.131 154.988C496.051 152.977 495.011 150.204 495.011 146.668V138.92H500.679V146.46C500.679 148.471 501.199 150.013 502.239 151.088C503.314 152.163 504.856 152.7 506.867 152.7C508.878 152.7 510.732 152.249 512.431 151.348V138.92ZM552.917 153.012C552.917 153.532 552.882 154.173 552.813 154.936H530.037C530.383 157.189 531.319 158.975 532.845 160.292C534.405 161.609 536.329 162.268 538.617 162.268C539.726 162.268 540.766 162.112 541.737 161.8C542.707 161.453 543.557 160.985 544.285 160.396C545.047 159.772 545.671 159.027 546.157 158.16H552.241C551.131 161.141 549.363 163.481 546.937 165.18C544.51 166.844 541.737 167.676 538.617 167.676C534.491 167.676 531.042 166.272 528.269 163.464C525.53 160.656 524.161 157.155 524.161 152.96C524.161 148.765 525.53 145.264 528.269 142.456C531.042 139.648 534.491 138.244 538.617 138.244C541.425 138.244 543.921 138.92 546.105 140.272C548.289 141.589 549.97 143.375 551.149 145.628C552.327 147.847 552.917 150.308 552.917 153.012ZM538.617 143.444C536.467 143.444 534.63 144.051 533.105 145.264C531.614 146.477 530.626 148.141 530.141 150.256H547.145C546.798 148.835 546.226 147.621 545.429 146.616C544.631 145.576 543.643 144.796 542.465 144.276C541.321 143.721 540.038 143.444 538.617 143.444ZM571.682 167.676C567.522 167.676 564.02 166.272 561.178 163.464C558.37 160.621 556.966 157.12 556.966 152.96C556.966 148.765 558.37 145.264 561.178 142.456C564.02 139.648 567.539 138.244 571.734 138.244C575.166 138.244 578.147 139.215 580.678 141.156C583.208 143.097 584.855 145.68 585.618 148.904H579.898C579.17 147.309 578.078 146.061 576.622 145.16C575.166 144.224 573.519 143.756 571.682 143.756C570.052 143.756 568.562 144.155 567.21 144.952C565.858 145.749 564.783 146.859 563.986 148.28C563.223 149.667 562.842 151.227 562.842 152.96C562.842 155.56 563.691 157.744 565.39 159.512C567.088 161.28 569.186 162.164 571.682 162.164C573.519 162.164 575.148 161.696 576.57 160.76C578.026 159.824 579.135 158.489 579.898 156.756H585.722C584.924 160.049 583.243 162.701 580.678 164.712C578.147 166.688 575.148 167.676 571.682 167.676ZM609.073 167L600.649 155.04H597.165V167H591.393V138.92H597.165V149.788H600.701L608.345 138.92H615.157L605.641 152.388L616.197 167H609.073ZM640.778 138.92H644.002V167H638.49V149.164L623.514 167H620.186V138.92H625.75V156.6L640.778 138.92ZM671.313 129.664V133.98H657.377V129.664H671.313ZM672.821 138.92H676.045V167H670.533V149.164L655.557 167H652.229V138.92H657.793V156.6L672.821 138.92ZM24.7 195.92H27.924V224H22.412V206.164L7.436 224H4.108V195.92H9.672V213.6L24.7 195.92ZM54.871 195.92H60.539V224H54.871V212.248H41.871V224H36.151V195.92H41.871V206.944H54.871V195.92ZM81.3885 224.676C77.2285 224.676 73.7272 223.272 70.8845 220.464C68.0765 217.621 66.6725 214.12 66.6725 209.96C66.6725 205.765 68.0765 202.264 70.8845 199.456C73.7272 196.648 77.2459 195.244 81.4405 195.244C84.8725 195.244 87.8539 196.215 90.3845 198.156C92.9152 200.097 94.5619 202.68 95.3245 205.904H89.6045C88.8765 204.309 87.7845 203.061 86.3285 202.16C84.8725 201.224 83.2259 200.756 81.3885 200.756C79.7592 200.756 78.2685 201.155 76.9165 201.952C75.5645 202.749 74.4899 203.859 73.6925 205.28C72.9299 206.667 72.5485 208.227 72.5485 209.96C72.5485 212.56 73.3979 214.744 75.0965 216.512C76.7952 218.28 78.8925 219.164 81.3885 219.164C83.2259 219.164 84.8552 218.696 86.2765 217.76C87.7325 216.824 88.8419 215.489 89.6045 213.756H95.4285C94.6312 217.049 92.9499 219.701 90.3845 221.712C87.8539 223.688 84.8552 224.676 81.3885 224.676ZM123.05 195.92V201.12H113.17V224H107.554V201.12H97.6223V195.92H123.05ZM148.708 195.92H151.932V224H146.42V206.164L131.444 224H128.116V195.92H133.68V213.6L148.708 195.92ZM182.363 195.92V201.12H172.483V224H166.867V201.12H156.935V195.92H182.363ZM207.448 195.92H213.636L200.74 224.52C199.111 228.091 197.447 230.569 195.748 231.956C194.084 233.377 191.848 234.088 189.04 234.088H186.18V228.888H188.572C190.41 228.888 191.762 228.524 192.628 227.796C193.495 227.068 194.448 225.56 195.488 223.272L196.112 221.972L183.892 195.92H190.184L199.076 215.524L207.448 195.92ZM240.457 195.92V201.12H230.577V224H224.961V201.12H215.029V195.92H240.457ZM278.521 187.6H284.865L273.997 212.508C272.09 216.98 270.114 220.031 268.069 221.66C266.058 223.289 263.25 224.104 259.645 224.104H258.085V218.54H260.217C262.054 218.54 263.458 218.211 264.429 217.552C265.399 216.859 266.387 215.507 267.393 213.496L253.613 187.6H260.425L270.461 206.58L278.521 187.6ZM302.293 195.244C305.067 195.244 307.563 195.885 309.781 197.168C312 198.416 313.733 200.167 314.981 202.42C316.229 204.673 316.853 207.187 316.853 209.96C316.853 214.189 315.467 217.708 312.693 220.516C309.955 223.289 306.488 224.676 302.293 224.676C298.688 224.676 295.585 223.549 292.985 221.296V234.088H287.213V195.92H291.113L292.205 199.352C294.909 196.613 298.272 195.244 302.293 195.244ZM295.273 216.564C297.007 218.297 299.191 219.164 301.825 219.164C304.495 219.164 306.696 218.297 308.429 216.564C310.163 214.796 311.029 212.595 311.029 209.96C311.029 207.325 310.163 205.141 308.429 203.408C306.696 201.64 304.512 200.756 301.877 200.756C300.144 200.756 298.567 201.155 297.145 201.952C295.724 202.749 294.615 203.859 293.817 205.28C293.055 206.667 292.673 208.227 292.673 209.96C292.673 212.595 293.54 214.796 295.273 216.564ZM362.429 205.748C362.429 208.14 362.03 210.428 361.233 212.612C360.47 214.796 359.344 216.755 357.853 218.488C356.397 220.221 354.542 221.643 352.289 222.752C350.036 223.827 347.54 224.451 344.801 224.624V230.188H338.977V224.624C336.238 224.451 333.742 223.827 331.489 222.752C329.236 221.643 327.364 220.239 325.873 218.54C324.417 216.807 323.29 214.848 322.493 212.664C321.696 210.48 321.297 208.209 321.297 205.852C321.297 203.945 321.54 202.108 322.025 200.34C322.51 198.537 323.256 196.873 324.261 195.348C325.266 193.788 326.462 192.419 327.849 191.24C329.27 190.027 330.917 189.056 332.789 188.328C334.696 187.565 336.758 187.115 338.977 186.976V182.088H344.801V186.976C347.54 187.149 350.036 187.773 352.289 188.848C354.542 189.923 356.397 191.327 357.853 193.06C359.344 194.759 360.47 196.7 361.233 198.884C362.03 201.068 362.429 203.356 362.429 205.748ZM344.749 218.956C348.285 218.644 351.11 217.24 353.225 214.744C355.34 212.213 356.397 209.232 356.397 205.8C356.397 202.403 355.34 199.456 353.225 196.96C351.11 194.429 348.285 193.008 344.749 192.696V218.956ZM327.381 205.8C327.381 209.197 328.421 212.161 330.501 214.692C332.616 217.223 335.441 218.644 338.977 218.956V192.696C335.476 193.008 332.668 194.429 330.553 196.96C328.438 199.456 327.381 202.403 327.381 205.8ZM388.919 187.6H395.263L384.395 212.508C382.488 216.98 380.512 220.031 378.467 221.66C376.456 223.289 373.648 224.104 370.043 224.104H368.483V218.54H370.615C372.452 218.54 373.856 218.211 374.827 217.552C375.798 216.859 376.786 215.507 377.791 213.496L364.011 187.6H370.823L380.859 206.58L388.919 187.6Z" fill="white"/>
</svg>
