<svg width="368" height="163" viewBox="0 0 368 163" fill="none" xmlns="http://www.w3.org/2000/svg">
<path d="M69.874 10.43C70.426 10.706 70.858 11.114 71.17 11.654C71.494 12.182 71.656 12.788 71.656 13.472C71.656 14.456 71.278 15.29 70.522 15.974C69.778 16.658 68.866 17 67.786 17H62.602V4.4H67.678C68.734 4.4 69.604 4.712 70.288 5.336C70.984 5.948 71.332 6.716 71.332 7.64C71.332 8.192 71.2 8.726 70.936 9.242C70.672 9.746 70.318 10.142 69.874 10.43ZM69.28 7.946C69.28 7.466 69.112 7.076 68.776 6.776C68.452 6.464 68.044 6.308 67.552 6.308H64.636V9.584H67.552C68.056 9.584 68.47 9.428 68.794 9.116C69.118 8.804 69.28 8.414 69.28 7.946ZM67.66 15.02C68.212 15.02 68.662 14.852 69.01 14.516C69.37 14.18 69.55 13.754 69.55 13.238C69.55 12.722 69.37 12.296 69.01 11.96C68.662 11.624 68.212 11.456 67.66 11.456H64.636V15.02H67.66ZM77.9677 10.16C79.0357 10.16 79.8997 10.478 80.5597 11.114C81.2197 11.75 81.5497 12.578 81.5497 13.598C81.5497 14.606 81.2197 15.428 80.5597 16.064C79.8997 16.688 79.0357 17 77.9677 17H73.9357V7.28H75.8977V10.16H77.9677ZM83.2417 7.28H85.2397V17H83.2417V7.28ZM77.7337 15.272C78.2737 15.272 78.7117 15.122 79.0477 14.822C79.3837 14.51 79.5517 14.102 79.5517 13.598C79.5517 13.262 79.4737 12.968 79.3177 12.716C79.1737 12.452 78.9637 12.248 78.6877 12.104C78.4117 11.96 78.0937 11.888 77.7337 11.888H75.8977V15.272H77.7337ZM93.0361 7.748C94.4401 7.748 95.5801 8.18 96.4561 9.044C97.3441 9.908 97.7881 11.03 97.7881 12.41C97.7881 13.838 97.3201 15.002 96.3841 15.902C95.4601 16.79 94.2481 17.234 92.7481 17.234C91.1641 17.234 89.9161 16.742 89.0041 15.758C88.1041 14.762 87.6541 13.4 87.6541 11.672C87.6541 9.308 88.1041 7.514 89.0041 6.29C89.9161 5.054 91.4341 4.178 93.5581 3.662L96.6001 2.924V4.904L93.5941 5.624C91.5181 6.116 90.2881 7.202 89.9041 8.882C90.7441 8.126 91.7881 7.748 93.0361 7.748ZM92.7481 15.344C93.6121 15.344 94.3261 15.068 94.8901 14.516C95.4661 13.952 95.7541 13.25 95.7541 12.41C95.7541 11.846 95.6221 11.342 95.3581 10.898C95.0941 10.442 94.7341 10.088 94.2781 9.836C93.8221 9.572 93.3121 9.44 92.7481 9.44C92.1841 9.44 91.6681 9.572 91.2001 9.836C90.7441 10.088 90.3841 10.442 90.1201 10.898C89.8681 11.342 89.7421 11.846 89.7421 12.41C89.7421 13.25 90.0241 13.952 90.5881 14.516C91.1641 15.068 91.8841 15.344 92.7481 15.344ZM109.168 12.158C109.168 12.338 109.156 12.56 109.132 12.824H101.248C101.368 13.604 101.692 14.222 102.22 14.678C102.76 15.134 103.426 15.362 104.218 15.362C104.602 15.362 104.962 15.308 105.298 15.2C105.634 15.08 105.928 14.918 106.18 14.714C106.444 14.498 106.66 14.24 106.828 13.94H108.934C108.55 14.972 107.938 15.782 107.098 16.37C106.258 16.946 105.298 17.234 104.218 17.234C102.79 17.234 101.596 16.748 100.636 15.776C99.6877 14.804 99.2137 13.592 99.2137 12.14C99.2137 10.688 99.6877 9.476 100.636 8.504C101.596 7.532 102.79 7.046 104.218 7.046C105.19 7.046 106.054 7.28 106.81 7.748C107.566 8.204 108.148 8.822 108.556 9.602C108.964 10.37 109.168 11.222 109.168 12.158ZM104.218 8.846C103.474 8.846 102.838 9.056 102.31 9.476C101.794 9.896 101.452 10.472 101.284 11.204H107.17C107.05 10.712 106.852 10.292 106.576 9.944C106.3 9.584 105.958 9.314 105.55 9.134C105.154 8.942 104.71 8.846 104.218 8.846ZM116.509 7.046C117.469 7.046 118.333 7.268 119.101 7.712C119.869 8.144 120.469 8.75 120.901 9.53C121.333 10.31 121.549 11.18 121.549 12.14C121.549 13.604 121.069 14.822 120.109 15.794C119.161 16.754 117.961 17.234 116.509 17.234C115.261 17.234 114.187 16.844 113.287 16.064V20.492H111.289V7.28H112.639L113.017 8.468C113.953 7.52 115.117 7.046 116.509 7.046ZM114.079 14.426C114.679 15.026 115.435 15.326 116.347 15.326C117.271 15.326 118.033 15.026 118.633 14.426C119.233 13.814 119.533 13.052 119.533 12.14C119.533 11.228 119.233 10.472 118.633 9.872C118.033 9.26 117.277 8.954 116.365 8.954C115.765 8.954 115.219 9.092 114.727 9.368C114.235 9.644 113.851 10.028 113.575 10.52C113.311 11 113.179 11.54 113.179 12.14C113.179 13.052 113.479 13.814 114.079 14.426ZM130.827 7.28H131.943V17H130.035V10.826L124.851 17H123.699V7.28H125.625V13.4L130.827 7.28ZM142.477 7.28V9.08H139.057V17H137.113V9.08H133.675V7.28H142.477ZM153.183 12.158C153.183 12.338 153.171 12.56 153.147 12.824H145.263C145.383 13.604 145.707 14.222 146.235 14.678C146.775 15.134 147.441 15.362 148.233 15.362C148.617 15.362 148.977 15.308 149.313 15.2C149.649 15.08 149.943 14.918 150.195 14.714C150.459 14.498 150.675 14.24 150.843 13.94H152.949C152.565 14.972 151.953 15.782 151.113 16.37C150.273 16.946 149.313 17.234 148.233 17.234C146.805 17.234 145.611 16.748 144.651 15.776C143.703 14.804 143.229 13.592 143.229 12.14C143.229 10.688 143.703 9.476 144.651 8.504C145.611 7.532 146.805 7.046 148.233 7.046C149.205 7.046 150.069 7.28 150.825 7.748C151.581 8.204 152.163 8.822 152.571 9.602C152.979 10.37 153.183 11.222 153.183 12.158ZM148.233 8.846C147.489 8.846 146.853 9.056 146.325 9.476C145.809 9.896 145.467 10.472 145.299 11.204H151.185C151.065 10.712 150.867 10.292 150.591 9.944C150.315 9.584 149.973 9.314 149.565 9.134C149.169 8.942 148.725 8.846 148.233 8.846ZM168.03 15.794C167.046 16.754 165.81 17.234 164.322 17.234C162.834 17.234 161.592 16.754 160.596 15.794C159.612 14.822 159.12 13.604 159.12 12.14C159.12 11.18 159.342 10.31 159.786 9.53C160.242 8.75 160.866 8.144 161.658 7.712C162.462 7.268 163.35 7.046 164.322 7.046C165.294 7.046 166.176 7.268 166.968 7.712C167.772 8.144 168.396 8.75 168.84 9.53C169.296 10.31 169.524 11.18 169.524 12.14C169.524 13.604 169.026 14.822 168.03 15.794ZM164.322 15.326C164.934 15.326 165.48 15.194 165.96 14.93C166.44 14.654 166.812 14.276 167.076 13.796C167.352 13.304 167.49 12.752 167.49 12.14C167.49 11.216 167.19 10.454 166.59 9.854C166.002 9.254 165.246 8.954 164.322 8.954C163.398 8.954 162.636 9.254 162.036 9.854C161.448 10.454 161.154 11.216 161.154 12.14C161.154 13.064 161.448 13.826 162.036 14.426C162.636 15.026 163.398 15.326 164.322 15.326ZM176.602 7.748C178.006 7.748 179.146 8.18 180.022 9.044C180.91 9.908 181.354 11.03 181.354 12.41C181.354 13.838 180.886 15.002 179.95 15.902C179.026 16.79 177.814 17.234 176.314 17.234C174.73 17.234 173.482 16.742 172.57 15.758C171.67 14.762 171.22 13.4 171.22 11.672C171.22 9.308 171.67 7.514 172.57 6.29C173.482 5.054 175 4.178 177.124 3.662L180.166 2.924V4.904L177.16 5.624C175.084 6.116 173.854 7.202 173.47 8.882C174.31 8.126 175.354 7.748 176.602 7.748ZM176.314 15.344C177.178 15.344 177.892 15.068 178.456 14.516C179.032 13.952 179.32 13.25 179.32 12.41C179.32 11.846 179.188 11.342 178.924 10.898C178.66 10.442 178.3 10.088 177.844 9.836C177.388 9.572 176.878 9.44 176.314 9.44C175.75 9.44 175.234 9.572 174.766 9.836C174.31 10.088 173.95 10.442 173.686 10.898C173.434 11.342 173.308 11.846 173.308 12.41C173.308 13.25 173.59 13.952 174.154 14.516C174.73 15.068 175.45 15.344 176.314 15.344ZM188.72 7.046C189.68 7.046 190.544 7.268 191.312 7.712C192.08 8.144 192.68 8.75 193.112 9.53C193.544 10.31 193.76 11.18 193.76 12.14C193.76 13.604 193.28 14.822 192.32 15.794C191.372 16.754 190.172 17.234 188.72 17.234C187.472 17.234 186.398 16.844 185.498 16.064V20.492H183.5V7.28H184.85L185.228 8.468C186.164 7.52 187.328 7.046 188.72 7.046ZM186.29 14.426C186.89 15.026 187.646 15.326 188.558 15.326C189.482 15.326 190.244 15.026 190.844 14.426C191.444 13.814 191.744 13.052 191.744 12.14C191.744 11.228 191.444 10.472 190.844 9.872C190.244 9.26 189.488 8.954 188.576 8.954C187.976 8.954 187.43 9.092 186.938 9.368C186.446 9.644 186.062 10.028 185.786 10.52C185.522 11 185.39 11.54 185.39 12.14C185.39 13.052 185.69 13.814 186.29 14.426ZM204.046 7.28H205.594V17H203.974L203.776 15.812C202.84 16.76 201.67 17.234 200.266 17.234C198.814 17.234 197.602 16.748 196.63 15.776C195.67 14.804 195.19 13.592 195.19 12.14C195.19 10.676 195.67 9.464 196.63 8.504C197.602 7.532 198.814 7.046 200.266 7.046C201.694 7.046 202.876 7.526 203.812 8.486L204.046 7.28ZM198.124 14.426C198.736 15.026 199.498 15.326 200.41 15.326C201.334 15.326 202.09 15.026 202.678 14.426C203.278 13.814 203.578 13.052 203.578 12.14C203.578 11.216 203.278 10.454 202.678 9.854C202.09 9.254 201.334 8.954 200.41 8.954C199.81 8.954 199.264 9.092 198.772 9.368C198.292 9.644 197.914 10.028 197.638 10.52C197.362 11 197.224 11.54 197.224 12.14C197.224 13.052 197.524 13.814 198.124 14.426ZM213.879 11.834C214.731 12.338 215.157 13.124 215.157 14.192C215.157 15.092 214.797 15.824 214.077 16.388C213.357 16.952 212.433 17.234 211.305 17.234C210.213 17.234 209.319 16.952 208.623 16.388C207.939 15.812 207.567 15.044 207.507 14.084H209.325C209.397 14.504 209.607 14.834 209.955 15.074C210.303 15.314 210.753 15.434 211.305 15.434C211.869 15.434 212.325 15.308 212.673 15.056C213.021 14.792 213.195 14.456 213.195 14.048C213.195 13.652 213.039 13.328 212.727 13.076C212.427 12.824 212.025 12.698 211.521 12.698H210.261V11.15H211.521C211.977 11.15 212.337 11.048 212.601 10.844C212.865 10.628 212.997 10.34 212.997 9.98C212.997 9.596 212.841 9.29 212.529 9.062C212.217 8.834 211.803 8.72 211.287 8.72C210.819 8.72 210.429 8.828 210.117 9.044C209.817 9.26 209.637 9.56 209.577 9.944H207.759C207.807 9.08 208.161 8.384 208.821 7.856C209.493 7.316 210.333 7.046 211.341 7.046C212.373 7.046 213.219 7.31 213.879 7.838C214.551 8.366 214.887 9.032 214.887 9.836C214.887 10.7 214.551 11.366 213.879 11.834ZM225.528 15.794C224.544 16.754 223.308 17.234 221.82 17.234C220.332 17.234 219.09 16.754 218.094 15.794C217.11 14.822 216.618 13.604 216.618 12.14C216.618 11.18 216.84 10.31 217.284 9.53C217.74 8.75 218.364 8.144 219.156 7.712C219.96 7.268 220.848 7.046 221.82 7.046C222.792 7.046 223.674 7.268 224.466 7.712C225.27 8.144 225.894 8.75 226.338 9.53C226.794 10.31 227.022 11.18 227.022 12.14C227.022 13.604 226.524 14.822 225.528 15.794ZM221.82 15.326C222.432 15.326 222.978 15.194 223.458 14.93C223.938 14.654 224.31 14.276 224.574 13.796C224.85 13.304 224.988 12.752 224.988 12.14C224.988 11.216 224.688 10.454 224.088 9.854C223.5 9.254 222.744 8.954 221.82 8.954C220.896 8.954 220.134 9.254 219.534 9.854C218.946 10.454 218.652 11.216 218.652 12.14C218.652 13.064 218.946 13.826 219.534 14.426C220.134 15.026 220.896 15.326 221.82 15.326ZM235.739 11.924C235.967 12.02 236.171 12.146 236.351 12.302C236.543 12.446 236.705 12.62 236.837 12.824C236.969 13.016 237.071 13.232 237.143 13.472C237.215 13.712 237.251 13.958 237.251 14.21C237.251 15.002 236.963 15.668 236.387 16.208C235.811 16.736 235.091 17 234.227 17H229.151V7.28H234.155C234.971 7.28 235.637 7.514 236.153 7.982C236.681 8.438 236.945 9.032 236.945 9.764C236.945 10.22 236.837 10.64 236.621 11.024C236.405 11.408 236.111 11.708 235.739 11.924ZM234.965 10.088C234.965 9.752 234.851 9.482 234.623 9.278C234.407 9.074 234.119 8.972 233.759 8.972H231.113V11.204H233.759C234.119 11.204 234.407 11.102 234.623 10.898C234.851 10.694 234.965 10.424 234.965 10.088ZM233.867 15.254C234.263 15.254 234.581 15.14 234.821 14.912C235.073 14.684 235.199 14.396 235.199 14.048C235.199 13.688 235.073 13.394 234.821 13.166C234.569 12.938 234.245 12.824 233.849 12.824H231.113V15.254H233.867ZM247.64 7.28H249.188V17H247.568L247.37 15.812C246.434 16.76 245.264 17.234 243.86 17.234C242.408 17.234 241.196 16.748 240.224 15.776C239.264 14.804 238.784 13.592 238.784 12.14C238.784 10.676 239.264 9.464 240.224 8.504C241.196 7.532 242.408 7.046 243.86 7.046C245.288 7.046 246.47 7.526 247.406 8.486L247.64 7.28ZM241.718 14.426C242.33 15.026 243.092 15.326 244.004 15.326C244.928 15.326 245.684 15.026 246.272 14.426C246.872 13.814 247.172 13.052 247.172 12.14C247.172 11.216 246.872 10.454 246.272 9.854C245.684 9.254 244.928 8.954 244.004 8.954C243.404 8.954 242.858 9.092 242.366 9.368C241.886 9.644 241.508 10.028 241.232 10.52C240.956 11 240.818 11.54 240.818 12.14C240.818 13.052 241.118 13.814 241.718 14.426ZM259.723 7.28V9.08H256.303V17H254.359V9.08H250.921V7.28H259.723ZM270.429 12.158C270.429 12.338 270.417 12.56 270.393 12.824H262.509C262.629 13.604 262.953 14.222 263.481 14.678C264.021 15.134 264.687 15.362 265.479 15.362C265.863 15.362 266.223 15.308 266.559 15.2C266.895 15.08 267.189 14.918 267.441 14.714C267.705 14.498 267.921 14.24 268.089 13.94H270.195C269.811 14.972 269.199 15.782 268.359 16.37C267.519 16.946 266.559 17.234 265.479 17.234C264.051 17.234 262.857 16.748 261.897 15.776C260.949 14.804 260.475 13.592 260.475 12.14C260.475 10.688 260.949 9.476 261.897 8.504C262.857 7.532 264.051 7.046 265.479 7.046C266.451 7.046 267.315 7.28 268.071 7.748C268.827 8.204 269.409 8.822 269.817 9.602C270.225 10.37 270.429 11.222 270.429 12.158ZM265.479 8.846C264.735 8.846 264.099 9.056 263.571 9.476C263.055 9.896 262.713 10.472 262.545 11.204H268.431C268.311 10.712 268.113 10.292 267.837 9.944C267.561 9.584 267.219 9.314 266.811 9.134C266.415 8.942 265.971 8.846 265.479 8.846ZM274.068 7.28H280.674V17H278.712V9.008H275.706L275.274 13.31C275.142 14.678 274.788 15.644 274.212 16.208C273.648 16.772 272.79 17.054 271.638 17.054H271.296V15.218H271.764C272.712 15.218 273.246 14.624 273.366 13.436L274.068 7.28ZM287.552 10.16C288.62 10.16 289.484 10.478 290.144 11.114C290.804 11.75 291.134 12.578 291.134 13.598C291.134 14.606 290.804 15.428 290.144 16.064C289.484 16.688 288.62 17 287.552 17H283.52V7.28H285.482V10.16H287.552ZM287.318 15.272C287.858 15.272 288.296 15.122 288.632 14.822C288.968 14.51 289.136 14.102 289.136 13.598C289.136 13.262 289.058 12.968 288.902 12.716C288.758 12.452 288.548 12.248 288.272 12.104C287.996 11.96 287.678 11.888 287.318 11.888H285.482V15.272H287.318ZM299.527 7.28H301.489V17H299.527V12.932H295.027V17H293.047V7.28H295.027V11.096H299.527V7.28ZM311.262 7.28H313.404L308.94 17.18C308.376 18.416 307.8 19.274 307.212 19.754C306.636 20.246 305.862 20.492 304.89 20.492H303.9V18.692H304.728C305.364 18.692 305.832 18.566 306.132 18.314C306.432 18.062 306.762 17.54 307.122 16.748L307.338 16.298L303.108 7.28H305.286L308.364 14.066L311.262 7.28ZM323.372 7.046C324.824 7.046 326.024 7.532 326.972 8.504C327.932 9.464 328.412 10.682 328.412 12.158C328.412 13.622 327.938 14.834 326.99 15.794C326.042 16.754 324.836 17.234 323.372 17.234C322.52 17.234 321.74 17.06 321.032 16.712C320.324 16.364 319.748 15.878 319.304 15.254C318.86 14.618 318.572 13.892 318.44 13.076H316.982V17.018H315.002V7.28H316.982V11.204H318.44C318.644 9.968 319.196 8.966 320.096 8.198C321.008 7.43 322.1 7.046 323.372 7.046ZM321.212 14.426C321.788 15.026 322.508 15.326 323.372 15.326C324.236 15.326 324.956 15.026 325.532 14.426C326.108 13.826 326.396 13.07 326.396 12.158C326.396 11.234 326.108 10.472 325.532 9.872C324.956 9.26 324.236 8.954 323.372 8.954C322.508 8.954 321.788 9.26 321.212 9.872C320.636 10.472 320.348 11.234 320.348 12.158C320.348 13.07 320.636 13.826 321.212 14.426ZM62.422 29.28H70.9V39H68.92V31.098H64.42V39H62.422V29.28ZM78.9623 29.046C79.9223 29.046 80.7863 29.268 81.5543 29.712C82.3223 30.144 82.9223 30.75 83.3543 31.53C83.7863 32.31 84.0023 33.18 84.0023 34.14C84.0023 35.604 83.5223 36.822 82.5623 37.794C81.6143 38.754 80.4143 39.234 78.9623 39.234C77.7143 39.234 76.6403 38.844 75.7403 38.064V42.492H73.7423V29.28H75.0923L75.4703 30.468C76.4063 29.52 77.5703 29.046 78.9623 29.046ZM76.5323 36.426C77.1323 37.026 77.8883 37.326 78.8003 37.326C79.7243 37.326 80.4863 37.026 81.0863 36.426C81.6863 35.814 81.9863 35.052 81.9863 34.14C81.9863 33.228 81.6863 32.472 81.0863 31.872C80.4863 31.26 79.7303 30.954 78.8183 30.954C78.2183 30.954 77.6723 31.092 77.1803 31.368C76.6883 31.644 76.3043 32.028 76.0283 32.52C75.7643 33 75.6323 33.54 75.6323 34.14C75.6323 35.052 75.9323 35.814 76.5323 36.426ZM94.3425 37.794C93.3585 38.754 92.1225 39.234 90.6345 39.234C89.1465 39.234 87.9045 38.754 86.9085 37.794C85.9245 36.822 85.4325 35.604 85.4325 34.14C85.4325 33.18 85.6545 32.31 86.0985 31.53C86.5545 30.75 87.1785 30.144 87.9705 29.712C88.7745 29.268 89.6625 29.046 90.6345 29.046C91.6065 29.046 92.4885 29.268 93.2805 29.712C94.0845 30.144 94.7085 30.75 95.1525 31.53C95.6085 32.31 95.8365 33.18 95.8365 34.14C95.8365 35.604 95.3385 36.822 94.3425 37.794ZM90.6345 37.326C91.2465 37.326 91.7925 37.194 92.2725 36.93C92.7525 36.654 93.1245 36.276 93.3885 35.796C93.6645 35.304 93.8025 34.752 93.8025 34.14C93.8025 33.216 93.5025 32.454 92.9025 31.854C92.3145 31.254 91.5585 30.954 90.6345 30.954C89.7105 30.954 88.9485 31.254 88.3485 31.854C87.7605 32.454 87.4665 33.216 87.4665 34.14C87.4665 35.064 87.7605 35.826 88.3485 36.426C88.9485 37.026 89.7105 37.326 90.6345 37.326ZM104.175 29.28V31.062H99.927V39H97.965V29.28H104.175ZM111.13 29.046C112.09 29.046 112.954 29.268 113.722 29.712C114.49 30.144 115.09 30.75 115.522 31.53C115.954 32.31 116.17 33.18 116.17 34.14C116.17 35.604 115.69 36.822 114.73 37.794C113.782 38.754 112.582 39.234 111.13 39.234C109.882 39.234 108.808 38.844 107.908 38.064V42.492H105.91V29.28H107.26L107.638 30.468C108.574 29.52 109.738 29.046 111.13 29.046ZM108.7 36.426C109.3 37.026 110.056 37.326 110.968 37.326C111.892 37.326 112.654 37.026 113.254 36.426C113.854 35.814 114.154 35.052 114.154 34.14C114.154 33.228 113.854 32.472 113.254 31.872C112.654 31.26 111.898 30.954 110.986 30.954C110.386 30.954 109.84 31.092 109.348 31.368C108.856 31.644 108.472 32.028 108.196 32.52C107.932 33 107.8 33.54 107.8 34.14C107.8 35.052 108.1 35.814 108.7 36.426ZM126.456 29.28H128.004V39H126.384L126.186 37.812C125.25 38.76 124.08 39.234 122.676 39.234C121.224 39.234 120.012 38.748 119.04 37.776C118.08 36.804 117.6 35.592 117.6 34.14C117.6 32.676 118.08 31.464 119.04 30.504C120.012 29.532 121.224 29.046 122.676 29.046C124.104 29.046 125.286 29.526 126.222 30.486L126.456 29.28ZM120.534 36.426C121.146 37.026 121.908 37.326 122.82 37.326C123.744 37.326 124.5 37.026 125.088 36.426C125.688 35.814 125.988 35.052 125.988 34.14C125.988 33.216 125.688 32.454 125.088 31.854C124.5 31.254 123.744 30.954 122.82 30.954C122.22 30.954 121.674 31.092 121.182 31.368C120.702 31.644 120.324 32.028 120.048 32.52C119.772 33 119.634 33.54 119.634 34.14C119.634 35.052 119.934 35.814 120.534 36.426ZM143.184 39H141.258L140.088 32.376L136.83 38.892H136.416L133.176 32.376L132.006 39H130.08L131.826 29.28H133.518L136.632 35.49L139.764 29.28H141.438L143.184 39ZM157.58 39H155.654L154.484 32.376L151.226 38.892H150.812L147.572 32.376L146.402 39H144.476L146.222 29.28H147.914L151.028 35.49L154.16 29.28H155.834L157.58 39ZM166.067 29.28H168.209L163.745 39.18C163.181 40.416 162.605 41.274 162.017 41.754C161.441 42.246 160.667 42.492 159.695 42.492H158.705V40.692H159.533C160.169 40.692 160.637 40.566 160.937 40.314C161.237 40.062 161.567 39.54 161.927 38.748L162.143 38.298L157.913 29.28H160.091L163.169 36.066L166.067 29.28Z" fill="#1E4391"/>
<path d="M68.368 84L64.432 78.864H62.928V84H61.536V72.8H62.928V77.552H64.416L68 72.8H69.792L65.696 78.192L70.16 84H68.368ZM78.2516 75.36H79.3396V84H78.2036L78.0596 82.688C77.6543 83.168 77.1583 83.5413 76.5716 83.808C75.9956 84.064 75.361 84.192 74.6676 84.192C73.3983 84.192 72.337 83.7653 71.4836 82.912C70.6303 82.048 70.2036 80.9707 70.2036 79.68C70.2036 78.3893 70.6303 77.3173 71.4836 76.464C72.337 75.6 73.3983 75.168 74.6676 75.168C75.3716 75.168 76.0116 75.3013 76.5876 75.568C77.1743 75.8347 77.6703 76.208 78.0756 76.688L78.2516 75.36ZM72.4916 81.968C73.0996 82.576 73.8623 82.88 74.7796 82.88C75.697 82.88 76.4543 82.576 77.0516 81.968C77.649 81.36 77.9476 80.5973 77.9476 79.68C77.9476 78.7627 77.649 78 77.0516 77.392C76.4543 76.784 75.697 76.48 74.7796 76.48C73.8623 76.48 73.0996 76.7893 72.4916 77.408C71.8943 78.016 71.5956 78.7733 71.5956 79.68C71.5956 80.5867 71.8943 81.3493 72.4916 81.968ZM88.7351 75.36V76.592H85.5191V84H84.1911V76.592H80.9751V75.36H88.7351ZM97.4548 75.36H98.5428V84H97.4068L97.2628 82.688C96.8574 83.168 96.3614 83.5413 95.7748 83.808C95.1988 84.064 94.5641 84.192 93.8708 84.192C92.6014 84.192 91.5401 83.7653 90.6868 82.912C89.8334 82.048 89.4068 80.9707 89.4068 79.68C89.4068 78.3893 89.8334 77.3173 90.6868 76.464C91.5401 75.6 92.6014 75.168 93.8708 75.168C94.5748 75.168 95.2148 75.3013 95.7908 75.568C96.3774 75.8347 96.8734 76.208 97.2788 76.688L97.4548 75.36ZM91.6948 81.968C92.3028 82.576 93.0654 82.88 93.9828 82.88C94.9001 82.88 95.6574 82.576 96.2548 81.968C96.8521 81.36 97.1508 80.5973 97.1508 79.68C97.1508 78.7627 96.8521 78 96.2548 77.392C95.6574 76.784 94.9001 76.48 93.9828 76.48C93.0654 76.48 92.3028 76.7893 91.6948 77.408C91.0974 78.016 90.7988 78.7733 90.7988 79.68C90.7988 80.5867 91.0974 81.3493 91.6948 81.968ZM102.754 75.36H108.418V84H107.058V76.544H103.89L103.442 80.912C103.325 82.0533 103.032 82.864 102.562 83.344C102.093 83.8133 101.389 84.048 100.45 84.048H100.21V82.768H100.514C101.005 82.768 101.378 82.6293 101.634 82.352C101.89 82.064 102.05 81.6107 102.114 80.992L102.754 75.36ZM115.045 84.192C114.192 84.192 113.413 84 112.709 83.616C112.005 83.2213 111.456 82.6827 111.061 82C110.667 81.3067 110.469 80.5333 110.469 79.68C110.469 78.3787 110.901 77.3013 111.765 76.448C112.64 75.5947 113.733 75.168 115.045 75.168C115.909 75.168 116.688 75.3653 117.381 75.76C118.085 76.144 118.635 76.6827 119.029 77.376C119.435 78.0587 119.637 78.8267 119.637 79.68C119.637 80.9707 119.2 82.048 118.325 82.912C117.451 83.7653 116.357 84.192 115.045 84.192ZM112.757 81.984C113.365 82.5813 114.128 82.88 115.045 82.88C115.973 82.88 116.736 82.5813 117.333 81.984C117.941 81.376 118.245 80.608 118.245 79.68C118.245 78.752 117.941 77.9893 117.333 77.392C116.736 76.784 115.973 76.48 115.045 76.48C114.128 76.48 113.365 76.784 112.757 77.392C112.16 77.9893 111.861 78.752 111.861 79.68C111.861 80.608 112.16 81.376 112.757 81.984ZM127.08 75.36V76.576H123.032V84H121.704V75.36H127.08ZM136.373 84.192C135.52 84.192 134.741 84 134.037 83.616C133.333 83.2213 132.784 82.6827 132.389 82C131.995 81.3067 131.797 80.5333 131.797 79.68C131.797 78.3787 132.229 77.3013 133.093 76.448C133.968 75.5947 135.061 75.168 136.373 75.168C137.237 75.168 138.016 75.3653 138.709 75.76C139.413 76.144 139.963 76.6827 140.357 77.376C140.763 78.0587 140.965 78.8267 140.965 79.68C140.965 80.9707 140.528 82.048 139.653 82.912C138.779 83.7653 137.685 84.192 136.373 84.192ZM134.085 81.984C134.693 82.5813 135.456 82.88 136.373 82.88C137.301 82.88 138.064 82.5813 138.661 81.984C139.269 81.376 139.573 80.608 139.573 79.68C139.573 78.752 139.269 77.9893 138.661 77.392C138.064 76.784 137.301 76.48 136.373 76.48C135.456 76.48 134.693 76.784 134.085 77.392C133.488 77.9893 133.189 78.752 133.189 79.68C133.189 80.608 133.488 81.376 134.085 81.984ZM147.272 75.808C148.499 75.808 149.507 76.1973 150.296 76.976C151.086 77.744 151.48 78.7307 151.48 79.936C151.48 81.184 151.07 82.208 150.248 83.008C149.427 83.7973 148.371 84.192 147.08 84.192C145.726 84.192 144.643 83.7653 143.832 82.912C143.032 82.048 142.632 80.896 142.632 79.456C142.632 77.2373 143.032 75.5787 143.832 74.48C144.632 73.3813 146.019 72.592 147.992 72.112L150.552 71.504V72.848L148.024 73.456C146.904 73.712 146.03 74.1333 145.4 74.72C144.771 75.3067 144.366 76.0853 144.184 77.056C144.942 76.224 145.971 75.808 147.272 75.808ZM147.08 82.88C147.934 82.88 148.648 82.6027 149.224 82.048C149.8 81.4827 150.088 80.784 150.088 79.952C150.088 79.1093 149.8 78.4053 149.224 77.84C148.648 77.2747 147.934 76.992 147.08 76.992C146.216 76.992 145.496 77.2747 144.92 77.84C144.344 78.3947 144.056 79.0933 144.056 79.936C144.056 80.352 144.131 80.7413 144.28 81.104C144.44 81.4667 144.654 81.776 144.92 82.032C145.187 82.288 145.507 82.496 145.88 82.656C146.254 82.8053 146.654 82.88 147.08 82.88ZM158.14 75.168C159.43 75.168 160.492 75.5947 161.324 76.448C162.166 77.3013 162.588 78.3787 162.588 79.68C162.588 80.9707 162.166 82.048 161.324 82.912C160.492 83.7653 159.43 84.192 158.14 84.192C156.838 84.192 155.766 83.744 154.924 82.848V87.088H153.564V75.36H154.492L154.764 76.688C155.169 76.208 155.66 75.8347 156.236 75.568C156.822 75.3013 157.457 75.168 158.14 75.168ZM158.044 82.88C158.961 82.88 159.718 82.576 160.316 81.968C160.913 81.36 161.212 80.5973 161.212 79.68C161.212 78.7627 160.913 78 160.316 77.392C159.718 76.784 158.961 76.48 158.044 76.48C157.126 76.48 156.364 76.7893 155.756 77.408C155.158 78.016 154.86 78.7733 154.86 79.68C154.86 80.2773 154.993 80.8213 155.26 81.312C155.537 81.8027 155.921 82.1867 156.411 82.464C156.902 82.7413 157.446 82.88 158.044 82.88ZM172.017 75.36H173.105V84H171.969L171.825 82.688C171.42 83.168 170.924 83.5413 170.337 83.808C169.761 84.064 169.127 84.192 168.433 84.192C167.164 84.192 166.103 83.7653 165.249 82.912C164.396 82.048 163.969 80.9707 163.969 79.68C163.969 78.3893 164.396 77.3173 165.249 76.464C166.103 75.6 167.164 75.168 168.433 75.168C169.137 75.168 169.777 75.3013 170.353 75.568C170.94 75.8347 171.436 76.208 171.841 76.688L172.017 75.36ZM166.257 81.968C166.865 82.576 167.628 82.88 168.545 82.88C169.463 82.88 170.22 82.576 170.817 81.968C171.415 81.36 171.713 80.5973 171.713 79.68C171.713 78.7627 171.415 78 170.817 77.392C170.22 76.784 169.463 76.48 168.545 76.48C167.628 76.48 166.865 76.7893 166.257 77.408C165.66 78.016 165.361 78.7733 165.361 79.68C165.361 80.5867 165.66 81.3493 166.257 81.968ZM180.341 79.44C181.13 79.8667 181.525 80.5707 181.525 81.552C181.525 82.064 181.381 82.5227 181.093 82.928C180.815 83.3227 180.421 83.632 179.909 83.856C179.407 84.08 178.842 84.192 178.213 84.192C177.295 84.192 176.538 83.9573 175.941 83.488C175.354 83.0187 175.023 82.3893 174.949 81.6H176.181C176.266 82.0053 176.49 82.3253 176.853 82.56C177.215 82.784 177.669 82.896 178.213 82.896C178.789 82.896 179.263 82.7627 179.637 82.496C180.01 82.2293 180.197 81.8773 180.197 81.44C180.197 81.0347 180.037 80.6987 179.717 80.432C179.407 80.1653 179.013 80.032 178.533 80.032H177.253V78.928H178.533C178.981 78.928 179.338 78.816 179.605 78.592C179.882 78.3573 180.021 78.0587 180.021 77.696C180.021 77.3013 179.855 76.9813 179.525 76.736C179.194 76.4907 178.757 76.368 178.213 76.368C177.733 76.368 177.333 76.4747 177.013 76.688C176.693 76.9013 176.49 77.1893 176.405 77.552H175.173C175.215 77.0827 175.37 76.6667 175.637 76.304C175.914 75.9413 176.277 75.664 176.725 75.472C177.183 75.2693 177.69 75.168 178.245 75.168C179.13 75.168 179.861 75.3973 180.437 75.856C181.013 76.3147 181.301 76.8907 181.301 77.584C181.301 78.416 180.981 79.0347 180.341 79.44ZM187.545 84.192C186.692 84.192 185.913 84 185.209 83.616C184.505 83.2213 183.956 82.6827 183.561 82C183.167 81.3067 182.969 80.5333 182.969 79.68C182.969 78.3787 183.401 77.3013 184.265 76.448C185.14 75.5947 186.233 75.168 187.545 75.168C188.409 75.168 189.188 75.3653 189.881 75.76C190.585 76.144 191.135 76.6827 191.529 77.376C191.935 78.0587 192.137 78.8267 192.137 79.68C192.137 80.9707 191.7 82.048 190.825 82.912C189.951 83.7653 188.857 84.192 187.545 84.192ZM185.257 81.984C185.865 82.5813 186.628 82.88 187.545 82.88C188.473 82.88 189.236 82.5813 189.833 81.984C190.441 81.376 190.745 80.608 190.745 79.68C190.745 78.752 190.441 77.9893 189.833 77.392C189.236 76.784 188.473 76.48 187.545 76.48C186.628 76.48 185.865 76.784 185.257 77.392C184.66 77.9893 184.361 78.752 184.361 79.68C184.361 80.608 184.66 81.376 185.257 81.984ZM199.756 79.52C200.193 79.68 200.54 79.9467 200.796 80.32C201.063 80.6933 201.196 81.1147 201.196 81.584C201.196 82.2773 200.94 82.8533 200.428 83.312C199.927 83.7707 199.297 84 198.54 84H194.204V75.36H198.492C199.207 75.36 199.788 75.568 200.236 75.984C200.684 76.3893 200.908 76.912 200.908 77.552C200.908 77.84 200.86 78.112 200.764 78.368C200.668 78.624 200.535 78.8533 200.364 79.056C200.193 79.248 199.991 79.4027 199.756 79.52ZM199.564 77.792C199.564 77.44 199.447 77.1627 199.212 76.96C198.977 76.7467 198.673 76.64 198.3 76.64H195.532V78.928H198.3C198.684 78.928 198.988 78.8267 199.212 78.624C199.447 78.4107 199.564 78.1333 199.564 77.792ZM198.38 82.72C198.647 82.72 198.887 82.6667 199.1 82.56C199.324 82.4427 199.495 82.288 199.612 82.096C199.729 81.904 199.788 81.6907 199.788 81.456C199.788 81.2107 199.729 80.992 199.612 80.8C199.495 80.5973 199.324 80.4427 199.1 80.336C198.887 80.2293 198.641 80.176 198.364 80.176H195.532V82.72H198.38ZM210.752 75.36H211.84V84H210.704L210.56 82.688C210.154 83.168 209.658 83.5413 209.072 83.808C208.496 84.064 207.861 84.192 207.168 84.192C205.898 84.192 204.837 83.7653 203.984 82.912C203.13 82.048 202.704 80.9707 202.704 79.68C202.704 78.3893 203.13 77.3173 203.984 76.464C204.837 75.6 205.898 75.168 207.168 75.168C207.872 75.168 208.512 75.3013 209.088 75.568C209.674 75.8347 210.17 76.208 210.576 76.688L210.752 75.36ZM204.992 81.968C205.6 82.576 206.362 82.88 207.28 82.88C208.197 82.88 208.954 82.576 209.552 81.968C210.149 81.36 210.448 80.5973 210.448 79.68C210.448 78.7627 210.149 78 209.552 77.392C208.954 76.784 208.197 76.48 207.28 76.48C206.362 76.48 205.6 76.7893 204.992 77.408C204.394 78.016 204.096 78.7733 204.096 79.68C204.096 80.5867 204.394 81.3493 204.992 81.968ZM221.235 75.36V76.592H218.019V84H216.691V76.592H213.475V75.36H221.235ZM230.675 79.712C230.675 79.8293 230.664 79.9947 230.643 80.208H223.267C223.373 81.008 223.704 81.6533 224.259 82.144C224.813 82.624 225.496 82.864 226.307 82.864C226.904 82.864 227.432 82.736 227.891 82.48C228.36 82.2133 228.733 81.84 229.011 81.36H230.435C230.072 82.256 229.528 82.9547 228.803 83.456C228.077 83.9467 227.245 84.192 226.307 84.192C225.059 84.192 224.013 83.76 223.171 82.896C222.328 82.032 221.907 80.96 221.907 79.68C221.907 78.3893 222.328 77.3173 223.171 76.464C224.013 75.6 225.059 75.168 226.307 75.168C227.597 75.168 228.648 75.6053 229.459 76.48C230.269 77.3547 230.675 78.432 230.675 79.712ZM226.307 76.464C225.795 76.464 225.325 76.5653 224.899 76.768C224.483 76.9707 224.136 77.264 223.859 77.648C223.581 78.0213 223.395 78.4533 223.299 78.944H229.299C229.203 78.4427 229.016 78.0053 228.739 77.632C228.461 77.248 228.115 76.96 227.699 76.768C227.283 76.5653 226.819 76.464 226.307 76.464ZM233.973 75.36H239.637V84H238.277V76.544H235.109L234.661 80.912C234.544 82.0533 234.25 82.864 233.781 83.344C233.312 83.8133 232.608 84.048 231.669 84.048H231.429V82.768H231.733C232.224 82.768 232.597 82.6293 232.853 82.352C233.109 82.064 233.269 81.6107 233.333 80.992L233.973 75.36ZM245.848 78.08C246.755 78.08 247.496 78.3573 248.072 78.912C248.648 79.456 248.936 80.1707 248.936 81.056C248.936 81.92 248.648 82.6293 248.072 83.184C247.496 83.728 246.755 84 245.848 84H242.376V75.36H243.704V78.08H245.848ZM245.672 82.784C246.237 82.784 246.691 82.624 247.032 82.304C247.373 81.984 247.544 81.568 247.544 81.056C247.544 80.5333 247.373 80.112 247.032 79.792C246.691 79.4613 246.237 79.296 245.672 79.296H243.704V82.784H245.672ZM256.75 75.36H258.078V84H256.75V80.176H252.126V84H250.798V75.36H252.126V78.896H256.75V75.36ZM264.301 78.08C265.208 78.08 265.949 78.3573 266.525 78.912C267.101 79.456 267.389 80.1707 267.389 81.056C267.389 81.92 267.101 82.6293 266.525 83.184C265.949 83.728 265.208 84 264.301 84H260.829V75.36H262.157V78.08H264.301ZM268.957 75.36H270.317V84H268.957V75.36ZM264.125 82.784C264.69 82.784 265.144 82.624 265.485 82.304C265.826 81.984 265.997 81.568 265.997 81.056C265.997 80.5333 265.826 80.112 265.485 79.792C265.144 79.4613 264.69 79.296 264.125 79.296H262.157V82.784H264.125ZM279.8 84H278.264L275.799 80.4L273.304 84H271.816L274.984 79.504L272.072 75.36H273.592L275.799 78.56L278.056 75.36H279.544L276.616 79.456L279.8 84ZM61.376 97.36H68.704V106H67.36V98.608H62.736V106H61.376V97.36ZM76.0301 97.168C77.3208 97.168 78.3821 97.5947 79.2141 98.448C80.0568 99.3013 80.4781 100.379 80.4781 101.68C80.4781 102.971 80.0568 104.048 79.2141 104.912C78.3821 105.765 77.3208 106.192 76.0301 106.192C74.7288 106.192 73.6568 105.744 72.8141 104.848V109.088H71.4541V97.36H72.3821L72.6541 98.688C73.0595 98.208 73.5501 97.8347 74.1261 97.568C74.7128 97.3013 75.3475 97.168 76.0301 97.168ZM75.9341 104.88C76.8515 104.88 77.6088 104.576 78.2061 103.968C78.8035 103.36 79.1021 102.597 79.1021 101.68C79.1021 100.763 78.8035 100 78.2061 99.392C77.6088 98.784 76.8515 98.48 75.9341 98.48C75.0168 98.48 74.2541 98.7893 73.6461 99.408C73.0488 100.016 72.7501 100.773 72.7501 101.68C72.7501 102.277 72.8835 102.821 73.1501 103.312C73.4275 103.803 73.8115 104.187 74.3021 104.464C74.7928 104.741 75.3368 104.88 75.9341 104.88ZM86.4359 106.192C85.5825 106.192 84.8039 106 84.0999 105.616C83.3959 105.221 82.8465 104.683 82.4519 104C82.0572 103.307 81.8599 102.533 81.8599 101.68C81.8599 100.379 82.2919 99.3013 83.1559 98.448C84.0305 97.5947 85.1239 97.168 86.4359 97.168C87.2999 97.168 88.0785 97.3653 88.7719 97.76C89.4759 98.144 90.0252 98.6827 90.4199 99.376C90.8252 100.059 91.0279 100.827 91.0279 101.68C91.0279 102.971 90.5905 104.048 89.7159 104.912C88.8412 105.765 87.7479 106.192 86.4359 106.192ZM84.1479 103.984C84.7559 104.581 85.5185 104.88 86.4359 104.88C87.3639 104.88 88.1265 104.581 88.7239 103.984C89.3319 103.376 89.6359 102.608 89.6359 101.68C89.6359 100.752 89.3319 99.9893 88.7239 99.392C88.1265 98.784 87.3639 98.48 86.4359 98.48C85.5185 98.48 84.7559 98.784 84.1479 99.392C83.5505 99.9893 83.2519 100.752 83.2519 101.68C83.2519 102.608 83.5505 103.376 84.1479 103.984ZM98.4708 97.36V98.576H94.4228V106H93.0948V97.36H98.4708ZM104.702 97.168C105.993 97.168 107.054 97.5947 107.886 98.448C108.729 99.3013 109.15 100.379 109.15 101.68C109.15 102.971 108.729 104.048 107.886 104.912C107.054 105.765 105.993 106.192 104.702 106.192C103.401 106.192 102.329 105.744 101.486 104.848V109.088H100.126V97.36H101.054L101.326 98.688C101.731 98.208 102.222 97.8347 102.798 97.568C103.385 97.3013 104.019 97.168 104.702 97.168ZM104.606 104.88C105.523 104.88 106.281 104.576 106.878 103.968C107.475 103.36 107.774 102.597 107.774 101.68C107.774 100.763 107.475 100 106.878 99.392C106.281 98.784 105.523 98.48 104.606 98.48C103.689 98.48 102.926 98.7893 102.318 99.408C101.721 100.016 101.422 100.773 101.422 101.68C101.422 102.277 101.555 102.821 101.822 103.312C102.099 103.803 102.483 104.187 102.974 104.464C103.465 104.741 104.009 104.88 104.606 104.88ZM118.58 97.36H119.668V106H118.532L118.388 104.688C117.982 105.168 117.486 105.541 116.9 105.808C116.324 106.064 115.689 106.192 114.996 106.192C113.726 106.192 112.665 105.765 111.812 104.912C110.958 104.048 110.532 102.971 110.532 101.68C110.532 100.389 110.958 99.3173 111.812 98.464C112.665 97.6 113.726 97.168 114.996 97.168C115.7 97.168 116.34 97.3013 116.916 97.568C117.502 97.8347 117.998 98.208 118.404 98.688L118.58 97.36ZM112.82 103.968C113.428 104.576 114.19 104.88 115.108 104.88C116.025 104.88 116.782 104.576 117.38 103.968C117.977 103.36 118.276 102.597 118.276 101.68C118.276 100.763 117.977 100 117.38 99.392C116.782 98.784 116.025 98.48 115.108 98.48C114.19 98.48 113.428 98.7893 112.82 99.408C112.222 100.016 111.924 100.773 111.924 101.68C111.924 102.587 112.222 103.349 112.82 103.968ZM133.143 106H131.831L130.599 99.584L127.543 105.824H127.239L124.199 99.584L122.967 106H121.655L123.303 97.36H124.439L127.399 103.408L130.343 97.36H131.479L133.143 106ZM145.878 106H144.566L143.334 99.584L140.278 105.824H139.974L136.934 99.584L135.702 106H134.39L136.038 97.36H137.174L140.134 103.408L143.078 97.36H144.214L145.878 106Z" fill="black"/>
<rect width="40" height="40" rx="20" fill="#1E4391"/>
<path d="M19.8861 25.552H25.8381V28H14.9181V27.304C17.3021 24.696 19.0221 22.752 20.0781 21.472C21.1501 20.176 21.8621 19.192 22.2141 18.52C22.5661 17.848 22.7421 17.184 22.7421 16.528C22.7421 16.064 22.6381 15.656 22.4301 15.304C22.2381 14.952 21.9581 14.68 21.5901 14.488C21.2381 14.28 20.8221 14.176 20.3421 14.176C19.5901 14.176 18.9821 14.4 18.5181 14.848C18.0701 15.28 17.8461 15.848 17.8461 16.552V16.912H15.2541V16.552C15.2541 15.112 15.7181 13.952 16.6461 13.072C17.5741 12.176 18.7981 11.728 20.3181 11.728C21.8061 11.728 23.0141 12.176 23.9421 13.072C24.8861 13.968 25.3581 15.12 25.3581 16.528C25.3581 17.264 25.2221 17.976 24.9501 18.664C24.6941 19.352 24.1661 20.24 23.3661 21.328C22.5821 22.4 21.4221 23.808 19.8861 25.552Z" fill="white"/>
<circle cx="20" cy="79" r="6" fill="white" stroke="#1E4391" stroke-width="2"/>
<path d="M20 72V40" stroke="#1E4391" stroke-width="2"/>
<path d="M66.656 143.168C65.2093 143.168 64.0053 142.692 63.044 141.74C62.092 140.779 61.616 139.565 61.616 138.1C61.616 136.635 62.092 135.426 63.044 134.474C64.0053 133.513 65.2093 133.032 66.656 133.032C67.4213 133.032 68.1307 133.181 68.784 133.48C69.4373 133.779 69.9833 134.203 70.422 134.754C70.87 135.305 71.178 135.944 71.346 136.672H69.722C69.4887 136.019 69.1013 135.51 68.56 135.146C68.0187 134.773 67.384 134.586 66.656 134.586C65.676 134.586 64.864 134.917 64.22 135.58C63.576 136.243 63.254 137.087 63.254 138.114C63.254 139.131 63.576 139.971 64.22 140.634C64.864 141.287 65.676 141.614 66.656 141.614C67.4027 141.614 68.0513 141.418 68.602 141.026C69.1527 140.625 69.5353 140.079 69.75 139.388H71.388C71.136 140.536 70.5807 141.455 69.722 142.146C68.8633 142.827 67.8413 143.168 66.656 143.168ZM82.5241 143H81.0261L80.1161 137.848L77.5821 142.916H77.2601L74.7401 137.848L73.8301 143H72.3321L73.6901 135.44H75.0061L77.4281 140.27L79.8641 135.44H81.1661L82.5241 143ZM90.4467 142.062C89.6814 142.809 88.72 143.182 87.5627 143.182C86.4054 143.182 85.4394 142.809 84.6647 142.062C83.8994 141.306 83.5167 140.359 83.5167 139.22C83.5167 138.473 83.6894 137.797 84.0347 137.19C84.3894 136.583 84.8747 136.112 85.4907 135.776C86.116 135.431 86.8067 135.258 87.5627 135.258C88.3187 135.258 89.0047 135.431 89.6207 135.776C90.246 136.112 90.7314 136.583 91.0767 137.19C91.4314 137.797 91.6087 138.473 91.6087 139.22C91.6087 140.359 91.2214 141.306 90.4467 142.062ZM87.5627 141.698C88.0387 141.698 88.4634 141.595 88.8367 141.39C89.21 141.175 89.4994 140.881 89.7047 140.508C89.9194 140.125 90.0267 139.696 90.0267 139.22C90.0267 138.501 89.7934 137.909 89.3267 137.442C88.8694 136.975 88.2814 136.742 87.5627 136.742C86.844 136.742 86.2514 136.975 85.7847 137.442C85.3274 137.909 85.0987 138.501 85.0987 139.22C85.0987 139.939 85.3274 140.531 85.7847 140.998C86.2514 141.465 86.844 141.698 87.5627 141.698ZM99.0235 135.44V136.84H96.3635V143H94.8515V136.84H92.1775V135.44H99.0235ZM104.447 135.258C105.194 135.258 105.866 135.431 106.463 135.776C107.061 136.112 107.527 136.583 107.863 137.19C108.199 137.797 108.367 138.473 108.367 139.22C108.367 140.359 107.994 141.306 107.247 142.062C106.51 142.809 105.577 143.182 104.447 143.182C103.477 143.182 102.641 142.879 101.941 142.272V145.716H100.387V135.44H101.437L101.731 136.364C102.459 135.627 103.365 135.258 104.447 135.258ZM102.557 140.998C103.024 141.465 103.612 141.698 104.321 141.698C105.04 141.698 105.633 141.465 106.099 140.998C106.566 140.522 106.799 139.929 106.799 139.22C106.799 138.511 106.566 137.923 106.099 137.456C105.633 136.98 105.045 136.742 104.335 136.742C103.869 136.742 103.444 136.849 103.061 137.064C102.679 137.279 102.38 137.577 102.165 137.96C101.96 138.333 101.857 138.753 101.857 139.22C101.857 139.929 102.091 140.522 102.557 140.998ZM117.222 139.234C117.222 139.374 117.212 139.547 117.194 139.752H111.062C111.155 140.359 111.407 140.839 111.818 141.194C112.238 141.549 112.756 141.726 113.372 141.726C113.67 141.726 113.95 141.684 114.212 141.6C114.473 141.507 114.702 141.381 114.898 141.222C115.103 141.054 115.271 140.853 115.402 140.62H117.04C116.741 141.423 116.265 142.053 115.612 142.51C114.958 142.958 114.212 143.182 113.372 143.182C112.261 143.182 111.332 142.804 110.586 142.048C109.848 141.292 109.48 140.349 109.48 139.22C109.48 138.091 109.848 137.148 110.586 136.392C111.332 135.636 112.261 135.258 113.372 135.258C114.128 135.258 114.8 135.44 115.388 135.804C115.976 136.159 116.428 136.639 116.746 137.246C117.063 137.843 117.222 138.506 117.222 139.234ZM113.372 136.658C112.793 136.658 112.298 136.821 111.888 137.148C111.486 137.475 111.22 137.923 111.09 138.492H115.668C115.574 138.109 115.42 137.783 115.206 137.512C114.991 137.232 114.725 137.022 114.408 136.882C114.1 136.733 113.754 136.658 113.372 136.658ZM124.645 135.44V136.84H121.985V143H120.473V136.84H117.799V135.44H124.645ZM129.144 137.68C129.975 137.68 130.647 137.927 131.16 138.422C131.674 138.917 131.93 139.561 131.93 140.354C131.93 141.138 131.674 141.777 131.16 142.272C130.647 142.757 129.975 143 129.144 143H126.008V135.44H127.534V137.68H129.144ZM128.962 141.656C129.382 141.656 129.723 141.539 129.984 141.306C130.246 141.063 130.376 140.746 130.376 140.354C130.376 140.093 130.316 139.864 130.194 139.668C130.082 139.463 129.919 139.304 129.704 139.192C129.49 139.08 129.242 139.024 128.962 139.024H127.534V141.656H128.962ZM136.618 135.44H143.212V143H141.672V136.854H138.172V143H136.618V135.44ZM149.482 135.258C150.229 135.258 150.901 135.431 151.498 135.776C152.096 136.112 152.562 136.583 152.898 137.19C153.234 137.797 153.402 138.473 153.402 139.22C153.402 140.359 153.029 141.306 152.282 142.062C151.545 142.809 150.612 143.182 149.482 143.182C148.512 143.182 147.676 142.879 146.976 142.272V145.716H145.422V135.44H146.472L146.766 136.364C147.494 135.627 148.4 135.258 149.482 135.258ZM147.592 140.998C148.059 141.465 148.647 141.698 149.356 141.698C150.075 141.698 150.668 141.465 151.134 140.998C151.601 140.522 151.834 139.929 151.834 139.22C151.834 138.511 151.601 137.923 151.134 137.456C150.668 136.98 150.08 136.742 149.37 136.742C148.904 136.742 148.479 136.849 148.096 137.064C147.714 137.279 147.415 137.577 147.2 137.96C146.995 138.333 146.892 138.753 146.892 139.22C146.892 139.929 147.126 140.522 147.592 140.998ZM161.445 142.062C160.679 142.809 159.718 143.182 158.561 143.182C157.403 143.182 156.437 142.809 155.663 142.062C154.897 141.306 154.515 140.359 154.515 139.22C154.515 138.473 154.687 137.797 155.033 137.19C155.387 136.583 155.873 136.112 156.489 135.776C157.114 135.431 157.805 135.258 158.561 135.258C159.317 135.258 160.003 135.431 160.619 135.776C161.244 136.112 161.729 136.583 162.075 137.19C162.429 137.797 162.607 138.473 162.607 139.22C162.607 140.359 162.219 141.306 161.445 142.062ZM158.561 141.698C159.037 141.698 159.461 141.595 159.835 141.39C160.208 141.175 160.497 140.881 160.703 140.508C160.917 140.125 161.025 139.696 161.025 139.22C161.025 138.501 160.791 137.909 160.325 137.442C159.867 136.975 159.279 136.742 158.561 136.742C157.842 136.742 157.249 136.975 156.783 137.442C156.325 137.909 156.097 138.501 156.097 139.22C156.097 139.939 156.325 140.531 156.783 140.998C157.249 141.465 157.842 141.698 158.561 141.698ZM169.092 135.44V136.826H165.788V143H164.262V135.44H169.092ZM174.502 135.258C175.249 135.258 175.921 135.431 176.518 135.776C177.115 136.112 177.582 136.583 177.918 137.19C178.254 137.797 178.422 138.473 178.422 139.22C178.422 140.359 178.049 141.306 177.302 142.062C176.565 142.809 175.631 143.182 174.502 143.182C173.531 143.182 172.696 142.879 171.996 142.272V145.716H170.442V135.44H171.492L171.786 136.364C172.514 135.627 173.419 135.258 174.502 135.258ZM172.612 140.998C173.079 141.465 173.667 141.698 174.376 141.698C175.095 141.698 175.687 141.465 176.154 140.998C176.621 140.522 176.854 139.929 176.854 139.22C176.854 138.511 176.621 137.923 176.154 137.456C175.687 136.98 175.099 136.742 174.39 136.742C173.923 136.742 173.499 136.849 173.116 137.064C172.733 137.279 172.435 137.577 172.22 137.96C172.015 138.333 171.912 138.753 171.912 139.22C171.912 139.929 172.145 140.522 172.612 140.998ZM186.422 135.44H187.626V143H186.366L186.212 142.076C185.484 142.813 184.574 143.182 183.482 143.182C182.353 143.182 181.41 142.804 180.654 142.048C179.908 141.292 179.534 140.349 179.534 139.22C179.534 138.081 179.908 137.139 180.654 136.392C181.41 135.636 182.353 135.258 183.482 135.258C184.593 135.258 185.512 135.631 186.24 136.378L186.422 135.44ZM181.816 140.998C182.292 141.465 182.885 141.698 183.594 141.698C184.313 141.698 184.901 141.465 185.358 140.998C185.825 140.522 186.058 139.929 186.058 139.22C186.058 138.501 185.825 137.909 185.358 137.442C184.901 136.975 184.313 136.742 183.594 136.742C183.128 136.742 182.703 136.849 182.32 137.064C181.947 137.279 181.653 137.577 181.438 137.96C181.224 138.333 181.116 138.753 181.116 139.22C181.116 139.929 181.35 140.522 181.816 140.998ZM199.432 143H197.934L197.024 137.848L194.49 142.916H194.168L191.648 137.848L190.738 143H189.24L190.598 135.44H191.914L194.336 140.27L196.772 135.44H198.074L199.432 143ZM210.63 143H209.132L208.222 137.848L205.688 142.916H205.366L202.846 137.848L201.936 143H200.438L201.796 135.44H203.112L205.534 140.27L207.97 135.44H209.272L210.63 143ZM215.373 137.68C216.204 137.68 216.876 137.927 217.389 138.422C217.902 138.917 218.159 139.561 218.159 140.354C218.159 141.138 217.902 141.777 217.389 142.272C216.876 142.757 216.204 143 215.373 143H212.237V135.44H213.763V137.68H215.373ZM219.475 135.44H221.029V143H219.475V135.44ZM215.191 141.656C215.611 141.656 215.952 141.539 216.213 141.306C216.474 141.063 216.605 140.746 216.605 140.354C216.605 140.093 216.544 139.864 216.423 139.668C216.311 139.463 216.148 139.304 215.933 139.192C215.718 139.08 215.471 139.024 215.191 139.024H213.763V141.656H215.191Z" fill="#1E4391"/>
<path d="M62 153H223" stroke="#1E4391" stroke-width="2"/>
</svg>
