<svg width="368" height="272" viewBox="0 0 368 272" fill="none" xmlns="http://www.w3.org/2000/svg">
<path d="M69.784 15.4H71.98L68.218 24.022C67.558 25.57 66.874 26.626 66.166 27.19C65.47 27.754 64.498 28.036 63.25 28.036H62.71V26.11H63.448C64.084 26.11 64.57 25.996 64.906 25.768C65.242 25.528 65.584 25.06 65.932 24.364L61.162 15.4H63.52L66.994 21.97L69.784 15.4ZM78.1412 22.834C78.9932 23.338 79.4192 24.124 79.4192 25.192C79.4192 26.092 79.0592 26.824 78.3392 27.388C77.6192 27.952 76.6952 28.234 75.5672 28.234C74.4752 28.234 73.5812 27.952 72.8852 27.388C72.2012 26.812 71.8292 26.044 71.7692 25.084H73.5872C73.6592 25.504 73.8692 25.834 74.2172 26.074C74.5652 26.314 75.0152 26.434 75.5672 26.434C76.1312 26.434 76.5872 26.308 76.9352 26.056C77.2832 25.792 77.4572 25.456 77.4572 25.048C77.4572 24.652 77.3012 24.328 76.9892 24.076C76.6892 23.824 76.2872 23.698 75.7832 23.698H74.5232V22.15H75.7832C76.2392 22.15 76.5992 22.048 76.8632 21.844C77.1272 21.628 77.2592 21.34 77.2592 20.98C77.2592 20.596 77.1032 20.29 76.7912 20.062C76.4792 19.834 76.0652 19.72 75.5492 19.72C75.0812 19.72 74.6912 19.828 74.3792 20.044C74.0792 20.26 73.8992 20.56 73.8392 20.944H72.0212C72.0692 20.08 72.4232 19.384 73.0832 18.856C73.7552 18.316 74.5952 18.046 75.6032 18.046C76.6352 18.046 77.4812 18.31 78.1412 18.838C78.8132 19.366 79.1492 20.032 79.1492 20.836C79.1492 21.7 78.8132 22.366 78.1412 22.834ZM88.0797 18.28H90.0417V28H88.0797V23.932H83.5797V28H81.5997V18.28H83.5797V22.096H88.0797V18.28ZM101.021 18.28H102.569V28H100.949L100.751 26.812C99.8149 27.76 98.6449 28.234 97.2409 28.234C95.7889 28.234 94.5769 27.748 93.6049 26.776C92.6449 25.804 92.1649 24.592 92.1649 23.14C92.1649 21.676 92.6449 20.464 93.6049 19.504C94.5769 18.532 95.7889 18.046 97.2409 18.046C98.6689 18.046 99.8509 18.526 100.787 19.486L101.021 18.28ZM95.0989 25.426C95.7109 26.026 96.4729 26.326 97.3849 26.326C98.3089 26.326 99.0649 26.026 99.6529 25.426C100.253 24.814 100.553 24.052 100.553 23.14C100.553 22.216 100.253 21.454 99.6529 20.854C99.0649 20.254 98.3089 19.954 97.3849 19.954C96.7849 19.954 96.2389 20.092 95.7469 20.368C95.2669 20.644 94.8889 21.028 94.6129 21.52C94.3369 22 94.1989 22.54 94.1989 23.14C94.1989 24.052 94.4989 24.814 95.0989 25.426ZM112.024 15.076V16.57H107.2V15.076H112.024ZM112.546 18.28H113.662V28H111.754V21.826L106.57 28H105.418V18.28H107.344V24.4L112.546 18.28ZM124.196 18.28V20.08H120.776V28H118.832V20.08H115.394V18.28H124.196ZM134.902 23.158C134.902 23.338 134.89 23.56 134.866 23.824H126.982C127.102 24.604 127.426 25.222 127.954 25.678C128.494 26.134 129.16 26.362 129.952 26.362C130.336 26.362 130.696 26.308 131.032 26.2C131.368 26.08 131.662 25.918 131.914 25.714C132.178 25.498 132.394 25.24 132.562 24.94H134.668C134.284 25.972 133.672 26.782 132.832 27.37C131.992 27.946 131.032 28.234 129.952 28.234C128.524 28.234 127.33 27.748 126.37 26.776C125.422 25.804 124.948 24.592 124.948 23.14C124.948 21.688 125.422 20.476 126.37 19.504C127.33 18.532 128.524 18.046 129.952 18.046C130.924 18.046 131.788 18.28 132.544 18.748C133.3 19.204 133.882 19.822 134.29 20.602C134.698 21.37 134.902 22.222 134.902 23.158ZM129.952 19.846C129.208 19.846 128.572 20.056 128.044 20.476C127.528 20.896 127.186 21.472 127.018 22.204H132.904C132.784 21.712 132.586 21.292 132.31 20.944C132.034 20.584 131.692 20.314 131.284 20.134C130.888 19.942 130.444 19.846 129.952 19.846ZM149.749 26.794C148.765 27.754 147.529 28.234 146.041 28.234C144.553 28.234 143.311 27.754 142.315 26.794C141.331 25.822 140.839 24.604 140.839 23.14C140.839 22.18 141.061 21.31 141.505 20.53C141.961 19.75 142.585 19.144 143.377 18.712C144.181 18.268 145.069 18.046 146.041 18.046C147.013 18.046 147.895 18.268 148.687 18.712C149.491 19.144 150.115 19.75 150.559 20.53C151.015 21.31 151.243 22.18 151.243 23.14C151.243 24.604 150.745 25.822 149.749 26.794ZM146.041 26.326C146.653 26.326 147.199 26.194 147.679 25.93C148.159 25.654 148.531 25.276 148.795 24.796C149.071 24.304 149.209 23.752 149.209 23.14C149.209 22.216 148.909 21.454 148.309 20.854C147.721 20.254 146.965 19.954 146.041 19.954C145.117 19.954 144.355 20.254 143.755 20.854C143.167 21.454 142.873 22.216 142.873 23.14C142.873 24.064 143.167 24.826 143.755 25.426C144.355 26.026 145.117 26.326 146.041 26.326ZM157.906 18.28H166.384V28H164.404V20.098H159.904V28H157.906V18.28ZM177.417 26.794C176.433 27.754 175.197 28.234 173.709 28.234C172.221 28.234 170.979 27.754 169.983 26.794C168.999 25.822 168.507 24.604 168.507 23.14C168.507 22.18 168.729 21.31 169.173 20.53C169.629 19.75 170.253 19.144 171.045 18.712C171.849 18.268 172.737 18.046 173.709 18.046C174.681 18.046 175.563 18.268 176.355 18.712C177.159 19.144 177.783 19.75 178.227 20.53C178.683 21.31 178.911 22.18 178.911 23.14C178.911 24.604 178.413 25.822 177.417 26.794ZM173.709 26.326C174.321 26.326 174.867 26.194 175.347 25.93C175.827 25.654 176.199 25.276 176.463 24.796C176.739 24.304 176.877 23.752 176.877 23.14C176.877 22.216 176.577 21.454 175.977 20.854C175.389 20.254 174.633 19.954 173.709 19.954C172.785 19.954 172.023 20.254 171.423 20.854C170.835 21.454 170.541 22.216 170.541 23.14C170.541 24.064 170.835 24.826 171.423 25.426C172.023 26.026 172.785 26.326 173.709 26.326ZM185.413 28.234C183.973 28.234 182.761 27.748 181.777 26.776C180.805 25.792 180.319 24.58 180.319 23.14C180.319 21.688 180.805 20.476 181.777 19.504C182.761 18.532 183.979 18.046 185.431 18.046C186.619 18.046 187.651 18.382 188.527 19.054C189.403 19.726 189.973 20.62 190.237 21.736H188.257C188.005 21.184 187.627 20.752 187.123 20.44C186.619 20.116 186.049 19.954 185.413 19.954C184.849 19.954 184.333 20.092 183.865 20.368C183.397 20.644 183.025 21.028 182.749 21.52C182.485 22 182.353 22.54 182.353 23.14C182.353 24.04 182.647 24.796 183.235 25.408C183.823 26.02 184.549 26.326 185.413 26.326C186.049 26.326 186.613 26.164 187.105 25.84C187.609 25.516 187.993 25.054 188.257 24.454H190.273C189.997 25.594 189.415 26.512 188.527 27.208C187.651 27.892 186.613 28.234 185.413 28.234ZM199.835 18.28V20.08H196.415V28H194.471V20.08H191.033V18.28H199.835ZM208.518 18.28H210.66L206.196 28.18C205.632 29.416 205.056 30.274 204.468 30.754C203.892 31.246 203.118 31.492 202.146 31.492H201.156V29.692H201.984C202.62 29.692 203.088 29.566 203.388 29.314C203.688 29.062 204.018 28.54 204.378 27.748L204.594 27.298L200.364 18.28H202.542L205.62 25.066L208.518 18.28ZM212.258 18.28H220.736V28H218.756V20.098H214.256V28H212.258V18.28ZM225.288 18.28H231.894V28H229.932V20.008H226.926L226.494 24.31C226.362 25.678 226.008 26.644 225.432 27.208C224.868 27.772 224.01 28.054 222.858 28.054H222.516V26.218H222.984C223.932 26.218 224.466 25.624 224.586 24.436L225.288 18.28ZM243.974 23.158C243.974 23.338 243.962 23.56 243.938 23.824H236.054C236.174 24.604 236.498 25.222 237.026 25.678C237.566 26.134 238.232 26.362 239.024 26.362C239.408 26.362 239.768 26.308 240.104 26.2C240.44 26.08 240.734 25.918 240.986 25.714C241.25 25.498 241.466 25.24 241.634 24.94H243.74C243.356 25.972 242.744 26.782 241.904 27.37C241.064 27.946 240.104 28.234 239.024 28.234C237.596 28.234 236.402 27.748 235.442 26.776C234.494 25.804 234.02 24.592 234.02 23.14C234.02 21.688 234.494 20.476 235.442 19.504C236.402 18.532 237.596 18.046 239.024 18.046C239.996 18.046 240.86 18.28 241.616 18.748C242.372 19.204 242.954 19.822 243.362 20.602C243.77 21.37 243.974 22.222 243.974 23.158ZM239.024 19.846C238.28 19.846 237.644 20.056 237.116 20.476C236.6 20.896 236.258 21.472 236.09 22.204H241.976C241.856 21.712 241.658 21.292 241.382 20.944C241.106 20.584 240.764 20.314 240.356 20.134C239.96 19.942 239.516 19.846 239.024 19.846ZM252.576 18.28H254.538V28H252.576V23.932H248.076V28H246.096V18.28H248.076V22.096H252.576V18.28ZM264.509 18.28H265.625V28H263.717V21.826L258.533 28H257.381V18.28H259.307V24.4L264.509 18.28ZM275.601 18.28H276.717V28H274.809V21.826L269.625 28H268.473V18.28H270.399V24.4L275.601 18.28Z" fill="#1E4391"/>
<path d="M66.512 133.176C64.848 133.176 63.472 132.632 62.384 131.544C61.3067 130.456 60.768 129.075 60.768 127.4C60.768 125.725 61.3067 124.344 62.384 123.256C63.472 122.168 64.848 121.624 66.512 121.624C67.3653 121.624 68.1547 121.789 68.88 122.12C69.616 122.44 70.2347 122.899 70.736 123.496C71.248 124.093 71.6053 124.792 71.808 125.592H70.384C70.0853 124.781 69.5947 124.147 68.912 123.688C68.2293 123.229 67.4293 123 66.512 123C65.2533 123 64.2187 123.416 63.408 124.248C62.608 125.069 62.208 126.125 62.208 127.416C62.208 128.696 62.608 129.747 63.408 130.568C64.2187 131.389 65.2533 131.8 66.512 131.8C67.4507 131.8 68.2667 131.56 68.96 131.08C69.6533 130.589 70.144 129.912 70.432 129.048H71.872C71.552 130.317 70.9067 131.325 69.936 132.072C68.976 132.808 67.8347 133.176 66.512 133.176ZM78.3739 124.168C79.6645 124.168 80.7259 124.595 81.5579 125.448C82.4005 126.301 82.8219 127.379 82.8219 128.68C82.8219 129.971 82.4005 131.048 81.5579 131.912C80.7259 132.765 79.6645 133.192 78.3739 133.192C77.0725 133.192 76.0005 132.744 75.1579 131.848V136.088H73.7979V124.36H74.7259L74.9979 125.688C75.4032 125.208 75.8939 124.835 76.4699 124.568C77.0565 124.301 77.6912 124.168 78.3739 124.168ZM78.2779 131.88C79.1952 131.88 79.9525 131.576 80.5499 130.968C81.1472 130.36 81.4459 129.597 81.4459 128.68C81.4459 127.763 81.1472 127 80.5499 126.392C79.9525 125.784 79.1952 125.48 78.2779 125.48C77.3605 125.48 76.5979 125.789 75.9899 126.408C75.3925 127.016 75.0939 127.773 75.0939 128.68C75.0939 129.277 75.2272 129.821 75.4939 130.312C75.7712 130.803 76.1552 131.187 76.6459 131.464C77.1365 131.741 77.6805 131.88 78.2779 131.88ZM88.7796 133.192C87.9263 133.192 87.1476 133 86.4436 132.616C85.7396 132.221 85.1903 131.683 84.7956 131C84.401 130.307 84.2036 129.533 84.2036 128.68C84.2036 127.379 84.6356 126.301 85.4996 125.448C86.3743 124.595 87.4676 124.168 88.7796 124.168C89.6436 124.168 90.4223 124.365 91.1156 124.76C91.8196 125.144 92.369 125.683 92.7636 126.376C93.169 127.059 93.3716 127.827 93.3716 128.68C93.3716 129.971 92.9343 131.048 92.0596 131.912C91.185 132.765 90.0916 133.192 88.7796 133.192ZM86.4916 130.984C87.0996 131.581 87.8623 131.88 88.7796 131.88C89.7076 131.88 90.4703 131.581 91.0676 130.984C91.6756 130.376 91.9796 129.608 91.9796 128.68C91.9796 127.752 91.6756 126.989 91.0676 126.392C90.4703 125.784 89.7076 125.48 88.7796 125.48C87.8623 125.48 87.0996 125.784 86.4916 126.392C85.8943 126.989 85.5956 127.752 85.5956 128.68C85.5956 129.608 85.8943 130.376 86.4916 130.984ZM100.991 133L98.0305 129.128H96.7985V133H95.4385V124.36H96.7985V127.864H98.0465L100.719 124.36H102.367L99.2145 128.504L102.687 133H100.991ZM110.431 124.36H111.183V133H109.903V126.824L104.863 133H104.079V124.36H105.375V130.488L110.431 124.36ZM118.126 124.36H125.454V133H124.11V125.608H119.486V133H118.126V124.36ZM132.092 133.192C131.239 133.192 130.46 133 129.756 132.616C129.052 132.221 128.503 131.683 128.108 131C127.713 130.307 127.516 129.533 127.516 128.68C127.516 127.379 127.948 126.301 128.812 125.448C129.687 124.595 130.78 124.168 132.092 124.168C132.956 124.168 133.735 124.365 134.428 124.76C135.132 125.144 135.681 125.683 136.076 126.376C136.481 127.059 136.684 127.827 136.684 128.68C136.684 129.971 136.247 131.048 135.372 131.912C134.497 132.765 133.404 133.192 132.092 133.192ZM129.804 130.984C130.412 131.581 131.175 131.88 132.092 131.88C133.02 131.88 133.783 131.581 134.38 130.984C134.988 130.376 135.292 129.608 135.292 128.68C135.292 127.752 134.988 126.989 134.38 126.392C133.783 125.784 133.02 125.48 132.092 125.48C131.175 125.48 130.412 125.784 129.804 126.392C129.207 126.989 128.908 127.752 128.908 128.68C128.908 129.608 129.207 130.376 129.804 130.984ZM145.796 131.72H146.964V135.288H145.716V133H138.756V135.288H137.508V131.72H138.436C138.692 131.485 138.889 131.155 139.028 130.728C139.166 130.291 139.289 129.629 139.396 128.744C139.513 127.848 139.652 126.387 139.812 124.36H145.796V131.72ZM141.028 125.56C140.932 126.989 140.83 128.104 140.724 128.904C140.628 129.693 140.516 130.301 140.388 130.728C140.26 131.144 140.094 131.475 139.892 131.72H144.468V125.56H141.028ZM156.174 124.36H157.262V133H156.126L155.982 131.688C155.576 132.168 155.08 132.541 154.494 132.808C153.918 133.064 153.283 133.192 152.59 133.192C151.32 133.192 150.259 132.765 149.406 131.912C148.552 131.048 148.126 129.971 148.126 128.68C148.126 127.389 148.552 126.317 149.406 125.464C150.259 124.6 151.32 124.168 152.59 124.168C153.294 124.168 153.934 124.301 154.51 124.568C155.096 124.835 155.592 125.208 155.998 125.688L156.174 124.36ZM150.414 130.968C151.022 131.576 151.784 131.88 152.702 131.88C153.619 131.88 154.376 131.576 154.974 130.968C155.571 130.36 155.87 129.597 155.87 128.68C155.87 127.763 155.571 127 154.974 126.392C154.376 125.784 153.619 125.48 152.702 125.48C151.784 125.48 151.022 125.789 150.414 126.408C149.816 127.016 149.518 127.773 149.518 128.68C149.518 129.587 149.816 130.349 150.414 130.968ZM164.753 124.36H166.065V133H164.753V129.688C164.092 129.944 163.404 130.072 162.689 130.072C161.665 130.072 160.838 129.779 160.209 129.192C159.59 128.595 159.281 127.763 159.281 126.696V124.36H160.609V126.6C160.609 127.293 160.796 127.827 161.169 128.2C161.553 128.573 162.097 128.76 162.801 128.76C163.473 128.76 164.124 128.605 164.753 128.296V124.36ZM175.15 124.36H175.902V133H174.622V126.824L169.582 133H168.798V124.36H170.094V130.488L175.15 124.36ZM190.077 131.72H191.245V135.288H189.997V133H183.037V135.288H181.789V131.72H182.717C182.973 131.485 183.17 131.155 183.309 130.728C183.447 130.291 183.57 129.629 183.677 128.744C183.794 127.848 183.933 126.387 184.093 124.36H190.077V131.72ZM185.309 125.56C185.213 126.989 185.111 128.104 185.005 128.904C184.909 129.693 184.797 130.301 184.669 130.728C184.541 131.144 184.375 131.475 184.173 131.72H188.749V125.56H185.309ZM196.983 133.192C196.129 133.192 195.351 133 194.647 132.616C193.943 132.221 193.393 131.683 192.999 131C192.604 130.307 192.407 129.533 192.407 128.68C192.407 127.379 192.839 126.301 193.703 125.448C194.577 124.595 195.671 124.168 196.983 124.168C197.847 124.168 198.625 124.365 199.319 124.76C200.023 125.144 200.572 125.683 200.967 126.376C201.372 127.059 201.575 127.827 201.575 128.68C201.575 129.971 201.137 131.048 200.263 131.912C199.388 132.765 198.295 133.192 196.983 133.192ZM194.695 130.984C195.303 131.581 196.065 131.88 196.983 131.88C197.911 131.88 198.673 131.581 199.271 130.984C199.879 130.376 200.183 129.608 200.183 128.68C200.183 127.752 199.879 126.989 199.271 126.392C198.673 125.784 197.911 125.48 196.983 125.48C196.065 125.48 195.303 125.784 194.695 126.392C194.097 126.989 193.799 127.752 193.799 128.68C193.799 129.608 194.097 130.376 194.695 130.984ZM209.194 133L206.234 129.128H205.002V133H203.642V124.36H205.002V127.864H206.25L208.922 124.36H210.57L207.418 128.504L210.89 133H209.194ZM218.586 124.36H220.042L215.93 133.352C215.61 134.056 215.296 134.6 214.986 134.984C214.677 135.368 214.33 135.645 213.946 135.816C213.562 135.997 213.093 136.088 212.538 136.088H211.722V134.856H212.426C213.002 134.856 213.434 134.739 213.722 134.504C214.01 134.269 214.33 133.789 214.682 133.064L214.986 132.408L211.146 124.36H212.634L215.706 130.904L218.586 124.36ZM231.909 133H230.597L229.365 126.584L226.309 132.824H226.005L222.965 126.584L221.733 133H220.421L222.069 124.36H223.205L226.165 130.408L229.109 124.36H230.245L231.909 133ZM241.925 128.712C241.925 128.829 241.914 128.995 241.893 129.208H234.517C234.623 130.008 234.954 130.653 235.509 131.144C236.063 131.624 236.746 131.864 237.557 131.864C238.154 131.864 238.682 131.736 239.141 131.48C239.61 131.213 239.983 130.84 240.261 130.36H241.685C241.322 131.256 240.778 131.955 240.053 132.456C239.327 132.947 238.495 133.192 237.557 133.192C236.309 133.192 235.263 132.76 234.421 131.896C233.578 131.032 233.157 129.96 233.157 128.68C233.157 127.389 233.578 126.317 234.421 125.464C235.263 124.6 236.309 124.168 237.557 124.168C238.847 124.168 239.898 124.605 240.709 125.48C241.519 126.355 241.925 127.432 241.925 128.712ZM237.557 125.464C237.045 125.464 236.575 125.565 236.149 125.768C235.733 125.971 235.386 126.264 235.109 126.648C234.831 127.021 234.645 127.453 234.549 127.944H240.549C240.453 127.443 240.266 127.005 239.989 126.632C239.711 126.248 239.365 125.96 238.949 125.768C238.533 125.565 238.069 125.464 237.557 125.464ZM249.906 124.36H251.234V133H249.906V129.176H245.282V133H243.954V124.36H245.282V127.896H249.906V124.36ZM260.641 124.36V125.592H257.425V133H256.097V125.592H252.881V124.36H260.641ZM265.889 133.192C265.036 133.192 264.257 133 263.553 132.616C262.849 132.221 262.3 131.683 261.905 131C261.51 130.307 261.313 129.533 261.313 128.68C261.313 127.379 261.745 126.301 262.609 125.448C263.484 124.595 264.577 124.168 265.889 124.168C266.753 124.168 267.532 124.365 268.225 124.76C268.929 125.144 269.478 125.683 269.873 126.376C270.278 127.059 270.481 127.827 270.481 128.68C270.481 129.971 270.044 131.048 269.169 131.912C268.294 132.765 267.201 133.192 265.889 133.192ZM263.601 130.984C264.209 131.581 264.972 131.88 265.889 131.88C266.817 131.88 267.58 131.581 268.177 130.984C268.785 130.376 269.089 129.608 269.089 128.68C269.089 127.752 268.785 126.989 268.177 126.392C267.58 125.784 266.817 125.48 265.889 125.48C264.972 125.48 264.209 125.784 263.601 126.392C263.004 126.989 262.705 127.752 262.705 128.68C262.705 129.608 263.004 130.376 263.601 130.984ZM278.1 128.52C278.537 128.68 278.884 128.947 279.14 129.32C279.407 129.693 279.54 130.115 279.54 130.584C279.54 131.277 279.284 131.853 278.772 132.312C278.271 132.771 277.641 133 276.884 133H272.548V124.36H276.836C277.551 124.36 278.132 124.568 278.58 124.984C279.028 125.389 279.252 125.912 279.252 126.552C279.252 126.84 279.204 127.112 279.108 127.368C279.012 127.624 278.879 127.853 278.708 128.056C278.537 128.248 278.335 128.403 278.1 128.52ZM277.908 126.792C277.908 126.44 277.791 126.163 277.556 125.96C277.321 125.747 277.017 125.64 276.644 125.64H273.876V127.928H276.644C277.028 127.928 277.332 127.827 277.556 127.624C277.791 127.411 277.908 127.133 277.908 126.792ZM276.724 131.72C276.991 131.72 277.231 131.667 277.444 131.56C277.668 131.443 277.839 131.288 277.956 131.096C278.073 130.904 278.132 130.691 278.132 130.456C278.132 130.211 278.073 129.992 277.956 129.8C277.839 129.597 277.668 129.443 277.444 129.336C277.231 129.229 276.985 129.176 276.708 129.176H273.876V131.72H276.724Z" fill="black"/>
<path d="M61.536 72.8H69.696V84H68.272V74.112H62.928V84H61.536V72.8ZM77.1708 75.168C78.4614 75.168 79.5228 75.5947 80.3548 76.448C81.1974 77.3013 81.6188 78.3787 81.6188 79.68C81.6188 80.9707 81.1974 82.048 80.3548 82.912C79.5228 83.7653 78.4614 84.192 77.1708 84.192C75.8694 84.192 74.7974 83.744 73.9548 82.848V87.088H72.5948V75.36H73.5228L73.7948 76.688C74.2001 76.208 74.6908 75.8347 75.2668 75.568C75.8534 75.3013 76.4881 75.168 77.1708 75.168ZM77.0748 82.88C77.9921 82.88 78.7494 82.576 79.3468 81.968C79.9441 81.36 80.2428 80.5973 80.2428 79.68C80.2428 78.7627 79.9441 78 79.3468 77.392C78.7494 76.784 77.9921 76.48 77.0748 76.48C76.1574 76.48 75.3948 76.7893 74.7868 77.408C74.1894 78.016 73.8908 78.7733 73.8908 79.68C73.8908 80.2773 74.0241 80.8213 74.2908 81.312C74.5681 81.8027 74.9521 82.1867 75.4427 82.464C75.9334 82.7413 76.4774 82.88 77.0748 82.88ZM91.0485 75.36H92.1365V84H91.0005L90.8565 82.688C90.4512 83.168 89.9552 83.5413 89.3685 83.808C88.7925 84.064 88.1578 84.192 87.4645 84.192C86.1952 84.192 85.1338 83.7653 84.2805 82.912C83.4272 82.048 83.0005 80.9707 83.0005 79.68C83.0005 78.3893 83.4272 77.3173 84.2805 76.464C85.1338 75.6 86.1952 75.168 87.4645 75.168C88.1685 75.168 88.8085 75.3013 89.3845 75.568C89.9712 75.8347 90.4672 76.208 90.8725 76.688L91.0485 75.36ZM85.2885 81.968C85.8965 82.576 86.6592 82.88 87.5765 82.88C88.4938 82.88 89.2512 82.576 89.8485 81.968C90.4458 81.36 90.7445 80.5973 90.7445 79.68C90.7445 78.7627 90.4458 78 89.8485 77.392C89.2512 76.784 88.4938 76.48 87.5765 76.48C86.6592 76.48 85.8965 76.7893 85.2885 77.408C84.6912 78.016 84.3925 78.7733 84.3925 79.68C84.3925 80.5867 84.6912 81.3493 85.2885 81.968ZM100.428 79.52C100.865 79.68 101.212 79.9467 101.468 80.32C101.735 80.6933 101.868 81.1147 101.868 81.584C101.868 82.2773 101.612 82.8533 101.1 83.312C100.599 83.7707 99.9693 84 99.212 84H94.876V75.36H99.164C99.8787 75.36 100.46 75.568 100.908 75.984C101.356 76.3893 101.58 76.912 101.58 77.552C101.58 77.84 101.532 78.112 101.436 78.368C101.34 78.624 101.207 78.8533 101.036 79.056C100.865 79.248 100.663 79.4027 100.428 79.52ZM100.236 77.792C100.236 77.44 100.119 77.1627 99.884 76.96C99.6493 76.7467 99.3453 76.64 98.972 76.64H96.204V78.928H98.972C99.356 78.928 99.66 78.8267 99.884 78.624C100.119 78.4107 100.236 78.1333 100.236 77.792ZM99.052 82.72C99.3187 82.72 99.5587 82.6667 99.772 82.56C99.996 82.4427 100.167 82.288 100.284 82.096C100.401 81.904 100.46 81.6907 100.46 81.456C100.46 81.2107 100.401 80.992 100.284 80.8C100.167 80.5973 99.996 80.4427 99.772 80.336C99.5587 80.2293 99.3133 80.176 99.036 80.176H96.204V82.72H99.052ZM110.416 75.36H111.168V84H109.888V77.824L104.848 84H104.064V75.36H105.36V81.488L110.416 75.36ZM115.395 75.36H121.059V84H119.699V76.544H116.531L116.083 80.912C115.966 82.0533 115.672 82.864 115.203 83.344C114.734 83.8133 114.03 84.048 113.091 84.048H112.851V82.768H113.155C113.646 82.768 114.019 82.6293 114.275 82.352C114.531 82.064 114.691 81.6107 114.755 80.992L115.395 75.36ZM131.158 75.36H132.246V84H131.11L130.966 82.688C130.561 83.168 130.065 83.5413 129.478 83.808C128.902 84.064 128.267 84.192 127.574 84.192C126.305 84.192 125.243 83.7653 124.39 82.912C123.537 82.048 123.11 80.9707 123.11 79.68C123.11 78.3893 123.537 77.3173 124.39 76.464C125.243 75.6 126.305 75.168 127.574 75.168C128.278 75.168 128.918 75.3013 129.494 75.568C130.081 75.8347 130.577 76.208 130.982 76.688L131.158 75.36ZM125.398 81.968C126.006 82.576 126.769 82.88 127.686 82.88C128.603 82.88 129.361 82.576 129.958 81.968C130.555 81.36 130.854 80.5973 130.854 79.68C130.854 78.7627 130.555 78 129.958 77.392C129.361 76.784 128.603 76.48 127.686 76.48C126.769 76.48 126.006 76.7893 125.398 77.408C124.801 78.016 124.502 78.7733 124.502 79.68C124.502 80.5867 124.801 81.3493 125.398 81.968ZM139.173 75.36H146.501V84H145.157V76.608H140.533V84H139.173V75.36ZM153.827 75.168C155.118 75.168 156.179 75.5947 157.011 76.448C157.854 77.3013 158.275 78.3787 158.275 79.68C158.275 80.9707 157.854 82.048 157.011 82.912C156.179 83.7653 155.118 84.192 153.827 84.192C152.526 84.192 151.454 83.744 150.611 82.848V87.088H149.251V75.36H150.179L150.451 76.688C150.856 76.208 151.347 75.8347 151.923 75.568C152.51 75.3013 153.144 75.168 153.827 75.168ZM153.731 82.88C154.648 82.88 155.406 82.576 156.003 81.968C156.6 81.36 156.899 80.5973 156.899 79.68C156.899 78.7627 156.6 78 156.003 77.392C155.406 76.784 154.648 76.48 153.731 76.48C152.814 76.48 152.051 76.7893 151.443 77.408C150.846 78.016 150.547 78.7733 150.547 79.68C150.547 80.2773 150.68 80.8213 150.947 81.312C151.224 81.8027 151.608 82.1867 152.099 82.464C152.59 82.7413 153.134 82.88 153.731 82.88ZM166.697 75.36H167.449V84H166.169V77.824L161.129 84H160.345V75.36H161.641V81.488L166.697 75.36ZM178.284 79.712C178.284 79.8293 178.273 79.9947 178.252 80.208H170.876C170.983 81.008 171.313 81.6533 171.868 82.144C172.423 82.624 173.105 82.864 173.916 82.864C174.513 82.864 175.041 82.736 175.5 82.48C175.969 82.2133 176.343 81.84 176.62 81.36H178.044C177.681 82.256 177.137 82.9547 176.412 83.456C175.687 83.9467 174.855 84.192 173.916 84.192C172.668 84.192 171.623 83.76 170.78 82.896C169.937 82.032 169.516 80.96 169.516 79.68C169.516 78.3893 169.937 77.3173 170.78 76.464C171.623 75.6 172.668 75.168 173.916 75.168C175.207 75.168 176.257 75.6053 177.068 76.48C177.879 77.3547 178.284 78.432 178.284 79.712ZM173.916 76.464C173.404 76.464 172.935 76.5653 172.508 76.768C172.092 76.9707 171.745 77.264 171.468 77.648C171.191 78.0213 171.004 78.4533 170.908 78.944H176.908C176.812 78.4427 176.625 78.0053 176.348 77.632C176.071 77.248 175.724 76.96 175.308 76.768C174.892 76.5653 174.428 76.464 173.916 76.464ZM190.987 84H189.675L188.443 77.584L185.387 83.824H185.083L182.043 77.584L180.811 84H179.499L181.147 75.36H182.283L185.243 81.408L188.187 75.36H189.323L190.987 84ZM200.283 75.36H201.371V84H200.235L200.091 82.688C199.686 83.168 199.19 83.5413 198.603 83.808C198.027 84.064 197.392 84.192 196.699 84.192C195.43 84.192 194.368 83.7653 193.515 82.912C192.662 82.048 192.235 80.9707 192.235 79.68C192.235 78.3893 192.662 77.3173 193.515 76.464C194.368 75.6 195.43 75.168 196.699 75.168C197.403 75.168 198.043 75.3013 198.619 75.568C199.206 75.8347 199.702 76.208 200.107 76.688L200.283 75.36ZM194.523 81.968C195.131 82.576 195.894 82.88 196.811 82.88C197.728 82.88 198.486 82.576 199.083 81.968C199.68 81.36 199.979 80.5973 199.979 79.68C199.979 78.7627 199.68 78 199.083 77.392C198.486 76.784 197.728 76.48 196.811 76.48C195.894 76.48 195.131 76.7893 194.523 77.408C193.926 78.016 193.627 78.7733 193.627 79.68C193.627 80.5867 193.926 81.3493 194.523 81.968Z" fill="black"/>
<path opacity="0.6" d="M65.782 169.182C64.298 169.182 63.066 168.701 62.086 167.74C61.106 166.769 60.616 165.556 60.616 164.1C60.616 162.644 61.106 161.435 62.086 160.474C63.066 159.503 64.298 159.018 65.782 159.018C67.266 159.018 68.498 159.503 69.478 160.474C70.458 161.435 70.948 162.644 70.948 164.1C70.948 165.052 70.724 165.92 70.276 166.704C69.8373 167.479 69.2213 168.085 68.428 168.524C67.644 168.963 66.762 169.182 65.782 169.182ZM63.262 166.634C63.934 167.306 64.774 167.642 65.782 167.642C66.7993 167.642 67.6393 167.306 68.302 166.634C68.974 165.953 69.31 165.108 69.31 164.1C69.31 163.092 68.974 162.252 68.302 161.58C67.6393 160.899 66.7993 160.558 65.782 160.558C64.774 160.558 63.934 160.899 63.262 161.58C62.59 162.252 62.254 163.092 62.254 164.1C62.254 165.108 62.59 165.953 63.262 166.634ZM76.7884 161.44H78.3004V169H76.7884V166.298C76.2751 166.485 75.7337 166.578 75.1644 166.578C74.2404 166.578 73.4984 166.307 72.9384 165.766C72.3784 165.225 72.0984 164.478 72.0984 163.526V161.44H73.6244V163.47C73.6244 164.011 73.7644 164.427 74.0444 164.716C74.3337 165.005 74.7491 165.15 75.2904 165.15C75.8317 165.15 76.3311 165.029 76.7884 164.786V161.44ZM85.5464 161.44H87.0724V169H85.5464V165.836H82.0464V169H80.5064V161.44H82.0464V164.408H85.5464V161.44ZM95.6117 161.44H96.8157V169H95.5557L95.4017 168.076C94.6737 168.813 93.7637 169.182 92.6717 169.182C91.5424 169.182 90.5997 168.804 89.8437 168.048C89.0971 167.292 88.7237 166.349 88.7237 165.22C88.7237 164.081 89.0971 163.139 89.8437 162.392C90.5997 161.636 91.5424 161.258 92.6717 161.258C93.7824 161.258 94.7017 161.631 95.4297 162.378L95.6117 161.44ZM91.0057 166.998C91.4817 167.465 92.0744 167.698 92.7837 167.698C93.5024 167.698 94.0904 167.465 94.5477 166.998C95.0144 166.522 95.2477 165.929 95.2477 165.22C95.2477 164.501 95.0144 163.909 94.5477 163.442C94.0904 162.975 93.5024 162.742 92.7837 162.742C92.3171 162.742 91.8924 162.849 91.5097 163.064C91.1364 163.279 90.8424 163.577 90.6277 163.96C90.4131 164.333 90.3057 164.753 90.3057 165.22C90.3057 165.929 90.5391 166.522 91.0057 166.998ZM101.146 161.44H104.758V169H103.246V166.228H101.664L100.012 169H98.3178L100.124 165.976C99.6664 165.789 99.3071 165.509 99.0458 165.136C98.7844 164.763 98.6538 164.329 98.6538 163.834C98.6538 163.153 98.8918 162.583 99.3678 162.126C99.8438 161.669 100.436 161.44 101.146 161.44ZM101.356 164.87H103.246V162.812H101.356C101.132 162.812 100.931 162.859 100.754 162.952C100.586 163.036 100.455 163.157 100.362 163.316C100.268 163.465 100.222 163.643 100.222 163.848C100.222 164.147 100.324 164.394 100.53 164.59C100.735 164.777 101.01 164.87 101.356 164.87ZM119.21 165.248C119.21 166.359 118.842 167.278 118.104 168.006C117.376 168.734 116.448 169.126 115.318 169.182V171.38H113.834V169.182C112.705 169.126 111.772 168.734 111.034 168.006C110.306 167.278 109.942 166.359 109.942 165.248C109.942 164.137 110.311 163.209 111.048 162.462C111.786 161.715 112.714 161.314 113.834 161.258V159.144H115.318V161.258C116.438 161.314 117.367 161.715 118.104 162.462C118.842 163.199 119.21 164.128 119.21 165.248ZM111.468 165.234C111.468 165.925 111.688 166.503 112.126 166.97C112.574 167.437 113.148 167.693 113.848 167.74V162.7C113.148 162.747 112.574 163.008 112.126 163.484C111.688 163.96 111.468 164.543 111.468 165.234ZM115.304 167.74C116.004 167.693 116.574 167.437 117.012 166.97C117.46 166.503 117.684 165.925 117.684 165.234C117.684 164.543 117.46 163.96 117.012 163.484C116.564 163.008 115.995 162.747 115.304 162.7V167.74ZM127.236 168.062C126.47 168.809 125.509 169.182 124.352 169.182C123.194 169.182 122.228 168.809 121.454 168.062C120.688 167.306 120.306 166.359 120.306 165.22C120.306 164.473 120.478 163.797 120.824 163.19C121.178 162.583 121.664 162.112 122.28 161.776C122.905 161.431 123.596 161.258 124.352 161.258C125.108 161.258 125.794 161.431 126.41 161.776C127.035 162.112 127.52 162.583 127.866 163.19C128.22 163.797 128.398 164.473 128.398 165.22C128.398 166.359 128.01 167.306 127.236 168.062ZM124.352 167.698C124.828 167.698 125.252 167.595 125.626 167.39C125.999 167.175 126.288 166.881 126.494 166.508C126.708 166.125 126.816 165.696 126.816 165.22C126.816 164.501 126.582 163.909 126.116 163.442C125.658 162.975 125.07 162.742 124.352 162.742C123.633 162.742 123.04 162.975 122.574 163.442C122.116 163.909 121.888 164.501 121.888 165.22C121.888 165.939 122.116 166.531 122.574 166.998C123.04 167.465 123.633 167.698 124.352 167.698ZM134.113 161.258C134.86 161.258 135.532 161.431 136.129 161.776C136.727 162.112 137.193 162.583 137.529 163.19C137.865 163.797 138.033 164.473 138.033 165.22C138.033 166.359 137.66 167.306 136.913 168.062C136.176 168.809 135.243 169.182 134.113 169.182C133.143 169.182 132.307 168.879 131.607 168.272V171.716H130.053V161.44H131.103L131.397 162.364C132.125 161.627 133.031 161.258 134.113 161.258ZM132.223 166.998C132.69 167.465 133.278 167.698 133.987 167.698C134.706 167.698 135.299 167.465 135.765 166.998C136.232 166.522 136.465 165.929 136.465 165.22C136.465 164.511 136.232 163.923 135.765 163.456C135.299 162.98 134.711 162.742 134.001 162.742C133.535 162.742 133.11 162.849 132.727 163.064C132.345 163.279 132.046 163.577 131.831 163.96C131.626 164.333 131.523 164.753 131.523 165.22C131.523 165.929 131.757 166.522 132.223 166.998ZM149.241 169H147.743L146.833 163.848L144.299 168.916H143.977L141.457 163.848L140.547 169H139.049L140.407 161.44H141.723L144.145 166.27L146.581 161.44H147.883L149.241 169ZM157.122 161.44H158.326V169H157.066L156.912 168.076C156.184 168.813 155.274 169.182 154.182 169.182C153.052 169.182 152.11 168.804 151.354 168.048C150.607 167.292 150.234 166.349 150.234 165.22C150.234 164.081 150.607 163.139 151.354 162.392C152.11 161.636 153.052 161.258 154.182 161.258C155.292 161.258 156.212 161.631 156.94 162.378L157.122 161.44ZM152.516 166.998C152.992 167.465 153.584 167.698 154.294 167.698C155.012 167.698 155.6 167.465 156.058 166.998C156.524 166.522 156.757 165.929 156.757 165.22C156.757 164.501 156.524 163.909 156.058 163.442C155.6 162.975 155.012 162.742 154.294 162.742C153.827 162.742 153.402 162.849 153.02 163.064C152.646 163.279 152.352 163.577 152.138 163.96C151.923 164.333 151.816 164.753 151.816 165.22C151.816 165.929 152.049 166.522 152.516 166.998ZM170.439 168.062C169.674 168.809 168.712 169.182 167.555 169.182C166.398 169.182 165.432 168.809 164.657 168.062C163.892 167.306 163.509 166.359 163.509 165.22C163.509 164.473 163.682 163.797 164.027 163.19C164.382 162.583 164.867 162.112 165.483 161.776C166.108 161.431 166.799 161.258 167.555 161.258C168.311 161.258 168.997 161.431 169.613 161.776C170.238 162.112 170.724 162.583 171.069 163.19C171.424 163.797 171.601 164.473 171.601 165.22C171.601 166.359 171.214 167.306 170.439 168.062ZM167.555 167.698C168.031 167.698 168.456 167.595 168.829 167.39C169.202 167.175 169.492 166.881 169.697 166.508C169.912 166.125 170.019 165.696 170.019 165.22C170.019 164.501 169.786 163.909 169.319 163.442C168.862 162.975 168.274 162.742 167.555 162.742C166.836 162.742 166.244 162.975 165.777 163.442C165.32 163.909 165.091 164.501 165.091 165.22C165.091 165.939 165.32 166.531 165.777 166.998C166.244 167.465 166.836 167.698 167.555 167.698ZM177.106 161.804C178.198 161.804 179.085 162.14 179.766 162.812C180.457 163.484 180.802 164.357 180.802 165.43C180.802 166.541 180.438 167.446 179.71 168.146C178.992 168.837 178.049 169.182 176.882 169.182C175.65 169.182 174.68 168.799 173.97 168.034C173.27 167.259 172.92 166.2 172.92 164.856C172.92 163.017 173.27 161.622 173.97 160.67C174.68 159.709 175.86 159.027 177.512 158.626L179.878 158.052V159.592L177.54 160.152C175.926 160.535 174.969 161.379 174.67 162.686C175.324 162.098 176.136 161.804 177.106 161.804ZM176.882 167.712C177.554 167.712 178.11 167.497 178.548 167.068C178.996 166.629 179.22 166.083 179.22 165.43C179.22 164.991 179.118 164.599 178.912 164.254C178.707 163.899 178.427 163.624 178.072 163.428C177.718 163.223 177.321 163.12 176.882 163.12C176.444 163.12 176.042 163.223 175.678 163.428C175.324 163.624 175.044 163.899 174.838 164.254C174.642 164.599 174.544 164.991 174.544 165.43C174.544 166.083 174.764 166.629 175.202 167.068C175.65 167.497 176.21 167.712 176.882 167.712ZM187.506 161.44H189.172L185.7 169.14C185.261 170.101 184.813 170.769 184.356 171.142C183.908 171.525 183.306 171.716 182.55 171.716H181.78V170.316H182.424C182.918 170.316 183.282 170.218 183.516 170.022C183.749 169.826 184.006 169.42 184.286 168.804L184.454 168.454L181.164 161.44H182.858L185.252 166.718L187.506 161.44ZM194.531 161.44H196.043V169H194.531V166.298C194.017 166.485 193.476 166.578 192.907 166.578C191.983 166.578 191.241 166.307 190.681 165.766C190.121 165.225 189.841 164.478 189.841 163.526V161.44H191.367V163.47C191.367 164.011 191.507 164.427 191.787 164.716C192.076 165.005 192.491 165.15 193.033 165.15C193.574 165.15 194.073 165.029 194.531 164.786V161.44ZM205.431 165.234C205.431 165.374 205.421 165.547 205.403 165.752H199.271C199.364 166.359 199.616 166.839 200.027 167.194C200.447 167.549 200.965 167.726 201.581 167.726C201.879 167.726 202.159 167.684 202.421 167.6C202.682 167.507 202.911 167.381 203.107 167.222C203.312 167.054 203.48 166.853 203.611 166.62H205.249C204.95 167.423 204.474 168.053 203.821 168.51C203.167 168.958 202.421 169.182 201.581 169.182C200.47 169.182 199.541 168.804 198.795 168.048C198.057 167.292 197.689 166.349 197.689 165.22C197.689 164.091 198.057 163.148 198.795 162.392C199.541 161.636 200.47 161.258 201.581 161.258C202.337 161.258 203.009 161.44 203.597 161.804C204.185 162.159 204.637 162.639 204.955 163.246C205.272 163.843 205.431 164.506 205.431 165.234ZM201.581 162.658C201.002 162.658 200.507 162.821 200.097 163.148C199.695 163.475 199.429 163.923 199.299 164.492H203.877C203.783 164.109 203.629 163.783 203.415 163.512C203.2 163.232 202.934 163.022 202.617 162.882C202.309 162.733 201.963 162.658 201.581 162.658ZM212.121 161.44H213.647V169H212.121V165.836H208.621V169H207.081V161.44H208.621V164.408H212.121V161.44ZM221.402 161.44H222.27V169H220.786V164.198L216.754 169H215.858V161.44H217.356V166.2L221.402 161.44ZM226.599 161.44H230.211V169H228.699V166.228H227.117L225.465 169H223.771L225.577 165.976C225.12 165.789 224.76 165.509 224.499 165.136C224.238 164.763 224.107 164.329 224.107 163.834C224.107 163.153 224.345 162.583 224.821 162.126C225.297 161.669 225.89 161.44 226.599 161.44ZM226.809 164.87H228.699V162.812H226.809C226.585 162.812 226.384 162.859 226.207 162.952C226.039 163.036 225.908 163.157 225.815 163.316C225.722 163.465 225.675 163.643 225.675 163.848C225.675 164.147 225.778 164.394 225.983 164.59C226.188 164.777 226.464 164.87 226.809 164.87ZM232.246 163.778V161.986H233.954V163.778H232.246ZM232.246 169V167.208H233.954V169H232.246Z" fill="black"/>
<g opacity="0.8">
<path d="M63.388 189.572H66.86V191H60.49V190.594C61.8807 189.073 62.884 187.939 63.5 187.192C64.1253 186.436 64.5407 185.862 64.746 185.47C64.9513 185.078 65.054 184.691 65.054 184.308C65.054 184.037 64.9933 183.799 64.872 183.594C64.76 183.389 64.5967 183.23 64.382 183.118C64.1767 182.997 63.934 182.936 63.654 182.936C63.2153 182.936 62.8607 183.067 62.59 183.328C62.3287 183.58 62.198 183.911 62.198 184.322V184.532H60.686V184.322C60.686 183.482 60.9567 182.805 61.498 182.292C62.0393 181.769 62.7533 181.508 63.64 181.508C64.508 181.508 65.2127 181.769 65.754 182.292C66.3047 182.815 66.58 183.487 66.58 184.308C66.58 184.737 66.5007 185.153 66.342 185.554C66.1927 185.955 65.8847 186.473 65.418 187.108C64.9607 187.733 64.284 188.555 63.388 189.572ZM71.8882 191.168C70.7589 191.168 69.8629 190.734 69.2002 189.866C68.5375 188.998 68.2062 187.822 68.2062 186.338C68.2062 184.854 68.5329 183.683 69.1862 182.824C69.8489 181.956 70.7495 181.522 71.8882 181.522C73.0175 181.522 73.9089 181.956 74.5622 182.824C75.2249 183.683 75.5562 184.854 75.5562 186.338C75.5562 187.822 75.2249 188.998 74.5622 189.866C73.8995 190.734 73.0082 191.168 71.8882 191.168ZM71.8882 189.74C72.5602 189.74 73.0829 189.441 73.4562 188.844C73.8389 188.247 74.0302 187.411 74.0302 186.338C74.0302 185.629 73.9415 185.022 73.7642 184.518C73.5962 184.005 73.3489 183.617 73.0222 183.356C72.7049 183.085 72.3269 182.95 71.8882 182.95C71.4402 182.95 71.0529 183.085 70.7262 183.356C70.3995 183.617 70.1522 184.005 69.9842 184.518C69.8162 185.022 69.7322 185.629 69.7322 186.338C69.7322 187.411 69.9189 188.247 70.2922 188.844C70.6749 189.441 71.2069 189.74 71.8882 189.74ZM76.8651 191V189.208H78.5731V191H76.8651ZM83.564 191.168C82.4346 191.168 81.5386 190.734 80.876 189.866C80.2133 188.998 79.882 187.822 79.882 186.338C79.882 184.854 80.2086 183.683 80.862 182.824C81.5246 181.956 82.4253 181.522 83.564 181.522C84.6933 181.522 85.5846 181.956 86.238 182.824C86.9006 183.683 87.232 184.854 87.232 186.338C87.232 187.822 86.9006 188.998 86.238 189.866C85.5753 190.734 84.684 191.168 83.564 191.168ZM83.564 189.74C84.236 189.74 84.7586 189.441 85.132 188.844C85.5146 188.247 85.706 187.411 85.706 186.338C85.706 185.629 85.6173 185.022 85.44 184.518C85.272 184.005 85.0246 183.617 84.698 183.356C84.3806 183.085 84.0026 182.95 83.564 182.95C83.116 182.95 82.7286 183.085 82.402 183.356C82.0753 183.617 81.828 184.005 81.66 184.518C81.492 185.022 81.408 185.629 81.408 186.338C81.408 187.411 81.5946 188.247 81.968 188.844C82.3506 189.441 82.8826 189.74 83.564 189.74ZM92.2713 184.882C93.1393 184.882 93.8766 185.167 94.4833 185.736C95.0993 186.296 95.4073 187.024 95.4073 187.92C95.4073 188.545 95.2626 189.105 94.9733 189.6C94.684 190.095 94.278 190.482 93.7553 190.762C93.242 191.033 92.6586 191.168 92.0053 191.168C90.9973 191.168 90.1713 190.865 89.5273 190.258C88.8926 189.651 88.5753 188.872 88.5753 187.92C88.5753 187.061 88.9113 186.049 89.5833 184.882L91.4453 181.634H93.0973C92.024 183.538 91.38 184.691 91.1653 185.092C91.5293 184.952 91.898 184.882 92.2713 184.882ZM91.9913 189.74C92.542 189.74 92.9946 189.572 93.3493 189.236C93.704 188.891 93.8813 188.452 93.8813 187.92C93.8813 187.379 93.704 186.94 93.3493 186.604C92.9946 186.259 92.542 186.086 91.9913 186.086C91.6366 186.086 91.3146 186.165 91.0253 186.324C90.736 186.483 90.5073 186.702 90.3393 186.982C90.1806 187.253 90.1013 187.565 90.1013 187.92C90.1013 188.452 90.2786 188.891 90.6333 189.236C90.9973 189.572 91.45 189.74 91.9913 189.74ZM100.258 187.836V186.324H104.752V187.836H100.258ZM113.587 191.168C112.458 191.168 111.562 190.734 110.899 189.866C110.237 188.998 109.905 187.822 109.905 186.338C109.905 184.854 110.232 183.683 110.885 182.824C111.548 181.956 112.449 181.522 113.587 181.522C114.717 181.522 115.608 181.956 116.261 182.824C116.924 183.683 117.255 184.854 117.255 186.338C117.255 187.822 116.924 188.998 116.261 189.866C115.599 190.734 114.707 191.168 113.587 191.168ZM113.587 189.74C114.259 189.74 114.782 189.441 115.155 188.844C115.538 188.247 115.729 187.411 115.729 186.338C115.729 185.629 115.641 185.022 115.463 184.518C115.295 184.005 115.048 183.617 114.721 183.356C114.404 183.085 114.026 182.95 113.587 182.95C113.139 182.95 112.752 183.085 112.425 183.356C112.099 183.617 111.851 184.005 111.683 184.518C111.515 185.022 111.431 185.629 111.431 186.338C111.431 187.411 111.618 188.247 111.991 188.844C112.374 189.441 112.906 189.74 113.587 189.74ZM124.185 186.03C124.567 186.263 124.866 186.576 125.081 186.968C125.305 187.351 125.417 187.78 125.417 188.256C125.417 189.105 125.099 189.805 124.465 190.356C123.83 190.897 123.018 191.168 122.029 191.168C121.366 191.168 120.778 191.047 120.265 190.804C119.751 190.561 119.355 190.221 119.075 189.782C118.795 189.334 118.655 188.825 118.655 188.256C118.655 187.789 118.762 187.365 118.977 186.982C119.201 186.59 119.509 186.273 119.901 186.03C119.751 185.918 119.616 185.792 119.495 185.652C119.383 185.503 119.285 185.349 119.201 185.19C119.126 185.022 119.065 184.845 119.019 184.658C118.981 184.471 118.963 184.28 118.963 184.084C118.963 183.328 119.247 182.712 119.817 182.236C120.386 181.751 121.123 181.508 122.029 181.508C122.943 181.508 123.681 181.746 124.241 182.222C124.81 182.698 125.095 183.319 125.095 184.084C125.095 184.476 125.011 184.845 124.843 185.19C124.684 185.535 124.465 185.815 124.185 186.03ZM122.029 182.782C121.562 182.782 121.179 182.908 120.881 183.16C120.591 183.403 120.447 183.715 120.447 184.098C120.447 184.49 120.591 184.812 120.881 185.064C121.179 185.316 121.562 185.442 122.029 185.442C122.495 185.442 122.873 185.316 123.163 185.064C123.461 184.812 123.611 184.49 123.611 184.098C123.611 183.846 123.545 183.622 123.415 183.426C123.284 183.221 123.097 183.062 122.855 182.95C122.612 182.838 122.337 182.782 122.029 182.782ZM122.029 189.852C122.589 189.852 123.037 189.707 123.373 189.418C123.718 189.119 123.891 188.737 123.891 188.27C123.891 187.803 123.718 187.421 123.373 187.122C123.037 186.823 122.589 186.674 122.029 186.674C121.478 186.674 121.03 186.823 120.685 187.122C120.349 187.421 120.181 187.803 120.181 188.27C120.181 188.737 120.349 189.119 120.685 189.418C121.03 189.707 121.478 189.852 122.029 189.852ZM127.014 191V189.208H128.722V191H127.014ZM133.712 191.168C132.583 191.168 131.687 190.734 131.024 189.866C130.362 188.998 130.03 187.822 130.03 186.338C130.03 184.854 130.357 183.683 131.01 182.824C131.673 181.956 132.574 181.522 133.712 181.522C134.842 181.522 135.733 181.956 136.386 182.824C137.049 183.683 137.38 184.854 137.38 186.338C137.38 187.822 137.049 188.998 136.386 189.866C135.724 190.734 134.832 191.168 133.712 191.168ZM133.712 189.74C134.384 189.74 134.907 189.441 135.28 188.844C135.663 188.247 135.854 187.411 135.854 186.338C135.854 185.629 135.766 185.022 135.588 184.518C135.42 184.005 135.173 183.617 134.846 183.356C134.529 183.085 134.151 182.95 133.712 182.95C133.264 182.95 132.877 183.085 132.55 183.356C132.224 183.617 131.976 184.005 131.808 184.518C131.64 185.022 131.556 185.629 131.556 186.338C131.556 187.411 131.743 188.247 132.116 188.844C132.499 189.441 133.031 189.74 133.712 189.74ZM144.31 186.03C144.692 186.263 144.991 186.576 145.206 186.968C145.43 187.351 145.542 187.78 145.542 188.256C145.542 189.105 145.224 189.805 144.59 190.356C143.955 190.897 143.143 191.168 142.154 191.168C141.491 191.168 140.903 191.047 140.39 190.804C139.876 190.561 139.48 190.221 139.2 189.782C138.92 189.334 138.78 188.825 138.78 188.256C138.78 187.789 138.887 187.365 139.102 186.982C139.326 186.59 139.634 186.273 140.026 186.03C139.876 185.918 139.741 185.792 139.62 185.652C139.508 185.503 139.41 185.349 139.326 185.19C139.251 185.022 139.19 184.845 139.144 184.658C139.106 184.471 139.088 184.28 139.088 184.084C139.088 183.328 139.372 182.712 139.942 182.236C140.511 181.751 141.248 181.508 142.154 181.508C143.068 181.508 143.806 181.746 144.366 182.222C144.935 182.698 145.22 183.319 145.22 184.084C145.22 184.476 145.136 184.845 144.968 185.19C144.809 185.535 144.59 185.815 144.31 186.03ZM142.154 182.782C141.687 182.782 141.304 182.908 141.006 183.16C140.716 183.403 140.572 183.715 140.572 184.098C140.572 184.49 140.716 184.812 141.006 185.064C141.304 185.316 141.687 185.442 142.154 185.442C142.62 185.442 142.998 185.316 143.288 185.064C143.586 184.812 143.736 184.49 143.736 184.098C143.736 183.846 143.67 183.622 143.54 183.426C143.409 183.221 143.222 183.062 142.98 182.95C142.737 182.838 142.462 182.782 142.154 182.782ZM142.154 189.852C142.714 189.852 143.162 189.707 143.498 189.418C143.843 189.119 144.016 188.737 144.016 188.27C144.016 187.803 143.843 187.421 143.498 187.122C143.162 186.823 142.714 186.674 142.154 186.674C141.603 186.674 141.155 186.823 140.81 187.122C140.474 187.421 140.306 187.803 140.306 188.27C140.306 188.737 140.474 189.119 140.81 189.418C141.155 189.707 141.603 189.852 142.154 189.852Z" fill="#1E4391"/>
</g>
<g opacity="0.8">
<path d="M63.388 242.572H66.86V244H60.49V243.594C61.8807 242.073 62.884 240.939 63.5 240.192C64.1253 239.436 64.5407 238.862 64.746 238.47C64.9513 238.078 65.054 237.691 65.054 237.308C65.054 237.037 64.9933 236.799 64.872 236.594C64.76 236.389 64.5967 236.23 64.382 236.118C64.1767 235.997 63.934 235.936 63.654 235.936C63.2153 235.936 62.8607 236.067 62.59 236.328C62.3287 236.58 62.198 236.911 62.198 237.322V237.532H60.686V237.322C60.686 236.482 60.9567 235.805 61.498 235.292C62.0393 234.769 62.7533 234.508 63.64 234.508C64.508 234.508 65.2127 234.769 65.754 235.292C66.3047 235.815 66.58 236.487 66.58 237.308C66.58 237.737 66.5007 238.153 66.342 238.554C66.1927 238.955 65.8847 239.473 65.418 240.108C64.9607 240.733 64.284 241.555 63.388 242.572ZM71.8882 244.168C70.7589 244.168 69.8629 243.734 69.2002 242.866C68.5375 241.998 68.2062 240.822 68.2062 239.338C68.2062 237.854 68.5329 236.683 69.1862 235.824C69.8489 234.956 70.7495 234.522 71.8882 234.522C73.0175 234.522 73.9089 234.956 74.5622 235.824C75.2249 236.683 75.5562 237.854 75.5562 239.338C75.5562 240.822 75.2249 241.998 74.5622 242.866C73.8995 243.734 73.0082 244.168 71.8882 244.168ZM71.8882 242.74C72.5602 242.74 73.0829 242.441 73.4562 241.844C73.8389 241.247 74.0302 240.411 74.0302 239.338C74.0302 238.629 73.9415 238.022 73.7642 237.518C73.5962 237.005 73.3489 236.617 73.0222 236.356C72.7049 236.085 72.3269 235.95 71.8882 235.95C71.4402 235.95 71.0529 236.085 70.7262 236.356C70.3995 236.617 70.1522 237.005 69.9842 237.518C69.8162 238.022 69.7322 238.629 69.7322 239.338C69.7322 240.411 69.9189 241.247 70.2922 241.844C70.6749 242.441 71.2069 242.74 71.8882 242.74ZM76.8651 244V242.208H78.5731V244H76.8651ZM83.564 244.168C82.4346 244.168 81.5386 243.734 80.876 242.866C80.2133 241.998 79.882 240.822 79.882 239.338C79.882 237.854 80.2086 236.683 80.862 235.824C81.5246 234.956 82.4253 234.522 83.564 234.522C84.6933 234.522 85.5846 234.956 86.238 235.824C86.9006 236.683 87.232 237.854 87.232 239.338C87.232 240.822 86.9006 241.998 86.238 242.866C85.5753 243.734 84.684 244.168 83.564 244.168ZM83.564 242.74C84.236 242.74 84.7586 242.441 85.132 241.844C85.5146 241.247 85.706 240.411 85.706 239.338C85.706 238.629 85.6173 238.022 85.44 237.518C85.272 237.005 85.0246 236.617 84.698 236.356C84.3806 236.085 84.0026 235.95 83.564 235.95C83.116 235.95 82.7286 236.085 82.402 236.356C82.0753 236.617 81.828 237.005 81.66 237.518C81.492 238.022 81.408 238.629 81.408 239.338C81.408 240.411 81.5946 241.247 81.968 241.844C82.3506 242.441 82.8826 242.74 83.564 242.74ZM92.2713 237.882C93.1393 237.882 93.8766 238.167 94.4833 238.736C95.0993 239.296 95.4073 240.024 95.4073 240.92C95.4073 241.545 95.2626 242.105 94.9733 242.6C94.684 243.095 94.278 243.482 93.7553 243.762C93.242 244.033 92.6586 244.168 92.0053 244.168C90.9973 244.168 90.1713 243.865 89.5273 243.258C88.8926 242.651 88.5753 241.872 88.5753 240.92C88.5753 240.061 88.9113 239.049 89.5833 237.882L91.4453 234.634H93.0973C92.024 236.538 91.38 237.691 91.1653 238.092C91.5293 237.952 91.898 237.882 92.2713 237.882ZM91.9913 242.74C92.542 242.74 92.9946 242.572 93.3493 242.236C93.704 241.891 93.8813 241.452 93.8813 240.92C93.8813 240.379 93.704 239.94 93.3493 239.604C92.9946 239.259 92.542 239.086 91.9913 239.086C91.6366 239.086 91.3146 239.165 91.0253 239.324C90.736 239.483 90.5073 239.702 90.3393 239.982C90.1806 240.253 90.1013 240.565 90.1013 240.92C90.1013 241.452 90.2786 241.891 90.6333 242.236C90.9973 242.572 91.45 242.74 91.9913 242.74ZM100.258 240.836V239.324H104.752V240.836H100.258ZM113.587 244.168C112.458 244.168 111.562 243.734 110.899 242.866C110.237 241.998 109.905 240.822 109.905 239.338C109.905 237.854 110.232 236.683 110.885 235.824C111.548 234.956 112.449 234.522 113.587 234.522C114.717 234.522 115.608 234.956 116.261 235.824C116.924 236.683 117.255 237.854 117.255 239.338C117.255 240.822 116.924 241.998 116.261 242.866C115.599 243.734 114.707 244.168 113.587 244.168ZM113.587 242.74C114.259 242.74 114.782 242.441 115.155 241.844C115.538 241.247 115.729 240.411 115.729 239.338C115.729 238.629 115.641 238.022 115.463 237.518C115.295 237.005 115.048 236.617 114.721 236.356C114.404 236.085 114.026 235.95 113.587 235.95C113.139 235.95 112.752 236.085 112.425 236.356C112.099 236.617 111.851 237.005 111.683 237.518C111.515 238.022 111.431 238.629 111.431 239.338C111.431 240.411 111.618 241.247 111.991 241.844C112.374 242.441 112.906 242.74 113.587 242.74ZM124.185 239.03C124.567 239.263 124.866 239.576 125.081 239.968C125.305 240.351 125.417 240.78 125.417 241.256C125.417 242.105 125.099 242.805 124.465 243.356C123.83 243.897 123.018 244.168 122.029 244.168C121.366 244.168 120.778 244.047 120.265 243.804C119.751 243.561 119.355 243.221 119.075 242.782C118.795 242.334 118.655 241.825 118.655 241.256C118.655 240.789 118.762 240.365 118.977 239.982C119.201 239.59 119.509 239.273 119.901 239.03C119.751 238.918 119.616 238.792 119.495 238.652C119.383 238.503 119.285 238.349 119.201 238.19C119.126 238.022 119.065 237.845 119.019 237.658C118.981 237.471 118.963 237.28 118.963 237.084C118.963 236.328 119.247 235.712 119.817 235.236C120.386 234.751 121.123 234.508 122.029 234.508C122.943 234.508 123.681 234.746 124.241 235.222C124.81 235.698 125.095 236.319 125.095 237.084C125.095 237.476 125.011 237.845 124.843 238.19C124.684 238.535 124.465 238.815 124.185 239.03ZM122.029 235.782C121.562 235.782 121.179 235.908 120.881 236.16C120.591 236.403 120.447 236.715 120.447 237.098C120.447 237.49 120.591 237.812 120.881 238.064C121.179 238.316 121.562 238.442 122.029 238.442C122.495 238.442 122.873 238.316 123.163 238.064C123.461 237.812 123.611 237.49 123.611 237.098C123.611 236.846 123.545 236.622 123.415 236.426C123.284 236.221 123.097 236.062 122.855 235.95C122.612 235.838 122.337 235.782 122.029 235.782ZM122.029 242.852C122.589 242.852 123.037 242.707 123.373 242.418C123.718 242.119 123.891 241.737 123.891 241.27C123.891 240.803 123.718 240.421 123.373 240.122C123.037 239.823 122.589 239.674 122.029 239.674C121.478 239.674 121.03 239.823 120.685 240.122C120.349 240.421 120.181 240.803 120.181 241.27C120.181 241.737 120.349 242.119 120.685 242.418C121.03 242.707 121.478 242.852 122.029 242.852ZM127.014 244V242.208H128.722V244H127.014ZM133.712 244.168C132.583 244.168 131.687 243.734 131.024 242.866C130.362 241.998 130.03 240.822 130.03 239.338C130.03 237.854 130.357 236.683 131.01 235.824C131.673 234.956 132.574 234.522 133.712 234.522C134.842 234.522 135.733 234.956 136.386 235.824C137.049 236.683 137.38 237.854 137.38 239.338C137.38 240.822 137.049 241.998 136.386 242.866C135.724 243.734 134.832 244.168 133.712 244.168ZM133.712 242.74C134.384 242.74 134.907 242.441 135.28 241.844C135.663 241.247 135.854 240.411 135.854 239.338C135.854 238.629 135.766 238.022 135.588 237.518C135.42 237.005 135.173 236.617 134.846 236.356C134.529 236.085 134.151 235.95 133.712 235.95C133.264 235.95 132.877 236.085 132.55 236.356C132.224 236.617 131.976 237.005 131.808 237.518C131.64 238.022 131.556 238.629 131.556 239.338C131.556 240.411 131.743 241.247 132.116 241.844C132.499 242.441 133.031 242.74 133.712 242.74ZM144.31 239.03C144.692 239.263 144.991 239.576 145.206 239.968C145.43 240.351 145.542 240.78 145.542 241.256C145.542 242.105 145.224 242.805 144.59 243.356C143.955 243.897 143.143 244.168 142.154 244.168C141.491 244.168 140.903 244.047 140.39 243.804C139.876 243.561 139.48 243.221 139.2 242.782C138.92 242.334 138.78 241.825 138.78 241.256C138.78 240.789 138.887 240.365 139.102 239.982C139.326 239.59 139.634 239.273 140.026 239.03C139.876 238.918 139.741 238.792 139.62 238.652C139.508 238.503 139.41 238.349 139.326 238.19C139.251 238.022 139.19 237.845 139.144 237.658C139.106 237.471 139.088 237.28 139.088 237.084C139.088 236.328 139.372 235.712 139.942 235.236C140.511 234.751 141.248 234.508 142.154 234.508C143.068 234.508 143.806 234.746 144.366 235.222C144.935 235.698 145.22 236.319 145.22 237.084C145.22 237.476 145.136 237.845 144.968 238.19C144.809 238.535 144.59 238.815 144.31 239.03ZM142.154 235.782C141.687 235.782 141.304 235.908 141.006 236.16C140.716 236.403 140.572 236.715 140.572 237.098C140.572 237.49 140.716 237.812 141.006 238.064C141.304 238.316 141.687 238.442 142.154 238.442C142.62 238.442 142.998 238.316 143.288 238.064C143.586 237.812 143.736 237.49 143.736 237.098C143.736 236.846 143.67 236.622 143.54 236.426C143.409 236.221 143.222 236.062 142.98 235.95C142.737 235.838 142.462 235.782 142.154 235.782ZM142.154 242.852C142.714 242.852 143.162 242.707 143.498 242.418C143.843 242.119 144.016 241.737 144.016 241.27C144.016 240.803 143.843 240.421 143.498 240.122C143.162 239.823 142.714 239.674 142.154 239.674C141.603 239.674 141.155 239.823 140.81 240.122C140.474 240.421 140.306 240.803 140.306 241.27C140.306 241.737 140.474 242.119 140.81 242.418C141.155 242.707 141.603 242.852 142.154 242.852Z" fill="#1E4391"/>
</g>
<path opacity="0.6" d="M65.782 222.182C64.298 222.182 63.066 221.701 62.086 220.74C61.106 219.769 60.616 218.556 60.616 217.1C60.616 215.644 61.106 214.435 62.086 213.474C63.066 212.503 64.298 212.018 65.782 212.018C67.266 212.018 68.498 212.503 69.478 213.474C70.458 214.435 70.948 215.644 70.948 217.1C70.948 218.052 70.724 218.92 70.276 219.704C69.8373 220.479 69.2213 221.085 68.428 221.524C67.644 221.963 66.762 222.182 65.782 222.182ZM63.262 219.634C63.934 220.306 64.774 220.642 65.782 220.642C66.7993 220.642 67.6393 220.306 68.302 219.634C68.974 218.953 69.31 218.108 69.31 217.1C69.31 216.092 68.974 215.252 68.302 214.58C67.6393 213.899 66.7993 213.558 65.782 213.558C64.774 213.558 63.934 213.899 63.262 214.58C62.59 215.252 62.254 216.092 62.254 217.1C62.254 218.108 62.59 218.953 63.262 219.634ZM76.7884 214.44H78.3004V222H76.7884V219.298C76.2751 219.485 75.7337 219.578 75.1644 219.578C74.2404 219.578 73.4984 219.307 72.9384 218.766C72.3784 218.225 72.0984 217.478 72.0984 216.526V214.44H73.6244V216.47C73.6244 217.011 73.7644 217.427 74.0444 217.716C74.3337 218.005 74.7491 218.15 75.2904 218.15C75.8317 218.15 76.3311 218.029 76.7884 217.786V214.44ZM85.5464 214.44H87.0724V222H85.5464V218.836H82.0464V222H80.5064V214.44H82.0464V217.408H85.5464V214.44ZM95.6537 221.062C94.8884 221.809 93.9271 222.182 92.7697 222.182C91.6124 222.182 90.6464 221.809 89.8717 221.062C89.1064 220.306 88.7237 219.359 88.7237 218.22C88.7237 217.473 88.8964 216.797 89.2417 216.19C89.5964 215.583 90.0817 215.112 90.6977 214.776C91.3231 214.431 92.0137 214.258 92.7697 214.258C93.5257 214.258 94.2117 214.431 94.8277 214.776C95.4531 215.112 95.9384 215.583 96.2837 216.19C96.6384 216.797 96.8157 217.473 96.8157 218.22C96.8157 219.359 96.4284 220.306 95.6537 221.062ZM92.7697 220.698C93.2457 220.698 93.6704 220.595 94.0437 220.39C94.4171 220.175 94.7064 219.881 94.9117 219.508C95.1264 219.125 95.2337 218.696 95.2337 218.22C95.2337 217.501 95.0004 216.909 94.5337 216.442C94.0764 215.975 93.4884 215.742 92.7697 215.742C92.0511 215.742 91.4584 215.975 90.9917 216.442C90.5344 216.909 90.3057 217.501 90.3057 218.22C90.3057 218.939 90.5344 219.531 90.9917 219.998C91.4584 220.465 92.0511 220.698 92.7697 220.698ZM98.2892 218.836V217.324H102.783V218.836H98.2892ZM108.879 217.982C109.542 218.374 109.873 218.985 109.873 219.816C109.873 220.516 109.593 221.085 109.033 221.524C108.473 221.963 107.754 222.182 106.877 222.182C106.028 222.182 105.332 221.963 104.791 221.524C104.259 221.076 103.97 220.479 103.923 219.732H105.337C105.393 220.059 105.556 220.315 105.827 220.502C106.098 220.689 106.448 220.782 106.877 220.782C107.316 220.782 107.67 220.684 107.941 220.488C108.212 220.283 108.347 220.021 108.347 219.704C108.347 219.396 108.226 219.144 107.983 218.948C107.75 218.752 107.437 218.654 107.045 218.654H106.065V217.45H107.045C107.4 217.45 107.68 217.371 107.885 217.212C108.09 217.044 108.193 216.82 108.193 216.54C108.193 216.241 108.072 216.003 107.829 215.826C107.586 215.649 107.264 215.56 106.863 215.56C106.499 215.56 106.196 215.644 105.953 215.812C105.72 215.98 105.58 216.213 105.533 216.512H104.119C104.156 215.84 104.432 215.299 104.945 214.888C105.468 214.468 106.121 214.258 106.905 214.258C107.708 214.258 108.366 214.463 108.879 214.874C109.402 215.285 109.663 215.803 109.663 216.428C109.663 217.1 109.402 217.618 108.879 217.982ZM117.897 214.44H119.101V222H117.841L117.687 221.076C116.959 221.813 116.049 222.182 114.957 222.182C113.828 222.182 112.885 221.804 112.129 221.048C111.382 220.292 111.009 219.349 111.009 218.22C111.009 217.081 111.382 216.139 112.129 215.392C112.885 214.636 113.828 214.258 114.957 214.258C116.068 214.258 116.987 214.631 117.715 215.378L117.897 214.44ZM113.291 219.998C113.767 220.465 114.36 220.698 115.069 220.698C115.788 220.698 116.376 220.465 116.833 219.998C117.3 219.522 117.533 218.929 117.533 218.22C117.533 217.501 117.3 216.909 116.833 216.442C116.376 215.975 115.788 215.742 115.069 215.742C114.602 215.742 114.178 215.849 113.795 216.064C113.422 216.279 113.128 216.577 112.913 216.96C112.698 217.333 112.591 217.753 112.591 218.22C112.591 218.929 112.824 219.522 113.291 219.998ZM127.687 221.062C126.922 221.809 125.96 222.182 124.803 222.182C123.646 222.182 122.68 221.809 121.905 221.062C121.14 220.306 120.757 219.359 120.757 218.22C120.757 217.473 120.93 216.797 121.275 216.19C121.63 215.583 122.115 215.112 122.731 214.776C123.356 214.431 124.047 214.258 124.803 214.258C125.559 214.258 126.245 214.431 126.861 214.776C127.486 215.112 127.972 215.583 128.317 216.19C128.672 216.797 128.849 217.473 128.849 218.22C128.849 219.359 128.462 220.306 127.687 221.062ZM124.803 220.698C125.279 220.698 125.704 220.595 126.077 220.39C126.45 220.175 126.74 219.881 126.945 219.508C127.16 219.125 127.267 218.696 127.267 218.22C127.267 217.501 127.034 216.909 126.567 216.442C126.11 215.975 125.522 215.742 124.803 215.742C124.084 215.742 123.492 215.975 123.025 216.442C122.568 216.909 122.339 217.501 122.339 218.22C122.339 218.939 122.568 219.531 123.025 219.998C123.492 220.465 124.084 220.698 124.803 220.698ZM134.62 214.44H136.132V222H134.62V219.298C134.107 219.485 133.566 219.578 132.996 219.578C132.072 219.578 131.33 219.307 130.77 218.766C130.21 218.225 129.93 217.478 129.93 216.526V214.44H131.456V216.47C131.456 217.011 131.596 217.427 131.876 217.716C132.166 218.005 132.581 218.15 133.122 218.15C133.664 218.15 134.163 218.029 134.62 217.786V214.44ZM143.378 214.44H144.904V222H143.378V218.836H139.878V222H138.338V214.44H139.878V217.408H143.378V214.44ZM153.444 214.44H154.648V222H153.388L153.234 221.076C152.506 221.813 151.596 222.182 150.504 222.182C149.374 222.182 148.432 221.804 147.676 221.048C146.929 220.292 146.556 219.349 146.556 218.22C146.556 217.081 146.929 216.139 147.676 215.392C148.432 214.636 149.374 214.258 150.504 214.258C151.614 214.258 152.534 214.631 153.262 215.378L153.444 214.44ZM148.838 219.998C149.314 220.465 149.906 220.698 150.616 220.698C151.334 220.698 151.922 220.465 152.38 219.998C152.846 219.522 153.08 218.929 153.08 218.22C153.08 217.501 152.846 216.909 152.38 216.442C151.922 215.975 151.334 215.742 150.616 215.742C150.149 215.742 149.724 215.849 149.342 216.064C148.968 216.279 148.674 216.577 148.46 216.96C148.245 217.333 148.138 217.753 148.138 218.22C148.138 218.929 148.371 219.522 148.838 219.998ZM158.978 214.44H162.59V222H161.078V219.228H159.496L157.844 222H156.15L157.956 218.976C157.498 218.789 157.139 218.509 156.878 218.136C156.616 217.763 156.486 217.329 156.486 216.834C156.486 216.153 156.724 215.583 157.2 215.126C157.676 214.669 158.268 214.44 158.978 214.44ZM159.188 217.87H161.078V215.812H159.188C158.964 215.812 158.763 215.859 158.586 215.952C158.418 216.036 158.287 216.157 158.194 216.316C158.1 216.465 158.054 216.643 158.054 216.848C158.054 217.147 158.156 217.394 158.362 217.59C158.567 217.777 158.842 217.87 159.188 217.87ZM177.043 218.248C177.043 219.359 176.674 220.278 175.937 221.006C175.209 221.734 174.28 222.126 173.151 222.182V224.38H171.667V222.182C170.537 222.126 169.604 221.734 168.867 221.006C168.139 220.278 167.775 219.359 167.775 218.248C167.775 217.137 168.143 216.209 168.881 215.462C169.618 214.715 170.547 214.314 171.667 214.258V212.144H173.151V214.258C174.271 214.314 175.199 214.715 175.937 215.462C176.674 216.199 177.043 217.128 177.043 218.248ZM169.301 218.234C169.301 218.925 169.52 219.503 169.959 219.97C170.407 220.437 170.981 220.693 171.681 220.74V215.7C170.981 215.747 170.407 216.008 169.959 216.484C169.52 216.96 169.301 217.543 169.301 218.234ZM173.137 220.74C173.837 220.693 174.406 220.437 174.845 219.97C175.293 219.503 175.517 218.925 175.517 218.234C175.517 217.543 175.293 216.96 174.845 216.484C174.397 216.008 173.827 215.747 173.137 215.7V220.74ZM185.068 221.062C184.302 221.809 183.341 222.182 182.184 222.182C181.026 222.182 180.06 221.809 179.286 221.062C178.52 220.306 178.138 219.359 178.138 218.22C178.138 217.473 178.31 216.797 178.656 216.19C179.01 215.583 179.496 215.112 180.112 214.776C180.737 214.431 181.428 214.258 182.184 214.258C182.94 214.258 183.626 214.431 184.242 214.776C184.867 215.112 185.352 215.583 185.698 216.19C186.052 216.797 186.23 217.473 186.23 218.22C186.23 219.359 185.842 220.306 185.068 221.062ZM182.184 220.698C182.66 220.698 183.084 220.595 183.458 220.39C183.831 220.175 184.12 219.881 184.326 219.508C184.54 219.125 184.648 218.696 184.648 218.22C184.648 217.501 184.414 216.909 183.948 216.442C183.49 215.975 182.902 215.742 182.184 215.742C181.465 215.742 180.872 215.975 180.406 216.442C179.948 216.909 179.72 217.501 179.72 218.22C179.72 218.939 179.948 219.531 180.406 219.998C180.872 220.465 181.465 220.698 182.184 220.698ZM191.945 214.258C192.692 214.258 193.364 214.431 193.961 214.776C194.559 215.112 195.025 215.583 195.361 216.19C195.697 216.797 195.865 217.473 195.865 218.22C195.865 219.359 195.492 220.306 194.745 221.062C194.008 221.809 193.075 222.182 191.945 222.182C190.975 222.182 190.139 221.879 189.439 221.272V224.716H187.885V214.44H188.935L189.229 215.364C189.957 214.627 190.863 214.258 191.945 214.258ZM190.055 219.998C190.522 220.465 191.11 220.698 191.819 220.698C192.538 220.698 193.131 220.465 193.597 219.998C194.064 219.522 194.297 218.929 194.297 218.22C194.297 217.511 194.064 216.923 193.597 216.456C193.131 215.98 192.543 215.742 191.833 215.742C191.367 215.742 190.942 215.849 190.559 216.064C190.177 216.279 189.878 216.577 189.663 216.96C189.458 217.333 189.355 217.753 189.355 218.22C189.355 218.929 189.589 219.522 190.055 219.998ZM207.073 222H205.575L204.665 216.848L202.131 221.916H201.809L199.289 216.848L198.379 222H196.881L198.239 214.44H199.555L201.977 219.27L204.413 214.44H205.715L207.073 222ZM214.954 214.44H216.158V222H214.898L214.744 221.076C214.016 221.813 213.106 222.182 212.014 222.182C210.884 222.182 209.942 221.804 209.186 221.048C208.439 220.292 208.066 219.349 208.066 218.22C208.066 217.081 208.439 216.139 209.186 215.392C209.942 214.636 210.884 214.258 212.014 214.258C213.124 214.258 214.044 214.631 214.772 215.378L214.954 214.44ZM210.348 219.998C210.824 220.465 211.416 220.698 212.126 220.698C212.844 220.698 213.432 220.465 213.89 219.998C214.356 219.522 214.59 218.929 214.59 218.22C214.59 217.501 214.356 216.909 213.89 216.442C213.432 215.975 212.844 215.742 212.126 215.742C211.659 215.742 211.234 215.849 210.852 216.064C210.478 216.279 210.184 216.577 209.97 216.96C209.755 217.333 209.648 217.753 209.648 218.22C209.648 218.929 209.881 219.522 210.348 219.998ZM228.271 221.062C227.506 221.809 226.544 222.182 225.387 222.182C224.23 222.182 223.264 221.809 222.489 221.062C221.724 220.306 221.341 219.359 221.341 218.22C221.341 217.473 221.514 216.797 221.859 216.19C222.214 215.583 222.699 215.112 223.315 214.776C223.94 214.431 224.631 214.258 225.387 214.258C226.143 214.258 226.829 214.431 227.445 214.776C228.07 215.112 228.556 215.583 228.901 216.19C229.256 216.797 229.433 217.473 229.433 218.22C229.433 219.359 229.046 220.306 228.271 221.062ZM225.387 220.698C225.863 220.698 226.288 220.595 226.661 220.39C227.034 220.175 227.324 219.881 227.529 219.508C227.744 219.125 227.851 218.696 227.851 218.22C227.851 217.501 227.618 216.909 227.151 216.442C226.694 215.975 226.106 215.742 225.387 215.742C224.668 215.742 224.076 215.975 223.609 216.442C223.152 216.909 222.923 217.501 222.923 218.22C222.923 218.939 223.152 219.531 223.609 219.998C224.076 220.465 224.668 220.698 225.387 220.698ZM234.938 214.804C236.03 214.804 236.917 215.14 237.598 215.812C238.289 216.484 238.634 217.357 238.634 218.43C238.634 219.541 238.27 220.446 237.542 221.146C236.824 221.837 235.881 222.182 234.714 222.182C233.482 222.182 232.512 221.799 231.802 221.034C231.102 220.259 230.752 219.2 230.752 217.856C230.752 216.017 231.102 214.622 231.802 213.67C232.512 212.709 233.692 212.027 235.344 211.626L237.71 211.052V212.592L235.372 213.152C233.758 213.535 232.801 214.379 232.502 215.686C233.156 215.098 233.968 214.804 234.938 214.804ZM234.714 220.712C235.386 220.712 235.942 220.497 236.38 220.068C236.828 219.629 237.052 219.083 237.052 218.43C237.052 217.991 236.95 217.599 236.744 217.254C236.539 216.899 236.259 216.624 235.904 216.428C235.55 216.223 235.153 216.12 234.714 216.12C234.276 216.12 233.874 216.223 233.51 216.428C233.156 216.624 232.876 216.899 232.67 217.254C232.474 217.599 232.376 217.991 232.376 218.43C232.376 219.083 232.596 219.629 233.034 220.068C233.482 220.497 234.042 220.712 234.714 220.712ZM245.338 214.44H247.004L243.532 222.14C243.093 223.101 242.645 223.769 242.188 224.142C241.74 224.525 241.138 224.716 240.382 224.716H239.612V223.316H240.256C240.75 223.316 241.114 223.218 241.348 223.022C241.581 222.826 241.838 222.42 242.118 221.804L242.286 221.454L238.996 214.44H240.69L243.084 219.718L245.338 214.44ZM252.363 214.44H253.875V222H252.363V219.298C251.849 219.485 251.308 219.578 250.739 219.578C249.815 219.578 249.073 219.307 248.513 218.766C247.953 218.225 247.673 217.478 247.673 216.526V214.44H249.199V216.47C249.199 217.011 249.339 217.427 249.619 217.716C249.908 218.005 250.323 218.15 250.865 218.15C251.406 218.15 251.905 218.029 252.363 217.786V214.44ZM263.263 218.234C263.263 218.374 263.253 218.547 263.235 218.752H257.103C257.196 219.359 257.448 219.839 257.859 220.194C258.279 220.549 258.797 220.726 259.413 220.726C259.711 220.726 259.991 220.684 260.253 220.6C260.514 220.507 260.743 220.381 260.939 220.222C261.144 220.054 261.312 219.853 261.443 219.62H263.081C262.782 220.423 262.306 221.053 261.653 221.51C260.999 221.958 260.253 222.182 259.413 222.182C258.302 222.182 257.373 221.804 256.627 221.048C255.889 220.292 255.521 219.349 255.521 218.22C255.521 217.091 255.889 216.148 256.627 215.392C257.373 214.636 258.302 214.258 259.413 214.258C260.169 214.258 260.841 214.44 261.429 214.804C262.017 215.159 262.469 215.639 262.787 216.246C263.104 216.843 263.263 217.506 263.263 218.234ZM259.413 215.658C258.834 215.658 258.339 215.821 257.929 216.148C257.527 216.475 257.261 216.923 257.131 217.492H261.709C261.615 217.109 261.461 216.783 261.247 216.512C261.032 216.232 260.766 216.022 260.449 215.882C260.141 215.733 259.795 215.658 259.413 215.658ZM269.953 214.44H271.479V222H269.953V218.836H266.453V222H264.913V214.44H266.453V217.408H269.953V214.44ZM279.234 214.44H280.102V222H278.618V217.198L274.586 222H273.69V214.44H275.188V219.2L279.234 214.44ZM284.431 214.44H288.043V222H286.531V219.228H284.949L283.297 222H281.603L283.409 218.976C282.952 218.789 282.592 218.509 282.331 218.136C282.07 217.763 281.939 217.329 281.939 216.834C281.939 216.153 282.177 215.583 282.653 215.126C283.129 214.669 283.722 214.44 284.431 214.44ZM284.641 217.87H286.531V215.812H284.641C284.417 215.812 284.216 215.859 284.039 215.952C283.871 216.036 283.74 216.157 283.647 216.316C283.554 216.465 283.507 216.643 283.507 216.848C283.507 217.147 283.61 217.394 283.815 217.59C284.02 217.777 284.296 217.87 284.641 217.87ZM290.078 216.778V214.986H291.786V216.778H290.078ZM290.078 222V220.208H291.786V222H290.078Z" fill="black"/>
<rect width="40" height="40" rx="20" fill="#1E4391"/>
<path d="M17.0827 12.04H22.4587V28H19.8907V14.368H17.0827V12.04Z" fill="white"/>
<circle cx="20" cy="79" r="6" fill="white" stroke="#1E4391" stroke-width="2"/>
<circle cx="20" cy="128" r="6" fill="white" stroke="#1E4391" stroke-width="2"/>
<path d="M20 72V40" stroke="#1E4391" stroke-width="2"/>
<path d="M20 121V86" stroke="#1E4391" stroke-width="2"/>
</svg>
