<svg width="368" height="252" viewBox="0 0 368 252" fill="none" xmlns="http://www.w3.org/2000/svg">
<path d="M62.602 4.4H72.052V17H69.964V6.326H64.672V17H62.602V4.4ZM80.2631 7.046C81.2231 7.046 82.0871 7.268 82.8551 7.712C83.6231 8.144 84.2231 8.75 84.6551 9.53C85.0871 10.31 85.3031 11.18 85.3031 12.14C85.3031 13.604 84.8231 14.822 83.8631 15.794C82.9151 16.754 81.7151 17.234 80.2631 17.234C79.0151 17.234 77.9411 16.844 77.0411 16.064V20.492H75.0431V7.28H76.3931L76.7711 8.468C77.7071 7.52 78.8711 7.046 80.2631 7.046ZM77.8331 14.426C78.4331 15.026 79.1891 15.326 80.1011 15.326C81.0251 15.326 81.7871 15.026 82.3871 14.426C82.9871 13.814 83.2871 13.052 83.2871 12.14C83.2871 11.228 82.9871 10.472 82.3871 9.872C81.7871 9.26 81.0311 8.954 80.1191 8.954C79.5191 8.954 78.9731 9.092 78.4811 9.368C77.9891 9.644 77.6051 10.028 77.3291 10.52C77.0651 11 76.9331 11.54 76.9331 12.14C76.9331 13.052 77.2331 13.814 77.8331 14.426ZM95.6433 15.794C94.6593 16.754 93.4233 17.234 91.9353 17.234C90.4473 17.234 89.2053 16.754 88.2093 15.794C87.2253 14.822 86.7333 13.604 86.7333 12.14C86.7333 11.18 86.9553 10.31 87.3993 9.53C87.8553 8.75 88.4793 8.144 89.2713 7.712C90.0753 7.268 90.9633 7.046 91.9353 7.046C92.9073 7.046 93.7893 7.268 94.5813 7.712C95.3853 8.144 96.0093 8.75 96.4533 9.53C96.9093 10.31 97.1373 11.18 97.1373 12.14C97.1373 13.604 96.6393 14.822 95.6433 15.794ZM91.9353 15.326C92.5473 15.326 93.0933 15.194 93.5733 14.93C94.0533 14.654 94.4253 14.276 94.6893 13.796C94.9653 13.304 95.1033 12.752 95.1033 12.14C95.1033 11.216 94.8033 10.454 94.2033 9.854C93.6153 9.254 92.8593 8.954 91.9353 8.954C91.0113 8.954 90.2493 9.254 89.6493 9.854C89.0613 10.454 88.7673 11.216 88.7673 12.14C88.7673 13.064 89.0613 13.826 89.6493 14.426C90.2493 15.026 91.0113 15.326 91.9353 15.326ZM105.872 4.076V5.57H101.048V4.076H105.872ZM106.394 7.28H107.51V17H105.602V10.826L100.418 17H99.2658V7.28H101.192V13.4L106.394 7.28ZM118.8 15.11H120.06V19.448H118.242V17H111.15V19.448H109.332V15.11H110.358C110.634 14.882 110.844 14.534 110.988 14.066C111.144 13.598 111.282 12.89 111.402 11.942C111.522 10.982 111.678 9.428 111.87 7.28H118.8V15.11ZM113.634 9.044C113.502 11 113.352 12.404 113.184 13.256C113.016 14.108 112.77 14.726 112.446 15.11H116.838V9.044H113.634ZM129.333 7.28H130.449V17H128.541V10.826L123.357 17H122.205V7.28H124.131V13.4L129.333 7.28ZM140.983 7.28V9.08H137.563V17H135.619V9.08H132.181V7.28H140.983ZM151.689 12.158C151.689 12.338 151.677 12.56 151.653 12.824H143.769C143.889 13.604 144.213 14.222 144.741 14.678C145.281 15.134 145.947 15.362 146.739 15.362C147.123 15.362 147.483 15.308 147.819 15.2C148.155 15.08 148.449 14.918 148.701 14.714C148.965 14.498 149.181 14.24 149.349 13.94H151.455C151.071 14.972 150.459 15.782 149.619 16.37C148.779 16.946 147.819 17.234 146.739 17.234C145.311 17.234 144.117 16.748 143.157 15.776C142.209 14.804 141.735 13.592 141.735 12.14C141.735 10.688 142.209 9.476 143.157 8.504C144.117 7.532 145.311 7.046 146.739 7.046C147.711 7.046 148.575 7.28 149.331 7.748C150.087 8.204 150.669 8.822 151.077 9.602C151.485 10.37 151.689 11.222 151.689 12.158ZM146.739 8.846C145.995 8.846 145.359 9.056 144.831 9.476C144.315 9.896 143.973 10.472 143.805 11.204H149.691C149.571 10.712 149.373 10.292 149.097 9.944C148.821 9.584 148.479 9.314 148.071 9.134C147.675 8.942 147.231 8.846 146.739 8.846ZM164.934 11.924C165.162 12.02 165.366 12.146 165.546 12.302C165.738 12.446 165.9 12.62 166.032 12.824C166.164 13.016 166.266 13.232 166.338 13.472C166.41 13.712 166.446 13.958 166.446 14.21C166.446 15.002 166.158 15.668 165.582 16.208C165.006 16.736 164.286 17 163.422 17H158.346V7.28H163.35C164.166 7.28 164.832 7.514 165.348 7.982C165.876 8.438 166.14 9.032 166.14 9.764C166.14 10.22 166.032 10.64 165.816 11.024C165.6 11.408 165.306 11.708 164.934 11.924ZM164.16 10.088C164.16 9.752 164.046 9.482 163.818 9.278C163.602 9.074 163.314 8.972 162.954 8.972H160.308V11.204H162.954C163.314 11.204 163.602 11.102 163.818 10.898C164.046 10.694 164.16 10.424 164.16 10.088ZM163.062 15.254C163.458 15.254 163.776 15.14 164.016 14.912C164.268 14.684 164.394 14.396 164.394 14.048C164.394 13.688 164.268 13.394 164.016 13.166C163.764 12.938 163.44 12.824 163.044 12.824H160.308V15.254H163.062ZM173.073 17.234C171.633 17.234 170.421 16.748 169.437 15.776C168.465 14.792 167.979 13.58 167.979 12.14C167.979 10.688 168.465 9.476 169.437 8.504C170.421 7.532 171.639 7.046 173.091 7.046C174.279 7.046 175.311 7.382 176.187 8.054C177.063 8.726 177.633 9.62 177.897 10.736H175.917C175.665 10.184 175.287 9.752 174.783 9.44C174.279 9.116 173.709 8.954 173.073 8.954C172.509 8.954 171.993 9.092 171.525 9.368C171.057 9.644 170.685 10.028 170.409 10.52C170.145 11 170.013 11.54 170.013 12.14C170.013 13.04 170.307 13.796 170.895 14.408C171.483 15.02 172.209 15.326 173.073 15.326C173.709 15.326 174.273 15.164 174.765 14.84C175.269 14.516 175.653 14.054 175.917 13.454H177.933C177.657 14.594 177.075 15.512 176.187 16.208C175.311 16.892 174.273 17.234 173.073 17.234ZM187.495 7.28V9.08H184.075V17H182.131V9.08H178.693V7.28H187.495ZM196.178 7.28H198.32L193.856 17.18C193.292 18.416 192.716 19.274 192.128 19.754C191.552 20.246 190.778 20.492 189.806 20.492H188.816V18.692H189.644C190.28 18.692 190.748 18.566 191.048 18.314C191.348 18.062 191.678 17.54 192.038 16.748L192.254 16.298L188.024 7.28H190.202L193.28 14.066L196.178 7.28ZM199.918 7.28H208.396V17H206.416V9.098H201.916V17H199.918V7.28ZM218.366 7.28H219.482V17H217.574V10.826L212.39 17H211.238V7.28H213.164V13.4L218.366 7.28ZM230.016 7.28V9.08H226.596V17H224.652V9.08H221.214V7.28H230.016ZM240.722 12.158C240.722 12.338 240.71 12.56 240.686 12.824H232.802C232.922 13.604 233.246 14.222 233.774 14.678C234.314 15.134 234.98 15.362 235.772 15.362C236.156 15.362 236.516 15.308 236.852 15.2C237.188 15.08 237.482 14.918 237.734 14.714C237.998 14.498 238.214 14.24 238.382 13.94H240.488C240.104 14.972 239.492 15.782 238.652 16.37C237.812 16.946 236.852 17.234 235.772 17.234C234.344 17.234 233.15 16.748 232.19 15.776C231.242 14.804 230.768 13.592 230.768 12.14C230.768 10.688 231.242 9.476 232.19 8.504C233.15 7.532 234.344 7.046 235.772 7.046C236.744 7.046 237.608 7.28 238.364 7.748C239.12 8.204 239.702 8.822 240.11 9.602C240.518 10.37 240.722 11.222 240.722 12.158ZM235.772 8.846C235.028 8.846 234.392 9.056 233.864 9.476C233.348 9.896 233.006 10.472 232.838 11.204H238.724C238.604 10.712 238.406 10.292 238.13 9.944C237.854 9.584 237.512 9.314 237.104 9.134C236.708 8.942 236.264 8.846 235.772 8.846ZM244.361 7.28H250.967V17H249.005V9.008H245.999L245.567 13.31C245.435 14.678 245.081 15.644 244.505 16.208C243.941 16.772 243.083 17.054 241.931 17.054H241.589V15.218H242.057C243.005 15.218 243.539 14.624 243.659 13.436L244.361 7.28ZM257.845 10.16C258.913 10.16 259.777 10.478 260.437 11.114C261.097 11.75 261.427 12.578 261.427 13.598C261.427 14.606 261.097 15.428 260.437 16.064C259.777 16.688 258.913 17 257.845 17H253.813V7.28H255.775V10.16H257.845ZM257.611 15.272C258.151 15.272 258.589 15.122 258.925 14.822C259.261 14.51 259.429 14.102 259.429 13.598C259.429 13.262 259.351 12.968 259.195 12.716C259.051 12.452 258.841 12.248 258.565 12.104C258.289 11.96 257.971 11.888 257.611 11.888H255.775V15.272H257.611ZM269.82 7.28H271.782V17H269.82V12.932H265.32V17H263.34V7.28H265.32V11.096H269.82V7.28ZM278.657 10.16C279.725 10.16 280.589 10.478 281.249 11.114C281.909 11.75 282.239 12.578 282.239 13.598C282.239 14.606 281.909 15.428 281.249 16.064C280.589 16.688 279.725 17 278.657 17H274.625V7.28H276.587V10.16H278.657ZM283.931 7.28H285.929V17H283.931V7.28ZM278.423 15.272C278.963 15.272 279.401 15.122 279.737 14.822C280.073 14.51 280.241 14.102 280.241 13.598C280.241 13.262 280.163 12.968 280.007 12.716C279.863 12.452 279.653 12.248 279.377 12.104C279.101 11.96 278.783 11.888 278.423 11.888H276.587V15.272H278.423ZM298.01 12.158C298.01 12.338 297.998 12.56 297.974 12.824H290.09C290.21 13.604 290.534 14.222 291.062 14.678C291.602 15.134 292.268 15.362 293.06 15.362C293.444 15.362 293.804 15.308 294.14 15.2C294.476 15.08 294.77 14.918 295.022 14.714C295.286 14.498 295.502 14.24 295.67 13.94H297.776C297.392 14.972 296.78 15.782 295.94 16.37C295.1 16.946 294.14 17.234 293.06 17.234C291.632 17.234 290.438 16.748 289.478 15.776C288.53 14.804 288.056 13.592 288.056 12.14C288.056 10.688 288.53 9.476 289.478 8.504C290.438 7.532 291.632 7.046 293.06 7.046C294.032 7.046 294.896 7.28 295.652 7.748C296.408 8.204 296.99 8.822 297.398 9.602C297.806 10.37 298.01 11.222 298.01 12.158ZM293.06 8.846C292.316 8.846 291.68 9.056 291.152 9.476C290.636 9.896 290.294 10.472 290.126 11.204H296.012C295.892 10.712 295.694 10.292 295.418 9.944C295.142 9.584 294.8 9.314 294.392 9.134C293.996 8.942 293.552 8.846 293.06 8.846ZM69.55 29.28H70.666V39H68.758V32.826L63.574 39H62.422V29.28H64.348V35.4L69.55 29.28ZM77.8878 39.234C76.4478 39.234 75.2358 38.748 74.2518 37.776C73.2798 36.792 72.7938 35.58 72.7938 34.14C72.7938 32.688 73.2798 31.476 74.2518 30.504C75.2358 29.532 76.4538 29.046 77.9058 29.046C79.0938 29.046 80.1258 29.382 81.0018 30.054C81.8778 30.726 82.4478 31.62 82.7118 32.736H80.7318C80.4798 32.184 80.1018 31.752 79.5978 31.44C79.0938 31.116 78.5238 30.954 77.8878 30.954C77.3238 30.954 76.8078 31.092 76.3398 31.368C75.8718 31.644 75.4998 32.028 75.2238 32.52C74.9598 33 74.8278 33.54 74.8278 34.14C74.8278 35.04 75.1218 35.796 75.7098 36.408C76.2978 37.02 77.0238 37.326 77.8878 37.326C78.5238 37.326 79.0878 37.164 79.5798 36.84C80.0838 36.516 80.4678 36.054 80.7318 35.454H82.7478C82.4718 36.594 81.8898 37.512 81.0018 38.208C80.1258 38.892 79.0878 39.234 77.8878 39.234ZM84.7111 29.28H93.1891V39H91.2091V31.098H86.7091V39H84.7111V29.28ZM100.063 32.16C101.131 32.16 101.995 32.478 102.655 33.114C103.315 33.75 103.645 34.578 103.645 35.598C103.645 36.606 103.315 37.428 102.655 38.064C101.995 38.688 101.131 39 100.063 39H96.0314V29.28H97.9934V32.16H100.063ZM105.337 29.28H107.335V39H105.337V29.28ZM99.8294 37.272C100.369 37.272 100.807 37.122 101.143 36.822C101.479 36.51 101.647 36.102 101.647 35.598C101.647 35.262 101.569 34.968 101.413 34.716C101.269 34.452 101.059 34.248 100.783 34.104C100.507 33.96 100.189 33.888 99.8294 33.888H97.9934V37.272H99.8294ZM117.868 29.28V31.08H114.448V39H112.504V31.08H109.066V29.28H117.868ZM127.476 29.28H129.024V39H127.404L127.206 37.812C126.27 38.76 125.1 39.234 123.696 39.234C122.244 39.234 121.032 38.748 120.06 37.776C119.1 36.804 118.62 35.592 118.62 34.14C118.62 32.676 119.1 31.464 120.06 30.504C121.032 29.532 122.244 29.046 123.696 29.046C125.124 29.046 126.306 29.526 127.242 30.486L127.476 29.28ZM121.554 36.426C122.166 37.026 122.928 37.326 123.84 37.326C124.764 37.326 125.52 37.026 126.108 36.426C126.708 35.814 127.008 35.052 127.008 34.14C127.008 33.216 126.708 32.454 126.108 31.854C125.52 31.254 124.764 30.954 123.84 30.954C123.24 30.954 122.694 31.092 122.202 31.368C121.722 31.644 121.344 32.028 121.068 32.52C120.792 33 120.654 33.54 120.654 34.14C120.654 35.052 120.954 35.814 121.554 36.426ZM138.353 29.28H140.315V39H138.353V34.932H133.853V39H131.873V29.28H133.853V33.096H138.353V29.28ZM150.286 29.28H151.402V39H149.494V32.826L144.31 39H143.158V29.28H145.084V35.4L150.286 29.28ZM156.968 29.28H161.612V39H159.668V35.436H157.634L155.51 39H153.332L155.654 35.112C155.066 34.872 154.604 34.512 154.268 34.032C153.932 33.552 153.764 32.994 153.764 32.358C153.764 31.482 154.07 30.75 154.682 30.162C155.294 29.574 156.056 29.28 156.968 29.28ZM157.238 33.69H159.668V31.044H157.238C156.95 31.044 156.692 31.104 156.464 31.224C156.248 31.332 156.08 31.488 155.96 31.692C155.84 31.884 155.78 32.112 155.78 32.376C155.78 32.76 155.912 33.078 156.176 33.33C156.44 33.57 156.794 33.69 157.238 33.69Z" fill="#1E4391"/>
<path d="M62.536 72.8H70.696V84H69.272V74.112H63.928V84H62.536V72.8ZM81.5498 79.712C81.5498 79.8293 81.5391 79.9947 81.5178 80.208H74.1418C74.2484 81.008 74.5791 81.6533 75.1338 82.144C75.6884 82.624 76.3711 82.864 77.1818 82.864C77.7791 82.864 78.3071 82.736 78.7658 82.48C79.2351 82.2133 79.6084 81.84 79.8858 81.36H81.3098C80.9471 82.256 80.4031 82.9547 79.6778 83.456C78.9524 83.9467 78.1204 84.192 77.1818 84.192C75.9338 84.192 74.8884 83.76 74.0458 82.896C73.2031 82.032 72.7818 80.96 72.7818 79.68C72.7818 78.3893 73.2031 77.3173 74.0458 76.464C74.8884 75.6 75.9338 75.168 77.1818 75.168C78.4724 75.168 79.5231 75.6053 80.3338 76.48C81.1444 77.3547 81.5498 78.432 81.5498 79.712ZM77.1818 76.464C76.6698 76.464 76.2004 76.5653 75.7738 76.768C75.3578 76.9707 75.0111 77.264 74.7338 77.648C74.4564 78.0213 74.2698 78.4533 74.1738 78.944H80.1737C80.0778 78.4427 79.8911 78.0053 79.6138 77.632C79.3364 77.248 78.9898 76.96 78.5738 76.768C78.1578 76.5653 77.6938 76.464 77.1818 76.464ZM88.1551 75.168C89.4458 75.168 90.5071 75.5947 91.3391 76.448C92.1818 77.3013 92.6031 78.3787 92.6031 79.68C92.6031 80.9707 92.1818 82.048 91.3391 82.912C90.5071 83.7653 89.4458 84.192 88.1551 84.192C86.8538 84.192 85.7818 83.744 84.9391 82.848V87.088H83.5791V75.36H84.5071L84.7791 76.688C85.1845 76.208 85.6751 75.8347 86.2511 75.568C86.8378 75.3013 87.4725 75.168 88.1551 75.168ZM88.0591 82.88C88.9765 82.88 89.7338 82.576 90.3311 81.968C90.9285 81.36 91.2271 80.5973 91.2271 79.68C91.2271 78.7627 90.9285 78 90.3311 77.392C89.7338 76.784 88.9765 76.48 88.0591 76.48C87.1418 76.48 86.3791 76.7893 85.7711 77.408C85.1738 78.016 84.8751 78.7733 84.8751 79.68C84.8751 80.2773 85.0085 80.8213 85.2751 81.312C85.5525 81.8027 85.9365 82.1867 86.4271 82.464C86.9178 82.7413 87.4618 82.88 88.0591 82.88ZM101.025 75.36H101.777V84H100.497V77.824L95.4569 84H94.6729V75.36H95.9689V81.488L101.025 75.36ZM108.42 84.192C107.567 84.192 106.788 84 106.084 83.616C105.38 83.2213 104.831 82.6827 104.436 82C104.042 81.3067 103.844 80.5333 103.844 79.68C103.844 78.3787 104.276 77.3013 105.14 76.448C106.015 75.5947 107.108 75.168 108.42 75.168C109.284 75.168 110.063 75.3653 110.756 75.76C111.46 76.144 112.01 76.6827 112.404 77.376C112.81 78.0587 113.012 78.8267 113.012 79.68C113.012 80.9707 112.575 82.048 111.7 82.912C110.826 83.7653 109.732 84.192 108.42 84.192ZM106.132 81.984C106.74 82.5813 107.503 82.88 108.42 82.88C109.348 82.88 110.111 82.5813 110.708 81.984C111.316 81.376 111.62 80.608 111.62 79.68C111.62 78.752 111.316 77.9893 110.708 77.392C110.111 76.784 109.348 76.48 108.42 76.48C107.503 76.48 106.74 76.784 106.132 77.392C105.535 77.9893 105.236 78.752 105.236 79.68C105.236 80.608 105.535 81.376 106.132 81.984ZM122.124 82.72H123.292V86.288H122.044V84H115.084V86.288H113.836V82.72H114.764C115.02 82.4853 115.217 82.1547 115.356 81.728C115.494 81.2907 115.617 80.6293 115.724 79.744C115.841 78.848 115.98 77.3867 116.14 75.36H122.124V82.72ZM117.356 76.56C117.26 77.9893 117.158 79.104 117.052 79.904C116.956 80.6933 116.844 81.3013 116.716 81.728C116.588 82.144 116.422 82.4747 116.22 82.72H120.796V76.56H117.356ZM133.293 84.192C132.451 84.192 131.683 84 130.989 83.616C130.307 83.2213 129.768 82.6773 129.373 81.984C128.989 81.2907 128.797 80.5227 128.797 79.68C128.797 78.3893 129.224 77.3173 130.077 76.464C130.941 75.6 132.013 75.168 133.293 75.168C134.317 75.168 135.203 75.4507 135.949 76.016C136.707 76.5813 137.219 77.3333 137.485 78.272H136.141C135.885 77.7173 135.501 77.28 134.989 76.96C134.488 76.64 133.923 76.48 133.293 76.48C132.408 76.48 131.667 76.7893 131.069 77.408C130.483 78.016 130.189 78.7733 130.189 79.68C130.189 80.2773 130.323 80.8213 130.589 81.312C130.856 81.792 131.224 82.176 131.693 82.464C132.173 82.7413 132.707 82.88 133.293 82.88C133.923 82.88 134.483 82.72 134.973 82.4C135.475 82.0693 135.859 81.616 136.125 81.04H137.501C137.235 82 136.717 82.768 135.949 83.344C135.192 83.9093 134.307 84.192 133.293 84.192ZM146.639 82.72H147.807V86.288H146.559V84H139.599V86.288H138.351V82.72H139.279C139.535 82.4853 139.733 82.1547 139.871 81.728C140.01 81.2907 140.133 80.6293 140.239 79.744C140.357 78.848 140.495 77.3867 140.655 75.36H146.639V82.72ZM141.871 76.56C141.775 77.9893 141.674 79.104 141.567 79.904C141.471 80.6933 141.359 81.3013 141.231 81.728C141.103 82.144 140.938 82.4747 140.735 82.72H145.311V76.56H141.871ZM157.017 75.36H158.105V84H156.969L156.825 82.688C156.42 83.168 155.924 83.5413 155.337 83.808C154.761 84.064 154.127 84.192 153.433 84.192C152.164 84.192 151.103 83.7653 150.249 82.912C149.396 82.048 148.969 80.9707 148.969 79.68C148.969 78.3893 149.396 77.3173 150.249 76.464C151.103 75.6 152.164 75.168 153.433 75.168C154.137 75.168 154.777 75.3013 155.353 75.568C155.94 75.8347 156.436 76.208 156.841 76.688L157.017 75.36ZM151.257 81.968C151.865 82.576 152.628 82.88 153.545 82.88C154.463 82.88 155.22 82.576 155.817 81.968C156.415 81.36 156.713 80.5973 156.713 79.68C156.713 78.7627 156.415 78 155.817 77.392C155.22 76.784 154.463 76.48 153.545 76.48C152.628 76.48 151.865 76.7893 151.257 77.408C150.66 78.016 150.361 78.7733 150.361 79.68C150.361 80.5867 150.66 81.3493 151.257 81.968ZM165.597 75.36H166.909V84H165.597V80.688C164.935 80.944 164.247 81.072 163.533 81.072C162.509 81.072 161.682 80.7787 161.053 80.192C160.434 79.5947 160.125 78.7627 160.125 77.696V75.36H161.453V77.6C161.453 78.2933 161.639 78.8267 162.013 79.2C162.397 79.5733 162.941 79.76 163.645 79.76C164.317 79.76 164.967 79.6053 165.597 79.296V75.36ZM175.994 75.36H176.746V84H175.466V77.824L170.426 84H169.642V75.36H170.938V81.488L175.994 75.36ZM189.241 79.52C189.678 79.68 190.025 79.9467 190.281 80.32C190.547 80.6933 190.681 81.1147 190.681 81.584C190.681 82.2773 190.425 82.8533 189.913 83.312C189.411 83.7707 188.782 84 188.025 84H183.689V75.36H187.977C188.691 75.36 189.273 75.568 189.721 75.984C190.169 76.3893 190.392 76.912 190.392 77.552C190.392 77.84 190.345 78.112 190.249 78.368C190.153 78.624 190.019 78.8533 189.849 79.056C189.678 79.248 189.475 79.4027 189.241 79.52ZM189.049 77.792C189.049 77.44 188.931 77.1627 188.697 76.96C188.462 76.7467 188.158 76.64 187.785 76.64H185.017V78.928H187.785C188.169 78.928 188.473 78.8267 188.697 78.624C188.931 78.4107 189.049 78.1333 189.049 77.792ZM187.865 82.72C188.131 82.72 188.371 82.6667 188.585 82.56C188.809 82.4427 188.979 82.288 189.097 82.096C189.214 81.904 189.273 81.6907 189.273 81.456C189.273 81.2107 189.214 80.992 189.097 80.8C188.979 80.5973 188.809 80.4427 188.585 80.336C188.371 80.2293 188.126 80.176 187.849 80.176H185.017V82.72H187.865ZM196.684 84.192C195.841 84.192 195.073 84 194.38 83.616C193.697 83.2213 193.159 82.6773 192.764 81.984C192.38 81.2907 192.188 80.5227 192.188 79.68C192.188 78.3893 192.615 77.3173 193.468 76.464C194.332 75.6 195.404 75.168 196.684 75.168C197.708 75.168 198.593 75.4507 199.34 76.016C200.097 76.5813 200.609 77.3333 200.876 78.272H199.532C199.276 77.7173 198.892 77.28 198.38 76.96C197.879 76.64 197.313 76.48 196.684 76.48C195.799 76.48 195.057 76.7893 194.46 77.408C193.873 78.016 193.58 78.7733 193.58 79.68C193.58 80.2773 193.713 80.8213 193.98 81.312C194.247 81.792 194.615 82.176 195.084 82.464C195.564 82.7413 196.097 82.88 196.684 82.88C197.313 82.88 197.873 82.72 198.364 82.4C198.865 82.0693 199.249 81.616 199.516 81.04H200.892C200.625 82 200.108 82.768 199.34 83.344C198.583 83.9093 197.697 84.192 196.684 84.192ZM209.376 75.36V76.592H206.16V84H204.832V76.592H201.616V75.36H209.376ZM217.321 75.36H218.777L214.665 84.352C214.345 85.056 214.03 85.6 213.721 85.984C213.411 86.368 213.065 86.6453 212.681 86.816C212.297 86.9973 211.827 87.088 211.273 87.088H210.457V85.856H211.161C211.737 85.856 212.169 85.7387 212.457 85.504C212.745 85.2693 213.065 84.7893 213.417 84.064L213.721 83.408L209.881 75.36H211.369L214.441 81.904L217.321 75.36ZM220.392 75.36H227.72V84H226.376V76.608H221.752V84H220.392V75.36ZM236.822 75.36H237.574V84H236.294V77.824L231.254 84H230.47V75.36H231.766V81.488L236.822 75.36ZM246.985 75.36V76.592H243.769V84H242.441V76.592H239.225V75.36H246.985ZM256.425 79.712C256.425 79.8293 256.414 79.9947 256.393 80.208H249.017C249.123 81.008 249.454 81.6533 250.009 82.144C250.563 82.624 251.246 82.864 252.057 82.864C252.654 82.864 253.182 82.736 253.641 82.48C254.11 82.2133 254.483 81.84 254.761 81.36H256.185C255.822 82.256 255.278 82.9547 254.553 83.456C253.827 83.9467 252.995 84.192 252.057 84.192C250.809 84.192 249.763 83.76 248.921 82.896C248.078 82.032 247.657 80.96 247.657 79.68C247.657 78.3893 248.078 77.3173 248.921 76.464C249.763 75.6 250.809 75.168 252.057 75.168C253.347 75.168 254.398 75.6053 255.209 76.48C256.019 77.3547 256.425 78.432 256.425 79.712ZM252.057 76.464C251.545 76.464 251.075 76.5653 250.649 76.768C250.233 76.9707 249.886 77.264 249.609 77.648C249.331 78.0213 249.145 78.4533 249.049 78.944H255.049C254.953 78.4427 254.766 78.0053 254.489 77.632C254.211 77.248 253.865 76.96 253.449 76.768C253.033 76.5653 252.569 76.464 252.057 76.464ZM259.723 75.36H265.387V84H264.027V76.544H260.859L260.411 80.912C260.294 82.0533 260 82.864 259.531 83.344C259.062 83.8133 258.358 84.048 257.419 84.048H257.179V82.768H257.483C257.974 82.768 258.347 82.6293 258.603 82.352C258.859 82.064 259.019 81.6107 259.083 80.992L259.723 75.36ZM271.598 78.08C272.505 78.08 273.246 78.3573 273.822 78.912C274.398 79.456 274.686 80.1707 274.686 81.056C274.686 81.92 274.398 82.6293 273.822 83.184C273.246 83.728 272.505 84 271.598 84H268.126V75.36H269.454V78.08H271.598ZM271.422 82.784C271.987 82.784 272.441 82.624 272.782 82.304C273.123 81.984 273.294 81.568 273.294 81.056C273.294 80.5333 273.123 80.112 272.782 79.792C272.441 79.4613 271.987 79.296 271.422 79.296H269.454V82.784H271.422ZM282.5 75.36H283.828V84H282.5V80.176H277.876V84H276.548V75.36H277.876V78.896H282.5V75.36ZM290.051 78.08C290.958 78.08 291.699 78.3573 292.275 78.912C292.851 79.456 293.139 80.1707 293.139 81.056C293.139 81.92 292.851 82.6293 292.275 83.184C291.699 83.728 290.958 84 290.051 84H286.579V75.36H287.907V78.08H290.051ZM294.707 75.36H296.067V84H294.707V75.36ZM289.875 82.784C290.44 82.784 290.894 82.624 291.235 82.304C291.576 81.984 291.747 81.568 291.747 81.056C291.747 80.5333 291.576 80.112 291.235 79.792C290.894 79.4613 290.44 79.296 289.875 79.296H287.907V82.784H289.875ZM305.55 84H304.014L301.549 80.4L299.054 84H297.566L300.734 79.504L297.822 75.36H299.342L301.549 78.56L303.806 75.36H305.294L302.366 79.456L305.55 84ZM68.728 97.36H69.48V106H68.2V99.824L63.16 106H62.376V97.36H63.672V103.488L68.728 97.36ZM76.0434 106.192C75.2007 106.192 74.4327 106 73.7394 105.616C73.0567 105.221 72.518 104.677 72.1234 103.984C71.7394 103.291 71.5474 102.523 71.5474 101.68C71.5474 100.389 71.974 99.3173 72.8274 98.464C73.6914 97.6 74.7634 97.168 76.0434 97.168C77.0674 97.168 77.9527 97.4507 78.6994 98.016C79.4567 98.5813 79.9687 99.3333 80.2354 100.272H78.8914C78.6354 99.7173 78.2514 99.28 77.7394 98.96C77.238 98.64 76.6727 98.48 76.0434 98.48C75.158 98.48 74.4167 98.7893 73.8194 99.408C73.2327 100.016 72.9394 100.773 72.9394 101.68C72.9394 102.277 73.0727 102.821 73.3394 103.312C73.606 103.792 73.974 104.176 74.4434 104.464C74.9234 104.741 75.4567 104.88 76.0434 104.88C76.6727 104.88 77.2327 104.72 77.7234 104.4C78.2247 104.069 78.6087 103.616 78.8754 103.04H80.2514C79.9847 104 79.4674 104.768 78.6994 105.344C77.942 105.909 77.0567 106.192 76.0434 106.192ZM82.1573 97.36H89.4853V106H88.1413V98.608H83.5173V106H82.1573V97.36ZM95.7074 100.08C96.614 100.08 97.3554 100.357 97.9314 100.912C98.5074 101.456 98.7954 102.171 98.7954 103.056C98.7954 103.92 98.5074 104.629 97.9314 105.184C97.3554 105.728 96.614 106 95.7074 106H92.2354V97.36H93.5634V100.08H95.7074ZM100.363 97.36H101.723V106H100.363V97.36ZM95.5314 104.784C96.0967 104.784 96.55 104.624 96.8914 104.304C97.2327 103.984 97.4034 103.568 97.4034 103.056C97.4034 102.533 97.2327 102.112 96.8914 101.792C96.55 101.461 96.0967 101.296 95.5314 101.296H93.5634V104.784H95.5314ZM111.126 97.36V98.592H107.91V106H106.582V98.592H103.366V97.36H111.126ZM119.845 97.36H120.933V106H119.797L119.653 104.688C119.248 105.168 118.752 105.541 118.165 105.808C117.589 106.064 116.955 106.192 116.261 106.192C114.992 106.192 113.931 105.765 113.077 104.912C112.224 104.048 111.797 102.971 111.797 101.68C111.797 100.389 112.224 99.3173 113.077 98.464C113.931 97.6 114.992 97.168 116.261 97.168C116.965 97.168 117.605 97.3013 118.181 97.568C118.768 97.8347 119.264 98.208 119.669 98.688L119.845 97.36ZM114.085 103.968C114.693 104.576 115.456 104.88 116.373 104.88C117.291 104.88 118.048 104.576 118.645 103.968C119.243 103.36 119.541 102.597 119.541 101.68C119.541 100.763 119.243 100 118.645 99.392C118.048 98.784 117.291 98.48 116.373 98.48C115.456 98.48 114.693 98.7893 114.085 99.408C113.488 100.016 113.189 100.773 113.189 101.68C113.189 102.587 113.488 103.349 114.085 103.968ZM129.625 97.36H130.953V106H129.625V102.176H125.001V106H123.673V97.36H125.001V100.896H129.625V97.36ZM140.056 97.36H140.808V106H139.528V99.824L134.488 106H133.704V97.36H135V103.488L140.056 97.36ZM149.228 94.592V95.616H145.036V94.592H149.228ZM149.916 97.36H150.668V106H149.388V99.824L144.348 106H143.564V97.36H144.86V103.488L149.916 97.36Z" fill="black"/>
<path opacity="0.6" d="M66.782 141.182C65.298 141.182 64.066 140.701 63.086 139.74C62.106 138.769 61.616 137.556 61.616 136.1C61.616 134.644 62.106 133.435 63.086 132.474C64.066 131.503 65.298 131.018 66.782 131.018C68.266 131.018 69.498 131.503 70.478 132.474C71.458 133.435 71.948 134.644 71.948 136.1C71.948 137.052 71.724 137.92 71.276 138.704C70.8373 139.479 70.2213 140.085 69.428 140.524C68.644 140.963 67.762 141.182 66.782 141.182ZM64.262 138.634C64.934 139.306 65.774 139.642 66.782 139.642C67.7993 139.642 68.6393 139.306 69.302 138.634C69.974 137.953 70.31 137.108 70.31 136.1C70.31 135.092 69.974 134.252 69.302 133.58C68.6393 132.899 67.7993 132.558 66.782 132.558C65.774 132.558 64.934 132.899 64.262 133.58C63.59 134.252 63.254 135.092 63.254 136.1C63.254 137.108 63.59 137.953 64.262 138.634ZM77.7884 133.44H79.3004V141H77.7884V138.298C77.2751 138.485 76.7337 138.578 76.1644 138.578C75.2404 138.578 74.4984 138.307 73.9384 137.766C73.3784 137.225 73.0984 136.478 73.0984 135.526V133.44H74.6244V135.47C74.6244 136.011 74.7644 136.427 75.0444 136.716C75.3337 137.005 75.7491 137.15 76.2904 137.15C76.8317 137.15 77.3311 137.029 77.7884 136.786V133.44ZM86.5464 133.44H88.0724V141H86.5464V137.836H83.0464V141H81.5064V133.44H83.0464V136.408H86.5464V133.44ZM96.6117 133.44H97.8157V141H96.5557L96.4017 140.076C95.6737 140.813 94.7637 141.182 93.6717 141.182C92.5424 141.182 91.5997 140.804 90.8437 140.048C90.0971 139.292 89.7237 138.349 89.7237 137.22C89.7237 136.081 90.0971 135.139 90.8437 134.392C91.5997 133.636 92.5424 133.258 93.6717 133.258C94.7824 133.258 95.7017 133.631 96.4297 134.378L96.6117 133.44ZM92.0057 138.998C92.4817 139.465 93.0744 139.698 93.7837 139.698C94.5024 139.698 95.0904 139.465 95.5477 138.998C96.0144 138.522 96.2477 137.929 96.2477 137.22C96.2477 136.501 96.0144 135.909 95.5477 135.442C95.0904 134.975 94.5024 134.742 93.7837 134.742C93.3171 134.742 92.8924 134.849 92.5097 135.064C92.1364 135.279 91.8424 135.577 91.6277 135.96C91.4131 136.333 91.3057 136.753 91.3057 137.22C91.3057 137.929 91.5391 138.522 92.0057 138.998ZM102.146 133.44H105.758V141H104.246V138.228H102.664L101.012 141H99.3178L101.124 137.976C100.666 137.789 100.307 137.509 100.046 137.136C99.7844 136.763 99.6538 136.329 99.6538 135.834C99.6538 135.153 99.8918 134.583 100.368 134.126C100.844 133.669 101.436 133.44 102.146 133.44ZM102.356 136.87H104.246V134.812H102.356C102.132 134.812 101.931 134.859 101.754 134.952C101.586 135.036 101.455 135.157 101.362 135.316C101.268 135.465 101.222 135.643 101.222 135.848C101.222 136.147 101.324 136.394 101.53 136.59C101.735 136.777 102.01 136.87 102.356 136.87ZM120.21 137.248C120.21 138.359 119.842 139.278 119.104 140.006C118.376 140.734 117.448 141.126 116.318 141.182V143.38H114.834V141.182C113.705 141.126 112.772 140.734 112.034 140.006C111.306 139.278 110.942 138.359 110.942 137.248C110.942 136.137 111.311 135.209 112.048 134.462C112.786 133.715 113.714 133.314 114.834 133.258V131.144H116.318V133.258C117.438 133.314 118.367 133.715 119.104 134.462C119.842 135.199 120.21 136.128 120.21 137.248ZM112.468 137.234C112.468 137.925 112.688 138.503 113.126 138.97C113.574 139.437 114.148 139.693 114.848 139.74V134.7C114.148 134.747 113.574 135.008 113.126 135.484C112.688 135.96 112.468 136.543 112.468 137.234ZM116.304 139.74C117.004 139.693 117.574 139.437 118.012 138.97C118.46 138.503 118.684 137.925 118.684 137.234C118.684 136.543 118.46 135.96 118.012 135.484C117.564 135.008 116.995 134.747 116.304 134.7V139.74ZM128.236 140.062C127.47 140.809 126.509 141.182 125.352 141.182C124.194 141.182 123.228 140.809 122.454 140.062C121.688 139.306 121.306 138.359 121.306 137.22C121.306 136.473 121.478 135.797 121.824 135.19C122.178 134.583 122.664 134.112 123.28 133.776C123.905 133.431 124.596 133.258 125.352 133.258C126.108 133.258 126.794 133.431 127.41 133.776C128.035 134.112 128.52 134.583 128.866 135.19C129.22 135.797 129.398 136.473 129.398 137.22C129.398 138.359 129.01 139.306 128.236 140.062ZM125.352 139.698C125.828 139.698 126.252 139.595 126.626 139.39C126.999 139.175 127.288 138.881 127.494 138.508C127.708 138.125 127.816 137.696 127.816 137.22C127.816 136.501 127.582 135.909 127.116 135.442C126.658 134.975 126.07 134.742 125.352 134.742C124.633 134.742 124.04 134.975 123.574 135.442C123.116 135.909 122.888 136.501 122.888 137.22C122.888 137.939 123.116 138.531 123.574 138.998C124.04 139.465 124.633 139.698 125.352 139.698ZM135.113 133.258C135.86 133.258 136.532 133.431 137.129 133.776C137.727 134.112 138.193 134.583 138.529 135.19C138.865 135.797 139.033 136.473 139.033 137.22C139.033 138.359 138.66 139.306 137.913 140.062C137.176 140.809 136.243 141.182 135.113 141.182C134.143 141.182 133.307 140.879 132.607 140.272V143.716H131.053V133.44H132.103L132.397 134.364C133.125 133.627 134.031 133.258 135.113 133.258ZM133.223 138.998C133.69 139.465 134.278 139.698 134.987 139.698C135.706 139.698 136.299 139.465 136.765 138.998C137.232 138.522 137.465 137.929 137.465 137.22C137.465 136.511 137.232 135.923 136.765 135.456C136.299 134.98 135.711 134.742 135.001 134.742C134.535 134.742 134.11 134.849 133.727 135.064C133.345 135.279 133.046 135.577 132.831 135.96C132.626 136.333 132.523 136.753 132.523 137.22C132.523 137.929 132.757 138.522 133.223 138.998ZM150.241 141H148.743L147.833 135.848L145.299 140.916H144.977L142.457 135.848L141.547 141H140.049L141.407 133.44H142.723L145.145 138.27L147.581 133.44H148.883L150.241 141ZM158.122 133.44H159.326V141H158.066L157.912 140.076C157.184 140.813 156.274 141.182 155.182 141.182C154.052 141.182 153.11 140.804 152.354 140.048C151.607 139.292 151.234 138.349 151.234 137.22C151.234 136.081 151.607 135.139 152.354 134.392C153.11 133.636 154.052 133.258 155.182 133.258C156.292 133.258 157.212 133.631 157.94 134.378L158.122 133.44ZM153.516 138.998C153.992 139.465 154.584 139.698 155.294 139.698C156.012 139.698 156.6 139.465 157.058 138.998C157.524 138.522 157.757 137.929 157.757 137.22C157.757 136.501 157.524 135.909 157.058 135.442C156.6 134.975 156.012 134.742 155.294 134.742C154.827 134.742 154.402 134.849 154.02 135.064C153.646 135.279 153.352 135.577 153.138 135.96C152.923 136.333 152.816 136.753 152.816 137.22C152.816 137.929 153.049 138.522 153.516 138.998ZM171.439 140.062C170.674 140.809 169.712 141.182 168.555 141.182C167.398 141.182 166.432 140.809 165.657 140.062C164.892 139.306 164.509 138.359 164.509 137.22C164.509 136.473 164.682 135.797 165.027 135.19C165.382 134.583 165.867 134.112 166.483 133.776C167.108 133.431 167.799 133.258 168.555 133.258C169.311 133.258 169.997 133.431 170.613 133.776C171.238 134.112 171.724 134.583 172.069 135.19C172.424 135.797 172.601 136.473 172.601 137.22C172.601 138.359 172.214 139.306 171.439 140.062ZM168.555 139.698C169.031 139.698 169.456 139.595 169.829 139.39C170.202 139.175 170.492 138.881 170.697 138.508C170.912 138.125 171.019 137.696 171.019 137.22C171.019 136.501 170.786 135.909 170.319 135.442C169.862 134.975 169.274 134.742 168.555 134.742C167.836 134.742 167.244 134.975 166.777 135.442C166.32 135.909 166.091 136.501 166.091 137.22C166.091 137.939 166.32 138.531 166.777 138.998C167.244 139.465 167.836 139.698 168.555 139.698ZM178.106 133.804C179.198 133.804 180.085 134.14 180.766 134.812C181.457 135.484 181.802 136.357 181.802 137.43C181.802 138.541 181.438 139.446 180.71 140.146C179.992 140.837 179.049 141.182 177.882 141.182C176.65 141.182 175.68 140.799 174.97 140.034C174.27 139.259 173.92 138.2 173.92 136.856C173.92 135.017 174.27 133.622 174.97 132.67C175.68 131.709 176.86 131.027 178.512 130.626L180.878 130.052V131.592L178.54 132.152C176.926 132.535 175.969 133.379 175.67 134.686C176.324 134.098 177.136 133.804 178.106 133.804ZM177.882 139.712C178.554 139.712 179.11 139.497 179.548 139.068C179.996 138.629 180.22 138.083 180.22 137.43C180.22 136.991 180.118 136.599 179.912 136.254C179.707 135.899 179.427 135.624 179.072 135.428C178.718 135.223 178.321 135.12 177.882 135.12C177.444 135.12 177.042 135.223 176.678 135.428C176.324 135.624 176.044 135.899 175.838 136.254C175.642 136.599 175.544 136.991 175.544 137.43C175.544 138.083 175.764 138.629 176.202 139.068C176.65 139.497 177.21 139.712 177.882 139.712ZM188.506 133.44H190.172L186.7 141.14C186.261 142.101 185.813 142.769 185.356 143.142C184.908 143.525 184.306 143.716 183.55 143.716H182.78V142.316H183.424C183.918 142.316 184.282 142.218 184.516 142.022C184.749 141.826 185.006 141.42 185.286 140.804L185.454 140.454L182.164 133.44H183.858L186.252 138.718L188.506 133.44ZM195.531 133.44H197.043V141H195.531V138.298C195.017 138.485 194.476 138.578 193.907 138.578C192.983 138.578 192.241 138.307 191.681 137.766C191.121 137.225 190.841 136.478 190.841 135.526V133.44H192.367V135.47C192.367 136.011 192.507 136.427 192.787 136.716C193.076 137.005 193.491 137.15 194.033 137.15C194.574 137.15 195.073 137.029 195.531 136.786V133.44ZM206.431 137.234C206.431 137.374 206.421 137.547 206.403 137.752H200.271C200.364 138.359 200.616 138.839 201.027 139.194C201.447 139.549 201.965 139.726 202.581 139.726C202.879 139.726 203.159 139.684 203.421 139.6C203.682 139.507 203.911 139.381 204.107 139.222C204.312 139.054 204.48 138.853 204.611 138.62H206.249C205.95 139.423 205.474 140.053 204.821 140.51C204.167 140.958 203.421 141.182 202.581 141.182C201.47 141.182 200.541 140.804 199.795 140.048C199.057 139.292 198.689 138.349 198.689 137.22C198.689 136.091 199.057 135.148 199.795 134.392C200.541 133.636 201.47 133.258 202.581 133.258C203.337 133.258 204.009 133.44 204.597 133.804C205.185 134.159 205.637 134.639 205.955 135.246C206.272 135.843 206.431 136.506 206.431 137.234ZM202.581 134.658C202.002 134.658 201.507 134.821 201.097 135.148C200.695 135.475 200.429 135.923 200.299 136.492H204.877C204.783 136.109 204.629 135.783 204.415 135.512C204.2 135.232 203.934 135.022 203.617 134.882C203.309 134.733 202.963 134.658 202.581 134.658ZM213.121 133.44H214.647V141H213.121V137.836H209.621V141H208.081V133.44H209.621V136.408H213.121V133.44ZM222.402 133.44H223.27V141H221.786V136.198L217.754 141H216.858V133.44H218.356V138.2L222.402 133.44ZM227.599 133.44H231.211V141H229.699V138.228H228.117L226.465 141H224.771L226.577 137.976C226.12 137.789 225.76 137.509 225.499 137.136C225.238 136.763 225.107 136.329 225.107 135.834C225.107 135.153 225.345 134.583 225.821 134.126C226.297 133.669 226.89 133.44 227.599 133.44ZM227.809 136.87H229.699V134.812H227.809C227.585 134.812 227.384 134.859 227.207 134.952C227.039 135.036 226.908 135.157 226.815 135.316C226.722 135.465 226.675 135.643 226.675 135.848C226.675 136.147 226.778 136.394 226.983 136.59C227.188 136.777 227.464 136.87 227.809 136.87ZM233.246 135.778V133.986H234.954V135.778H233.246ZM233.246 141V139.208H234.954V141H233.246Z" fill="black"/>
<g opacity="0.8">
<path d="M65.396 163.168C64.2667 163.168 63.3707 162.734 62.708 161.866C62.0453 160.998 61.714 159.822 61.714 158.338C61.714 156.854 62.0407 155.683 62.694 154.824C63.3567 153.956 64.2573 153.522 65.396 153.522C66.5253 153.522 67.4167 153.956 68.07 154.824C68.7327 155.683 69.064 156.854 69.064 158.338C69.064 159.822 68.7327 160.998 68.07 161.866C67.4073 162.734 66.516 163.168 65.396 163.168ZM65.396 161.74C66.068 161.74 66.5907 161.441 66.964 160.844C67.3467 160.247 67.538 159.411 67.538 158.338C67.538 157.629 67.4493 157.022 67.272 156.518C67.104 156.005 66.8567 155.617 66.53 155.356C66.2127 155.085 65.8347 154.95 65.396 154.95C64.948 154.95 64.5607 155.085 64.234 155.356C63.9073 155.617 63.66 156.005 63.492 156.518C63.324 157.022 63.24 157.629 63.24 158.338C63.24 159.411 63.4267 160.247 63.8 160.844C64.1827 161.441 64.7147 161.74 65.396 161.74ZM77.0293 159.78V161.11H76.1333V163H74.6773V161.11H70.0433V160.802L73.2213 153.69H74.7613L72.0453 159.78H74.7053L74.9573 157.19H76.1333V159.78H77.0293ZM78.3436 163V161.208H80.0516V163H78.3436ZM85.0425 163.168C83.9132 163.168 83.0172 162.734 82.3545 161.866C81.6918 160.998 81.3605 159.822 81.3605 158.338C81.3605 156.854 81.6872 155.683 82.3405 154.824C83.0032 153.956 83.9038 153.522 85.0425 153.522C86.1718 153.522 87.0632 153.956 87.7165 154.824C88.3792 155.683 88.7105 156.854 88.7105 158.338C88.7105 159.822 88.3792 160.998 87.7165 161.866C87.0538 162.734 86.1625 163.168 85.0425 163.168ZM85.0425 161.74C85.7145 161.74 86.2372 161.441 86.6105 160.844C86.9932 160.247 87.1845 159.411 87.1845 158.338C87.1845 157.629 87.0958 157.022 86.9185 156.518C86.7505 156.005 86.5032 155.617 86.1765 155.356C85.8592 155.085 85.4812 154.95 85.0425 154.95C84.5945 154.95 84.2072 155.085 83.8805 155.356C83.5538 155.617 83.3065 156.005 83.1385 156.518C82.9705 157.022 82.8865 157.629 82.8865 158.338C82.8865 159.411 83.0732 160.247 83.4465 160.844C83.8292 161.441 84.3612 161.74 85.0425 161.74ZM89.8018 153.69H96.2558V153.914L92.6438 163H91.0478L94.2258 155.062H89.8018V153.69ZM100.998 159.836V158.324H105.492V159.836H100.998ZM110.338 153.69H113.474V163H111.976V155.048H110.338V153.69ZM119.238 157.176C119.966 157.307 120.55 157.638 120.988 158.17C121.436 158.702 121.66 159.337 121.66 160.074C121.66 160.97 121.352 161.712 120.736 162.3C120.13 162.879 119.369 163.168 118.454 163.168C117.568 163.168 116.83 162.893 116.242 162.342C115.664 161.782 115.356 161.063 115.318 160.186H116.83C116.858 160.653 117.022 161.031 117.32 161.32C117.619 161.6 117.997 161.74 118.454 161.74C118.94 161.74 119.341 161.581 119.658 161.264C119.976 160.937 120.134 160.527 120.134 160.032C120.134 159.789 120.088 159.565 119.994 159.36C119.901 159.145 119.775 158.963 119.616 158.814C119.458 158.665 119.266 158.553 119.042 158.478C118.818 158.394 118.576 158.352 118.314 158.352H117.138V158.058L119.07 155.062H115.598V153.69H121.296V153.998L119.238 157.176ZM123.228 163V161.208H124.936V163H123.228ZM129.927 163.168C128.798 163.168 127.902 162.734 127.239 161.866C126.577 160.998 126.245 159.822 126.245 158.338C126.245 156.854 126.572 155.683 127.225 154.824C127.888 153.956 128.789 153.522 129.927 153.522C131.057 153.522 131.948 153.956 132.601 154.824C133.264 155.683 133.595 156.854 133.595 158.338C133.595 159.822 133.264 160.998 132.601 161.866C131.939 162.734 131.047 163.168 129.927 163.168ZM129.927 161.74C130.599 161.74 131.122 161.441 131.495 160.844C131.878 160.247 132.069 159.411 132.069 158.338C132.069 157.629 131.981 157.022 131.803 156.518C131.635 156.005 131.388 155.617 131.061 155.356C130.744 155.085 130.366 154.95 129.927 154.95C129.479 154.95 129.092 155.085 128.765 155.356C128.439 155.617 128.191 156.005 128.023 156.518C127.855 157.022 127.771 157.629 127.771 158.338C127.771 159.411 127.958 160.247 128.331 160.844C128.714 161.441 129.246 161.74 129.927 161.74ZM140.525 158.03C140.907 158.263 141.206 158.576 141.421 158.968C141.645 159.351 141.757 159.78 141.757 160.256C141.757 161.105 141.439 161.805 140.805 162.356C140.17 162.897 139.358 163.168 138.369 163.168C137.706 163.168 137.118 163.047 136.605 162.804C136.091 162.561 135.695 162.221 135.415 161.782C135.135 161.334 134.995 160.825 134.995 160.256C134.995 159.789 135.102 159.365 135.317 158.982C135.541 158.59 135.849 158.273 136.241 158.03C136.091 157.918 135.956 157.792 135.835 157.652C135.723 157.503 135.625 157.349 135.541 157.19C135.466 157.022 135.405 156.845 135.359 156.658C135.321 156.471 135.303 156.28 135.303 156.084C135.303 155.328 135.587 154.712 136.157 154.236C136.726 153.751 137.463 153.508 138.369 153.508C139.283 153.508 140.021 153.746 140.581 154.222C141.15 154.698 141.435 155.319 141.435 156.084C141.435 156.476 141.351 156.845 141.183 157.19C141.024 157.535 140.805 157.815 140.525 158.03ZM138.369 154.782C137.902 154.782 137.519 154.908 137.221 155.16C136.931 155.403 136.787 155.715 136.787 156.098C136.787 156.49 136.931 156.812 137.221 157.064C137.519 157.316 137.902 157.442 138.369 157.442C138.835 157.442 139.213 157.316 139.503 157.064C139.801 156.812 139.951 156.49 139.951 156.098C139.951 155.846 139.885 155.622 139.755 155.426C139.624 155.221 139.437 155.062 139.195 154.95C138.952 154.838 138.677 154.782 138.369 154.782ZM138.369 161.852C138.929 161.852 139.377 161.707 139.713 161.418C140.058 161.119 140.231 160.737 140.231 160.27C140.231 159.803 140.058 159.421 139.713 159.122C139.377 158.823 138.929 158.674 138.369 158.674C137.818 158.674 137.37 158.823 137.025 159.122C136.689 159.421 136.521 159.803 136.521 160.27C136.521 160.737 136.689 161.119 137.025 161.418C137.37 161.707 137.818 161.852 138.369 161.852Z" fill="#1E4391"/>
</g>
<g opacity="0.8">
<path d="M65.396 216.168C64.2667 216.168 63.3707 215.734 62.708 214.866C62.0453 213.998 61.714 212.822 61.714 211.338C61.714 209.854 62.0407 208.683 62.694 207.824C63.3567 206.956 64.2573 206.522 65.396 206.522C66.5253 206.522 67.4167 206.956 68.07 207.824C68.7327 208.683 69.064 209.854 69.064 211.338C69.064 212.822 68.7327 213.998 68.07 214.866C67.4073 215.734 66.516 216.168 65.396 216.168ZM65.396 214.74C66.068 214.74 66.5907 214.441 66.964 213.844C67.3467 213.247 67.538 212.411 67.538 211.338C67.538 210.629 67.4493 210.022 67.272 209.518C67.104 209.005 66.8567 208.617 66.53 208.356C66.2127 208.085 65.8347 207.95 65.396 207.95C64.948 207.95 64.5607 208.085 64.234 208.356C63.9073 208.617 63.66 209.005 63.492 209.518C63.324 210.022 63.24 210.629 63.24 211.338C63.24 212.411 63.4267 213.247 63.8 213.844C64.1827 214.441 64.7147 214.74 65.396 214.74ZM77.0293 212.78V214.11H76.1333V216H74.6773V214.11H70.0433V213.802L73.2213 206.69H74.7613L72.0453 212.78H74.7053L74.9573 210.19H76.1333V212.78H77.0293ZM78.3436 216V214.208H80.0516V216H78.3436ZM85.0425 216.168C83.9132 216.168 83.0172 215.734 82.3545 214.866C81.6918 213.998 81.3605 212.822 81.3605 211.338C81.3605 209.854 81.6872 208.683 82.3405 207.824C83.0032 206.956 83.9038 206.522 85.0425 206.522C86.1718 206.522 87.0632 206.956 87.7165 207.824C88.3792 208.683 88.7105 209.854 88.7105 211.338C88.7105 212.822 88.3792 213.998 87.7165 214.866C87.0538 215.734 86.1625 216.168 85.0425 216.168ZM85.0425 214.74C85.7145 214.74 86.2372 214.441 86.6105 213.844C86.9932 213.247 87.1845 212.411 87.1845 211.338C87.1845 210.629 87.0958 210.022 86.9185 209.518C86.7505 209.005 86.5032 208.617 86.1765 208.356C85.8592 208.085 85.4812 207.95 85.0425 207.95C84.5945 207.95 84.2072 208.085 83.8805 208.356C83.5538 208.617 83.3065 209.005 83.1385 209.518C82.9705 210.022 82.8865 210.629 82.8865 211.338C82.8865 212.411 83.0732 213.247 83.4465 213.844C83.8292 214.441 84.3612 214.74 85.0425 214.74ZM89.8018 206.69H96.2558V206.914L92.6438 216H91.0478L94.2258 208.062H89.8018V206.69ZM100.998 212.836V211.324H105.492V212.836H100.998ZM110.338 206.69H113.474V216H111.976V208.048H110.338V206.69ZM119.238 210.176C119.966 210.307 120.55 210.638 120.988 211.17C121.436 211.702 121.66 212.337 121.66 213.074C121.66 213.97 121.352 214.712 120.736 215.3C120.13 215.879 119.369 216.168 118.454 216.168C117.568 216.168 116.83 215.893 116.242 215.342C115.664 214.782 115.356 214.063 115.318 213.186H116.83C116.858 213.653 117.022 214.031 117.32 214.32C117.619 214.6 117.997 214.74 118.454 214.74C118.94 214.74 119.341 214.581 119.658 214.264C119.976 213.937 120.134 213.527 120.134 213.032C120.134 212.789 120.088 212.565 119.994 212.36C119.901 212.145 119.775 211.963 119.616 211.814C119.458 211.665 119.266 211.553 119.042 211.478C118.818 211.394 118.576 211.352 118.314 211.352H117.138V211.058L119.07 208.062H115.598V206.69H121.296V206.998L119.238 210.176ZM123.228 216V214.208H124.936V216H123.228ZM129.927 216.168C128.798 216.168 127.902 215.734 127.239 214.866C126.577 213.998 126.245 212.822 126.245 211.338C126.245 209.854 126.572 208.683 127.225 207.824C127.888 206.956 128.789 206.522 129.927 206.522C131.057 206.522 131.948 206.956 132.601 207.824C133.264 208.683 133.595 209.854 133.595 211.338C133.595 212.822 133.264 213.998 132.601 214.866C131.939 215.734 131.047 216.168 129.927 216.168ZM129.927 214.74C130.599 214.74 131.122 214.441 131.495 213.844C131.878 213.247 132.069 212.411 132.069 211.338C132.069 210.629 131.981 210.022 131.803 209.518C131.635 209.005 131.388 208.617 131.061 208.356C130.744 208.085 130.366 207.95 129.927 207.95C129.479 207.95 129.092 208.085 128.765 208.356C128.439 208.617 128.191 209.005 128.023 209.518C127.855 210.022 127.771 210.629 127.771 211.338C127.771 212.411 127.958 213.247 128.331 213.844C128.714 214.441 129.246 214.74 129.927 214.74ZM138.103 206.508C139.101 206.508 139.918 206.811 140.553 207.418C141.197 208.025 141.519 208.804 141.519 209.756C141.519 210.671 141.192 211.683 140.539 212.794L138.677 216H137.011C138.047 214.208 138.691 213.074 138.943 212.598C138.588 212.738 138.219 212.808 137.837 212.808C136.95 212.808 136.208 212.519 135.611 211.94C135.013 211.352 134.715 210.624 134.715 209.756C134.715 208.813 135.032 208.039 135.667 207.432C136.301 206.816 137.113 206.508 138.103 206.508ZM138.117 211.59C138.667 211.59 139.12 211.417 139.475 211.072C139.839 210.727 140.021 210.288 140.021 209.756C140.021 209.495 139.974 209.252 139.881 209.028C139.787 208.804 139.657 208.613 139.489 208.454C139.321 208.286 139.115 208.16 138.873 208.076C138.639 207.983 138.387 207.936 138.117 207.936C137.566 207.936 137.109 208.109 136.745 208.454C136.39 208.79 136.213 209.229 136.213 209.77C136.213 210.302 136.39 210.741 136.745 211.086C137.109 211.422 137.566 211.59 138.117 211.59ZM152.32 208.44H153.188V216H151.704V211.198L147.672 216H146.776V208.44H148.274V213.2L152.32 208.44ZM161.212 214.572H164.684V216H158.314V215.594C159.705 214.073 160.708 212.939 161.324 212.192C161.95 211.436 162.365 210.862 162.57 210.47C162.776 210.078 162.878 209.691 162.878 209.308C162.878 209.037 162.818 208.799 162.696 208.594C162.584 208.389 162.421 208.23 162.206 208.118C162.001 207.997 161.758 207.936 161.478 207.936C161.04 207.936 160.685 208.067 160.414 208.328C160.153 208.58 160.022 208.911 160.022 209.322V209.532H158.51V209.322C158.51 208.482 158.781 207.805 159.322 207.292C159.864 206.769 160.578 206.508 161.464 206.508C162.332 206.508 163.037 206.769 163.578 207.292C164.129 207.815 164.404 208.487 164.404 209.308C164.404 209.737 164.325 210.153 164.166 210.554C164.017 210.955 163.709 211.473 163.242 212.108C162.785 212.733 162.108 213.555 161.212 214.572ZM168.704 214.572H172.176V216H165.806V215.594C167.197 214.073 168.2 212.939 168.816 212.192C169.442 211.436 169.857 210.862 170.062 210.47C170.268 210.078 170.37 209.691 170.37 209.308C170.37 209.037 170.31 208.799 170.188 208.594C170.076 208.389 169.913 208.23 169.698 208.118C169.493 207.997 169.25 207.936 168.97 207.936C168.532 207.936 168.177 208.067 167.906 208.328C167.645 208.58 167.514 208.911 167.514 209.322V209.532H166.002V209.322C166.002 208.482 166.273 207.805 166.814 207.292C167.356 206.769 168.07 206.508 168.956 206.508C169.824 206.508 170.529 206.769 171.07 207.292C171.621 207.815 171.896 208.487 171.896 209.308C171.896 209.737 171.817 210.153 171.658 210.554C171.509 210.955 171.201 211.473 170.734 212.108C170.277 212.733 169.6 213.555 168.704 214.572ZM173.719 216V214.208H175.427V216H173.719ZM180.417 216.168C179.288 216.168 178.392 215.734 177.729 214.866C177.067 213.998 176.735 212.822 176.735 211.338C176.735 209.854 177.062 208.683 177.715 207.824C178.378 206.956 179.279 206.522 180.417 206.522C181.547 206.522 182.438 206.956 183.091 207.824C183.754 208.683 184.085 209.854 184.085 211.338C184.085 212.822 183.754 213.998 183.091 214.866C182.429 215.734 181.537 216.168 180.417 216.168ZM180.417 214.74C181.089 214.74 181.612 214.441 181.985 213.844C182.368 213.247 182.559 212.411 182.559 211.338C182.559 210.629 182.471 210.022 182.293 209.518C182.125 209.005 181.878 208.617 181.551 208.356C181.234 208.085 180.856 207.95 180.417 207.95C179.969 207.95 179.582 208.085 179.255 208.356C178.929 208.617 178.681 209.005 178.513 209.518C178.345 210.022 178.261 210.629 178.261 211.338C178.261 212.411 178.448 213.247 178.821 213.844C179.204 214.441 179.736 214.74 180.417 214.74ZM191.015 211.03C191.397 211.263 191.696 211.576 191.911 211.968C192.135 212.351 192.247 212.78 192.247 213.256C192.247 214.105 191.929 214.805 191.295 215.356C190.66 215.897 189.848 216.168 188.859 216.168C188.196 216.168 187.608 216.047 187.095 215.804C186.581 215.561 186.185 215.221 185.905 214.782C185.625 214.334 185.485 213.825 185.485 213.256C185.485 212.789 185.592 212.365 185.807 211.982C186.031 211.59 186.339 211.273 186.731 211.03C186.581 210.918 186.446 210.792 186.325 210.652C186.213 210.503 186.115 210.349 186.031 210.19C185.956 210.022 185.895 209.845 185.849 209.658C185.811 209.471 185.793 209.28 185.793 209.084C185.793 208.328 186.077 207.712 186.647 207.236C187.216 206.751 187.953 206.508 188.859 206.508C189.773 206.508 190.511 206.746 191.071 207.222C191.64 207.698 191.925 208.319 191.925 209.084C191.925 209.476 191.841 209.845 191.673 210.19C191.514 210.535 191.295 210.815 191.015 211.03ZM188.859 207.782C188.392 207.782 188.009 207.908 187.711 208.16C187.421 208.403 187.277 208.715 187.277 209.098C187.277 209.49 187.421 209.812 187.711 210.064C188.009 210.316 188.392 210.442 188.859 210.442C189.325 210.442 189.703 210.316 189.993 210.064C190.291 209.812 190.441 209.49 190.441 209.098C190.441 208.846 190.375 208.622 190.245 208.426C190.114 208.221 189.927 208.062 189.685 207.95C189.442 207.838 189.167 207.782 188.859 207.782ZM188.859 214.852C189.419 214.852 189.867 214.707 190.203 214.418C190.548 214.119 190.721 213.737 190.721 213.27C190.721 212.803 190.548 212.421 190.203 212.122C189.867 211.823 189.419 211.674 188.859 211.674C188.308 211.674 187.86 211.823 187.515 212.122C187.179 212.421 187.011 212.803 187.011 213.27C187.011 213.737 187.179 214.119 187.515 214.418C187.86 214.707 188.308 214.852 188.859 214.852ZM197.385 212.836V211.324H201.879V212.836H197.385ZM206.724 206.69H209.86V216H208.362V208.048H206.724V206.69ZM214.505 214.572H217.977V216H211.607V215.594C212.998 214.073 214.001 212.939 214.617 212.192C215.243 211.436 215.658 210.862 215.863 210.47C216.069 210.078 216.171 209.691 216.171 209.308C216.171 209.037 216.111 208.799 215.989 208.594C215.877 208.389 215.714 208.23 215.499 208.118C215.294 207.997 215.051 207.936 214.771 207.936C214.333 207.936 213.978 208.067 213.707 208.328C213.446 208.58 213.315 208.911 213.315 209.322V209.532H211.803V209.322C211.803 208.482 212.074 207.805 212.615 207.292C213.157 206.769 213.871 206.508 214.757 206.508C215.625 206.508 216.33 206.769 216.871 207.292C217.422 207.815 217.697 208.487 217.697 209.308C217.697 209.737 217.618 210.153 217.459 210.554C217.31 210.955 217.002 211.473 216.535 212.108C216.078 212.733 215.401 213.555 214.505 214.572ZM219.519 216V214.208H221.227V216H219.519ZM226.218 216.168C225.089 216.168 224.193 215.734 223.53 214.866C222.868 213.998 222.536 212.822 222.536 211.338C222.536 209.854 222.863 208.683 223.516 207.824C224.179 206.956 225.08 206.522 226.218 206.522C227.348 206.522 228.239 206.956 228.892 207.824C229.555 208.683 229.886 209.854 229.886 211.338C229.886 212.822 229.555 213.998 228.892 214.866C228.23 215.734 227.338 216.168 226.218 216.168ZM226.218 214.74C226.89 214.74 227.413 214.441 227.786 213.844C228.169 213.247 228.36 212.411 228.36 211.338C228.36 210.629 228.272 210.022 228.094 209.518C227.926 209.005 227.679 208.617 227.352 208.356C227.035 208.085 226.657 207.95 226.218 207.95C225.77 207.95 225.383 208.085 225.056 208.356C224.73 208.617 224.482 209.005 224.314 209.518C224.146 210.022 224.062 210.629 224.062 211.338C224.062 212.411 224.249 213.247 224.622 213.844C225.005 214.441 225.537 214.74 226.218 214.74ZM234.394 206.508C235.392 206.508 236.209 206.811 236.844 207.418C237.488 208.025 237.81 208.804 237.81 209.756C237.81 210.671 237.483 211.683 236.83 212.794L234.968 216H233.302C234.338 214.208 234.982 213.074 235.234 212.598C234.879 212.738 234.51 212.808 234.128 212.808C233.241 212.808 232.499 212.519 231.902 211.94C231.304 211.352 231.006 210.624 231.006 209.756C231.006 208.813 231.323 208.039 231.958 207.432C232.592 206.816 233.404 206.508 234.394 206.508ZM234.408 211.59C234.958 211.59 235.411 211.417 235.766 211.072C236.13 210.727 236.312 210.288 236.312 209.756C236.312 209.495 236.265 209.252 236.172 209.028C236.078 208.804 235.948 208.613 235.78 208.454C235.612 208.286 235.406 208.16 235.164 208.076C234.93 207.983 234.678 207.936 234.408 207.936C233.857 207.936 233.4 208.109 233.036 208.454C232.681 208.79 232.504 209.229 232.504 209.77C232.504 210.302 232.681 210.741 233.036 211.086C233.4 211.422 233.857 211.59 234.408 211.59Z" fill="#1E4391"/>
</g>
<path opacity="0.6" d="M66.782 194.182C65.298 194.182 64.066 193.701 63.086 192.74C62.106 191.769 61.616 190.556 61.616 189.1C61.616 187.644 62.106 186.435 63.086 185.474C64.066 184.503 65.298 184.018 66.782 184.018C68.266 184.018 69.498 184.503 70.478 185.474C71.458 186.435 71.948 187.644 71.948 189.1C71.948 190.052 71.724 190.92 71.276 191.704C70.8373 192.479 70.2213 193.085 69.428 193.524C68.644 193.963 67.762 194.182 66.782 194.182ZM64.262 191.634C64.934 192.306 65.774 192.642 66.782 192.642C67.7993 192.642 68.6393 192.306 69.302 191.634C69.974 190.953 70.31 190.108 70.31 189.1C70.31 188.092 69.974 187.252 69.302 186.58C68.6393 185.899 67.7993 185.558 66.782 185.558C65.774 185.558 64.934 185.899 64.262 186.58C63.59 187.252 63.254 188.092 63.254 189.1C63.254 190.108 63.59 190.953 64.262 191.634ZM77.7884 186.44H79.3004V194H77.7884V191.298C77.2751 191.485 76.7337 191.578 76.1644 191.578C75.2404 191.578 74.4984 191.307 73.9384 190.766C73.3784 190.225 73.0984 189.478 73.0984 188.526V186.44H74.6244V188.47C74.6244 189.011 74.7644 189.427 75.0444 189.716C75.3337 190.005 75.7491 190.15 76.2904 190.15C76.8317 190.15 77.3311 190.029 77.7884 189.786V186.44ZM86.5464 186.44H88.0724V194H86.5464V190.836H83.0464V194H81.5064V186.44H83.0464V189.408H86.5464V186.44ZM96.6537 193.062C95.8884 193.809 94.9271 194.182 93.7697 194.182C92.6124 194.182 91.6464 193.809 90.8717 193.062C90.1064 192.306 89.7237 191.359 89.7237 190.22C89.7237 189.473 89.8964 188.797 90.2417 188.19C90.5964 187.583 91.0817 187.112 91.6977 186.776C92.3231 186.431 93.0137 186.258 93.7697 186.258C94.5257 186.258 95.2117 186.431 95.8277 186.776C96.4531 187.112 96.9384 187.583 97.2837 188.19C97.6384 188.797 97.8157 189.473 97.8157 190.22C97.8157 191.359 97.4284 192.306 96.6537 193.062ZM93.7697 192.698C94.2457 192.698 94.6704 192.595 95.0437 192.39C95.4171 192.175 95.7064 191.881 95.9117 191.508C96.1264 191.125 96.2337 190.696 96.2337 190.22C96.2337 189.501 96.0004 188.909 95.5337 188.442C95.0764 187.975 94.4884 187.742 93.7697 187.742C93.0511 187.742 92.4584 187.975 91.9917 188.442C91.5344 188.909 91.3057 189.501 91.3057 190.22C91.3057 190.939 91.5344 191.531 91.9917 191.998C92.4584 192.465 93.0511 192.698 93.7697 192.698ZM99.2892 190.836V189.324H103.783V190.836H99.2892ZM109.879 189.982C110.542 190.374 110.873 190.985 110.873 191.816C110.873 192.516 110.593 193.085 110.033 193.524C109.473 193.963 108.754 194.182 107.877 194.182C107.028 194.182 106.332 193.963 105.791 193.524C105.259 193.076 104.97 192.479 104.923 191.732H106.337C106.393 192.059 106.556 192.315 106.827 192.502C107.098 192.689 107.448 192.782 107.877 192.782C108.316 192.782 108.67 192.684 108.941 192.488C109.212 192.283 109.347 192.021 109.347 191.704C109.347 191.396 109.226 191.144 108.983 190.948C108.75 190.752 108.437 190.654 108.045 190.654H107.065V189.45H108.045C108.4 189.45 108.68 189.371 108.885 189.212C109.09 189.044 109.193 188.82 109.193 188.54C109.193 188.241 109.072 188.003 108.829 187.826C108.586 187.649 108.264 187.56 107.863 187.56C107.499 187.56 107.196 187.644 106.953 187.812C106.72 187.98 106.58 188.213 106.533 188.512H105.119C105.156 187.84 105.432 187.299 105.945 186.888C106.468 186.468 107.121 186.258 107.905 186.258C108.708 186.258 109.366 186.463 109.879 186.874C110.402 187.285 110.663 187.803 110.663 188.428C110.663 189.1 110.402 189.618 109.879 189.982ZM118.897 186.44H120.101V194H118.841L118.687 193.076C117.959 193.813 117.049 194.182 115.957 194.182C114.828 194.182 113.885 193.804 113.129 193.048C112.382 192.292 112.009 191.349 112.009 190.22C112.009 189.081 112.382 188.139 113.129 187.392C113.885 186.636 114.828 186.258 115.957 186.258C117.068 186.258 117.987 186.631 118.715 187.378L118.897 186.44ZM114.291 191.998C114.767 192.465 115.36 192.698 116.069 192.698C116.788 192.698 117.376 192.465 117.833 191.998C118.3 191.522 118.533 190.929 118.533 190.22C118.533 189.501 118.3 188.909 117.833 188.442C117.376 187.975 116.788 187.742 116.069 187.742C115.602 187.742 115.178 187.849 114.795 188.064C114.422 188.279 114.128 188.577 113.913 188.96C113.698 189.333 113.591 189.753 113.591 190.22C113.591 190.929 113.824 191.522 114.291 191.998ZM128.687 193.062C127.922 193.809 126.96 194.182 125.803 194.182C124.646 194.182 123.68 193.809 122.905 193.062C122.14 192.306 121.757 191.359 121.757 190.22C121.757 189.473 121.93 188.797 122.275 188.19C122.63 187.583 123.115 187.112 123.731 186.776C124.356 186.431 125.047 186.258 125.803 186.258C126.559 186.258 127.245 186.431 127.861 186.776C128.486 187.112 128.972 187.583 129.317 188.19C129.672 188.797 129.849 189.473 129.849 190.22C129.849 191.359 129.462 192.306 128.687 193.062ZM125.803 192.698C126.279 192.698 126.704 192.595 127.077 192.39C127.45 192.175 127.74 191.881 127.945 191.508C128.16 191.125 128.267 190.696 128.267 190.22C128.267 189.501 128.034 188.909 127.567 188.442C127.11 187.975 126.522 187.742 125.803 187.742C125.084 187.742 124.492 187.975 124.025 188.442C123.568 188.909 123.339 189.501 123.339 190.22C123.339 190.939 123.568 191.531 124.025 191.998C124.492 192.465 125.084 192.698 125.803 192.698ZM135.62 186.44H137.132V194H135.62V191.298C135.107 191.485 134.566 191.578 133.996 191.578C133.072 191.578 132.33 191.307 131.77 190.766C131.21 190.225 130.93 189.478 130.93 188.526V186.44H132.456V188.47C132.456 189.011 132.596 189.427 132.876 189.716C133.166 190.005 133.581 190.15 134.122 190.15C134.664 190.15 135.163 190.029 135.62 189.786V186.44ZM144.378 186.44H145.904V194H144.378V190.836H140.878V194H139.338V186.44H140.878V189.408H144.378V186.44ZM154.444 186.44H155.648V194H154.388L154.234 193.076C153.506 193.813 152.596 194.182 151.504 194.182C150.374 194.182 149.432 193.804 148.676 193.048C147.929 192.292 147.556 191.349 147.556 190.22C147.556 189.081 147.929 188.139 148.676 187.392C149.432 186.636 150.374 186.258 151.504 186.258C152.614 186.258 153.534 186.631 154.262 187.378L154.444 186.44ZM149.838 191.998C150.314 192.465 150.906 192.698 151.616 192.698C152.334 192.698 152.922 192.465 153.38 191.998C153.846 191.522 154.08 190.929 154.08 190.22C154.08 189.501 153.846 188.909 153.38 188.442C152.922 187.975 152.334 187.742 151.616 187.742C151.149 187.742 150.724 187.849 150.342 188.064C149.968 188.279 149.674 188.577 149.46 188.96C149.245 189.333 149.138 189.753 149.138 190.22C149.138 190.929 149.371 191.522 149.838 191.998ZM159.978 186.44H163.59V194H162.078V191.228H160.496L158.844 194H157.15L158.956 190.976C158.498 190.789 158.139 190.509 157.878 190.136C157.616 189.763 157.486 189.329 157.486 188.834C157.486 188.153 157.724 187.583 158.2 187.126C158.676 186.669 159.268 186.44 159.978 186.44ZM160.188 189.87H162.078V187.812H160.188C159.964 187.812 159.763 187.859 159.586 187.952C159.418 188.036 159.287 188.157 159.194 188.316C159.1 188.465 159.054 188.643 159.054 188.848C159.054 189.147 159.156 189.394 159.362 189.59C159.567 189.777 159.842 189.87 160.188 189.87ZM178.043 190.248C178.043 191.359 177.674 192.278 176.937 193.006C176.209 193.734 175.28 194.126 174.151 194.182V196.38H172.667V194.182C171.537 194.126 170.604 193.734 169.867 193.006C169.139 192.278 168.775 191.359 168.775 190.248C168.775 189.137 169.143 188.209 169.881 187.462C170.618 186.715 171.547 186.314 172.667 186.258V184.144H174.151V186.258C175.271 186.314 176.199 186.715 176.937 187.462C177.674 188.199 178.043 189.128 178.043 190.248ZM170.301 190.234C170.301 190.925 170.52 191.503 170.959 191.97C171.407 192.437 171.981 192.693 172.681 192.74V187.7C171.981 187.747 171.407 188.008 170.959 188.484C170.52 188.96 170.301 189.543 170.301 190.234ZM174.137 192.74C174.837 192.693 175.406 192.437 175.845 191.97C176.293 191.503 176.517 190.925 176.517 190.234C176.517 189.543 176.293 188.96 175.845 188.484C175.397 188.008 174.827 187.747 174.137 187.7V192.74ZM186.068 193.062C185.302 193.809 184.341 194.182 183.184 194.182C182.026 194.182 181.06 193.809 180.286 193.062C179.52 192.306 179.138 191.359 179.138 190.22C179.138 189.473 179.31 188.797 179.656 188.19C180.01 187.583 180.496 187.112 181.112 186.776C181.737 186.431 182.428 186.258 183.184 186.258C183.94 186.258 184.626 186.431 185.242 186.776C185.867 187.112 186.352 187.583 186.698 188.19C187.052 188.797 187.23 189.473 187.23 190.22C187.23 191.359 186.842 192.306 186.068 193.062ZM183.184 192.698C183.66 192.698 184.084 192.595 184.458 192.39C184.831 192.175 185.12 191.881 185.326 191.508C185.54 191.125 185.648 190.696 185.648 190.22C185.648 189.501 185.414 188.909 184.948 188.442C184.49 187.975 183.902 187.742 183.184 187.742C182.465 187.742 181.872 187.975 181.406 188.442C180.948 188.909 180.72 189.501 180.72 190.22C180.72 190.939 180.948 191.531 181.406 191.998C181.872 192.465 182.465 192.698 183.184 192.698ZM192.945 186.258C193.692 186.258 194.364 186.431 194.961 186.776C195.559 187.112 196.025 187.583 196.361 188.19C196.697 188.797 196.865 189.473 196.865 190.22C196.865 191.359 196.492 192.306 195.745 193.062C195.008 193.809 194.075 194.182 192.945 194.182C191.975 194.182 191.139 193.879 190.439 193.272V196.716H188.885V186.44H189.935L190.229 187.364C190.957 186.627 191.863 186.258 192.945 186.258ZM191.055 191.998C191.522 192.465 192.11 192.698 192.819 192.698C193.538 192.698 194.131 192.465 194.597 191.998C195.064 191.522 195.297 190.929 195.297 190.22C195.297 189.511 195.064 188.923 194.597 188.456C194.131 187.98 193.543 187.742 192.833 187.742C192.367 187.742 191.942 187.849 191.559 188.064C191.177 188.279 190.878 188.577 190.663 188.96C190.458 189.333 190.355 189.753 190.355 190.22C190.355 190.929 190.589 191.522 191.055 191.998ZM208.073 194H206.575L205.665 188.848L203.131 193.916H202.809L200.289 188.848L199.379 194H197.881L199.239 186.44H200.555L202.977 191.27L205.413 186.44H206.715L208.073 194ZM215.954 186.44H217.158V194H215.898L215.744 193.076C215.016 193.813 214.106 194.182 213.014 194.182C211.884 194.182 210.942 193.804 210.186 193.048C209.439 192.292 209.066 191.349 209.066 190.22C209.066 189.081 209.439 188.139 210.186 187.392C210.942 186.636 211.884 186.258 213.014 186.258C214.124 186.258 215.044 186.631 215.772 187.378L215.954 186.44ZM211.348 191.998C211.824 192.465 212.416 192.698 213.126 192.698C213.844 192.698 214.432 192.465 214.89 191.998C215.356 191.522 215.59 190.929 215.59 190.22C215.59 189.501 215.356 188.909 214.89 188.442C214.432 187.975 213.844 187.742 213.126 187.742C212.659 187.742 212.234 187.849 211.852 188.064C211.478 188.279 211.184 188.577 210.97 188.96C210.755 189.333 210.648 189.753 210.648 190.22C210.648 190.929 210.881 191.522 211.348 191.998ZM229.271 193.062C228.506 193.809 227.544 194.182 226.387 194.182C225.23 194.182 224.264 193.809 223.489 193.062C222.724 192.306 222.341 191.359 222.341 190.22C222.341 189.473 222.514 188.797 222.859 188.19C223.214 187.583 223.699 187.112 224.315 186.776C224.94 186.431 225.631 186.258 226.387 186.258C227.143 186.258 227.829 186.431 228.445 186.776C229.07 187.112 229.556 187.583 229.901 188.19C230.256 188.797 230.433 189.473 230.433 190.22C230.433 191.359 230.046 192.306 229.271 193.062ZM226.387 192.698C226.863 192.698 227.288 192.595 227.661 192.39C228.034 192.175 228.324 191.881 228.529 191.508C228.744 191.125 228.851 190.696 228.851 190.22C228.851 189.501 228.618 188.909 228.151 188.442C227.694 187.975 227.106 187.742 226.387 187.742C225.668 187.742 225.076 187.975 224.609 188.442C224.152 188.909 223.923 189.501 223.923 190.22C223.923 190.939 224.152 191.531 224.609 191.998C225.076 192.465 225.668 192.698 226.387 192.698ZM235.938 186.804C237.03 186.804 237.917 187.14 238.598 187.812C239.289 188.484 239.634 189.357 239.634 190.43C239.634 191.541 239.27 192.446 238.542 193.146C237.824 193.837 236.881 194.182 235.714 194.182C234.482 194.182 233.512 193.799 232.802 193.034C232.102 192.259 231.752 191.2 231.752 189.856C231.752 188.017 232.102 186.622 232.802 185.67C233.512 184.709 234.692 184.027 236.344 183.626L238.71 183.052V184.592L236.372 185.152C234.758 185.535 233.801 186.379 233.502 187.686C234.156 187.098 234.968 186.804 235.938 186.804ZM235.714 192.712C236.386 192.712 236.942 192.497 237.38 192.068C237.828 191.629 238.052 191.083 238.052 190.43C238.052 189.991 237.95 189.599 237.744 189.254C237.539 188.899 237.259 188.624 236.904 188.428C236.55 188.223 236.153 188.12 235.714 188.12C235.276 188.12 234.874 188.223 234.51 188.428C234.156 188.624 233.876 188.899 233.67 189.254C233.474 189.599 233.376 189.991 233.376 190.43C233.376 191.083 233.596 191.629 234.034 192.068C234.482 192.497 235.042 192.712 235.714 192.712ZM246.338 186.44H248.004L244.532 194.14C244.093 195.101 243.645 195.769 243.188 196.142C242.74 196.525 242.138 196.716 241.382 196.716H240.612V195.316H241.256C241.75 195.316 242.114 195.218 242.348 195.022C242.581 194.826 242.838 194.42 243.118 193.804L243.286 193.454L239.996 186.44H241.69L244.084 191.718L246.338 186.44ZM253.363 186.44H254.875V194H253.363V191.298C252.849 191.485 252.308 191.578 251.739 191.578C250.815 191.578 250.073 191.307 249.513 190.766C248.953 190.225 248.673 189.478 248.673 188.526V186.44H250.199V188.47C250.199 189.011 250.339 189.427 250.619 189.716C250.908 190.005 251.323 190.15 251.865 190.15C252.406 190.15 252.905 190.029 253.363 189.786V186.44ZM264.263 190.234C264.263 190.374 264.253 190.547 264.235 190.752H258.103C258.196 191.359 258.448 191.839 258.859 192.194C259.279 192.549 259.797 192.726 260.413 192.726C260.711 192.726 260.991 192.684 261.253 192.6C261.514 192.507 261.743 192.381 261.939 192.222C262.144 192.054 262.312 191.853 262.443 191.62H264.081C263.782 192.423 263.306 193.053 262.653 193.51C261.999 193.958 261.253 194.182 260.413 194.182C259.302 194.182 258.373 193.804 257.627 193.048C256.889 192.292 256.521 191.349 256.521 190.22C256.521 189.091 256.889 188.148 257.627 187.392C258.373 186.636 259.302 186.258 260.413 186.258C261.169 186.258 261.841 186.44 262.429 186.804C263.017 187.159 263.469 187.639 263.787 188.246C264.104 188.843 264.263 189.506 264.263 190.234ZM260.413 187.658C259.834 187.658 259.339 187.821 258.929 188.148C258.527 188.475 258.261 188.923 258.131 189.492H262.709C262.615 189.109 262.461 188.783 262.247 188.512C262.032 188.232 261.766 188.022 261.449 187.882C261.141 187.733 260.795 187.658 260.413 187.658ZM270.953 186.44H272.479V194H270.953V190.836H267.453V194H265.913V186.44H267.453V189.408H270.953V186.44ZM280.234 186.44H281.102V194H279.618V189.198L275.586 194H274.69V186.44H276.188V191.2L280.234 186.44ZM285.431 186.44H289.043V194H287.531V191.228H285.949L284.297 194H282.603L284.409 190.976C283.952 190.789 283.592 190.509 283.331 190.136C283.07 189.763 282.939 189.329 282.939 188.834C282.939 188.153 283.177 187.583 283.653 187.126C284.129 186.669 284.722 186.44 285.431 186.44ZM285.641 189.87H287.531V187.812H285.641C285.417 187.812 285.216 187.859 285.039 187.952C284.871 188.036 284.74 188.157 284.647 188.316C284.554 188.465 284.507 188.643 284.507 188.848C284.507 189.147 284.61 189.394 284.815 189.59C285.02 189.777 285.296 189.87 285.641 189.87ZM291.078 188.778V186.986H292.786V188.778H291.078ZM291.078 194V192.208H292.786V194H291.078Z" fill="black"/>
<rect width="40" height="40" rx="20" fill="#1E4391"/>
<path d="M26.3695 22.48V24.76H24.8335V28H22.3375V24.76H14.3935V24.232L19.8415 12.04H22.4815L17.8255 22.48H22.3855L22.8175 18.04H24.8335V22.48H26.3695Z" fill="white"/>
<circle cx="20" cy="79" r="6" fill="white" stroke="#1E4391" stroke-width="2"/>
<circle cx="20" cy="128" r="6" fill="white" stroke="#1E4391" stroke-width="2"/>
<path d="M20 72V40" stroke="#1E4391" stroke-width="2"/>
<path d="M20 121V86" stroke="#1E4391" stroke-width="2"/>
</svg>
