<svg width="368" height="163" viewBox="0 0 368 163" fill="none" xmlns="http://www.w3.org/2000/svg">
<path d="M62.602 15.4H72.052V28H69.964V17.326H64.672V28H62.602V15.4ZM83.1276 26.794C82.1436 27.754 80.9076 28.234 79.4196 28.234C77.9316 28.234 76.6896 27.754 75.6936 26.794C74.7096 25.822 74.2176 24.604 74.2176 23.14C74.2176 22.18 74.4396 21.31 74.8836 20.53C75.3396 19.75 75.9636 19.144 76.7556 18.712C77.5596 18.268 78.4476 18.046 79.4196 18.046C80.3916 18.046 81.2736 18.268 82.0656 18.712C82.8696 19.144 83.4936 19.75 83.9376 20.53C84.3936 21.31 84.6216 22.18 84.6216 23.14C84.6216 24.604 84.1236 25.822 83.1276 26.794ZM79.4196 26.326C80.0316 26.326 80.5776 26.194 81.0576 25.93C81.5376 25.654 81.9096 25.276 82.1736 24.796C82.4496 24.304 82.5876 23.752 82.5876 23.14C82.5876 22.216 82.2876 21.454 81.6876 20.854C81.0996 20.254 80.3436 19.954 79.4196 19.954C78.4956 19.954 77.7336 20.254 77.1336 20.854C76.5456 21.454 76.2516 22.216 76.2516 23.14C76.2516 24.064 76.5456 24.826 77.1336 25.426C77.7336 26.026 78.4956 26.326 79.4196 26.326ZM94.9988 26.11H96.2588V30.448H94.4408V28H87.3488V30.448H85.5308V26.11H86.5568C86.8328 25.882 87.0428 25.534 87.1868 25.066C87.3428 24.598 87.4808 23.89 87.6008 22.942C87.7208 21.982 87.8768 20.428 88.0688 18.28H94.9988V26.11ZM89.8328 20.044C89.7008 22 89.5508 23.404 89.3828 24.256C89.2148 25.108 88.9688 25.726 88.6448 26.11H93.0368V20.044H89.8328ZM106.365 18.28H107.913V28H106.293L106.095 26.812C105.159 27.76 103.989 28.234 102.585 28.234C101.133 28.234 99.9206 27.748 98.9486 26.776C97.9886 25.804 97.5086 24.592 97.5086 23.14C97.5086 21.676 97.9886 20.464 98.9486 19.504C99.9206 18.532 101.133 18.046 102.585 18.046C104.013 18.046 105.195 18.526 106.131 19.486L106.365 18.28ZM100.443 25.426C101.055 26.026 101.817 26.326 102.729 26.326C103.653 26.326 104.409 26.026 104.997 25.426C105.597 24.814 105.897 24.052 105.897 23.14C105.897 22.216 105.597 21.454 104.997 20.854C104.409 20.254 103.653 19.954 102.729 19.954C102.129 19.954 101.583 20.092 101.091 20.368C100.611 20.644 100.233 21.028 99.9566 21.52C99.6806 22 99.5426 22.54 99.5426 23.14C99.5426 24.052 99.8426 24.814 100.443 25.426ZM117.368 15.076V16.57H112.544V15.076H117.368ZM117.89 18.28H119.006V28H117.098V21.826L111.914 28H110.762V18.28H112.688V24.4L117.89 18.28ZM129.54 18.28V20.08H126.12V28H124.176V20.08H120.738V18.28H129.54ZM140.246 23.158C140.246 23.338 140.234 23.56 140.21 23.824H132.326C132.446 24.604 132.77 25.222 133.298 25.678C133.838 26.134 134.504 26.362 135.296 26.362C135.68 26.362 136.04 26.308 136.376 26.2C136.712 26.08 137.006 25.918 137.258 25.714C137.522 25.498 137.738 25.24 137.906 24.94H140.012C139.628 25.972 139.016 26.782 138.176 27.37C137.336 27.946 136.376 28.234 135.296 28.234C133.868 28.234 132.674 27.748 131.714 26.776C130.766 25.804 130.292 24.592 130.292 23.14C130.292 21.688 130.766 20.476 131.714 19.504C132.674 18.532 133.868 18.046 135.296 18.046C136.268 18.046 137.132 18.28 137.888 18.748C138.644 19.204 139.226 19.822 139.634 20.602C140.042 21.37 140.246 22.222 140.246 23.158ZM135.296 19.846C134.552 19.846 133.916 20.056 133.388 20.476C132.872 20.896 132.53 21.472 132.362 22.204H138.248C138.128 21.712 137.93 21.292 137.654 20.944C137.378 20.584 137.036 20.314 136.628 20.134C136.232 19.942 135.788 19.846 135.296 19.846ZM155.344 26.11H156.604V30.448H154.786V28H147.694V30.448H145.876V26.11H146.902C147.178 25.882 147.388 25.534 147.532 25.066C147.688 24.598 147.826 23.89 147.946 22.942C148.066 21.982 148.222 20.428 148.414 18.28H155.344V26.11ZM150.178 20.044C150.046 22 149.896 23.404 149.728 24.256C149.56 25.108 149.314 25.726 148.99 26.11H153.382V20.044H150.178ZM166.764 26.794C165.78 27.754 164.544 28.234 163.056 28.234C161.568 28.234 160.326 27.754 159.33 26.794C158.346 25.822 157.854 24.604 157.854 23.14C157.854 22.18 158.076 21.31 158.52 20.53C158.976 19.75 159.6 19.144 160.392 18.712C161.196 18.268 162.084 18.046 163.056 18.046C164.028 18.046 164.91 18.268 165.702 18.712C166.506 19.144 167.13 19.75 167.574 20.53C168.03 21.31 168.258 22.18 168.258 23.14C168.258 24.604 167.76 25.822 166.764 26.794ZM163.056 26.326C163.668 26.326 164.214 26.194 164.694 25.93C165.174 25.654 165.546 25.276 165.81 24.796C166.086 24.304 166.224 23.752 166.224 23.14C166.224 22.216 165.924 21.454 165.324 20.854C164.736 20.254 163.98 19.954 163.056 19.954C162.132 19.954 161.37 20.254 160.77 20.854C160.182 21.454 159.888 22.216 159.888 23.14C159.888 24.064 160.182 24.826 160.77 25.426C161.37 26.026 162.132 26.326 163.056 26.326ZM176.507 28L173.591 23.86H172.385V28H170.387V18.28H172.385V22.042H173.609L176.255 18.28H178.613L175.319 22.942L178.973 28H176.507ZM187.284 18.28H189.426L184.962 28.18C184.398 29.416 183.822 30.274 183.234 30.754C182.658 31.246 181.884 31.492 180.912 31.492H179.922V29.692H180.75C181.386 29.692 181.854 29.566 182.154 29.314C182.454 29.062 182.784 28.54 183.144 27.748L183.36 27.298L179.13 18.28H181.308L184.386 25.066L187.284 18.28ZM202.809 28H200.883L199.713 21.376L196.455 27.892H196.041L192.801 21.376L191.631 28H189.705L191.451 18.28H193.143L196.257 24.49L199.389 18.28H201.063L202.809 28ZM214.039 23.158C214.039 23.338 214.027 23.56 214.003 23.824H206.119C206.239 24.604 206.563 25.222 207.091 25.678C207.631 26.134 208.297 26.362 209.089 26.362C209.473 26.362 209.833 26.308 210.169 26.2C210.505 26.08 210.799 25.918 211.051 25.714C211.315 25.498 211.531 25.24 211.699 24.94H213.805C213.421 25.972 212.809 26.782 211.969 27.37C211.129 27.946 210.169 28.234 209.089 28.234C207.661 28.234 206.467 27.748 205.507 26.776C204.559 25.804 204.085 24.592 204.085 23.14C204.085 21.688 204.559 20.476 205.507 19.504C206.467 18.532 207.661 18.046 209.089 18.046C210.061 18.046 210.925 18.28 211.681 18.748C212.437 19.204 213.019 19.822 213.427 20.602C213.835 21.37 214.039 22.222 214.039 23.158ZM209.089 19.846C208.345 19.846 207.709 20.056 207.181 20.476C206.665 20.896 206.323 21.472 206.155 22.204H212.041C211.921 21.712 211.723 21.292 211.447 20.944C211.171 20.584 210.829 20.314 210.421 20.134C210.025 19.942 209.581 19.846 209.089 19.846ZM222.64 18.28H224.602V28H222.64V23.932H218.14V28H216.16V18.28H218.14V22.096H222.64V18.28ZM235.131 18.28V20.08H231.711V28H229.767V20.08H226.329V18.28H235.131ZM240.917 21.16C241.985 21.16 242.849 21.478 243.509 22.114C244.169 22.75 244.499 23.578 244.499 24.598C244.499 25.606 244.169 26.428 243.509 27.064C242.849 27.688 241.985 28 240.917 28H236.885V18.28H238.847V21.16H240.917ZM246.191 18.28H248.189V28H246.191V18.28ZM240.683 26.272C241.223 26.272 241.661 26.122 241.997 25.822C242.333 25.51 242.501 25.102 242.501 24.598C242.501 24.262 242.423 23.968 242.267 23.716C242.123 23.452 241.913 23.248 241.637 23.104C241.361 22.96 241.043 22.888 240.683 22.888H238.847V26.272H240.683Z" fill="#1E4391"/>
<path d="M61.536 72.8H69.696V84H68.272V74.112H62.928V84H61.536V72.8ZM76.3578 84.192C75.5044 84.192 74.7258 84 74.0218 83.616C73.3178 83.2213 72.7684 82.6827 72.3738 82C71.9791 81.3067 71.7818 80.5333 71.7818 79.68C71.7818 78.3787 72.2138 77.3013 73.0778 76.448C73.9524 75.5947 75.0458 75.168 76.3578 75.168C77.2218 75.168 78.0004 75.3653 78.6938 75.76C79.3978 76.144 79.9471 76.6827 80.3418 77.376C80.7471 78.0587 80.9498 78.8267 80.9498 79.68C80.9498 80.9707 80.5124 82.048 79.6378 82.912C78.7631 83.7653 77.6698 84.192 76.3578 84.192ZM74.0698 81.984C74.6778 82.5813 75.4404 82.88 76.3578 82.88C77.2858 82.88 78.0484 82.5813 78.6458 81.984C79.2538 81.376 79.5578 80.608 79.5578 79.68C79.5578 78.752 79.2538 77.9893 78.6458 77.392C78.0484 76.784 77.2858 76.48 76.3578 76.48C75.4404 76.48 74.6778 76.784 74.0698 77.392C73.4724 77.9893 73.1738 78.752 73.1738 79.68C73.1738 80.608 73.4724 81.376 74.0698 81.984ZM90.0611 82.72H91.2291V86.288H89.9811V84H83.0211V86.288H81.7731V82.72H82.7011C82.9571 82.4853 83.1545 82.1547 83.2931 81.728C83.4318 81.2907 83.5545 80.6293 83.6611 79.744C83.7785 78.848 83.9171 77.3867 84.0771 75.36H90.0611V82.72ZM85.2931 76.56C85.1971 77.9893 85.0958 79.104 84.9891 79.904C84.8931 80.6933 84.7811 81.3013 84.6531 81.728C84.5251 82.144 84.3598 82.4747 84.1571 82.72H88.7331V76.56H85.2931ZM100.439 75.36H101.527V84H100.391L100.247 82.688C99.8418 83.168 99.3458 83.5413 98.7591 83.808C98.1831 84.064 97.5485 84.192 96.8551 84.192C95.5858 84.192 94.5245 83.7653 93.6711 82.912C92.8178 82.048 92.3911 80.9707 92.3911 79.68C92.3911 78.3893 92.8178 77.3173 93.6711 76.464C94.5245 75.6 95.5858 75.168 96.8551 75.168C97.5591 75.168 98.1991 75.3013 98.7751 75.568C99.3618 75.8347 99.8578 76.208 100.263 76.688L100.439 75.36ZM94.6791 81.968C95.2871 82.576 96.0498 82.88 96.9671 82.88C97.8845 82.88 98.6418 82.576 99.2391 81.968C99.8365 81.36 100.135 80.5973 100.135 79.68C100.135 78.7627 99.8365 78 99.2391 77.392C98.6418 76.784 97.8845 76.48 96.9671 76.48C96.0498 76.48 95.2871 76.7893 94.6791 77.408C94.0818 78.016 93.7831 78.7733 93.7831 79.68C93.7831 80.5867 94.0818 81.3493 94.6791 81.968ZM110.923 75.36V76.592H107.707V84H106.379V76.592H103.163V75.36H110.923ZM116.036 78.08C116.942 78.08 117.684 78.3573 118.26 78.912C118.836 79.456 119.124 80.1707 119.124 81.056C119.124 81.92 118.836 82.6293 118.26 83.184C117.684 83.728 116.942 84 116.036 84H112.564V75.36H113.892V78.08H116.036ZM115.86 82.784C116.425 82.784 116.878 82.624 117.22 82.304C117.561 81.984 117.732 81.568 117.732 81.056C117.732 80.5333 117.561 80.112 117.22 79.792C116.878 79.4613 116.425 79.296 115.86 79.296H113.892V82.784H115.86ZM132.014 82.72H133.182V86.288H131.934V84H124.974V86.288H123.726V82.72H124.654C124.91 82.4853 125.108 82.1547 125.246 81.728C125.385 81.2907 125.508 80.6293 125.614 79.744C125.732 78.848 125.87 77.3867 126.03 75.36H132.014V82.72ZM127.246 76.56C127.15 77.9893 127.049 79.104 126.942 79.904C126.846 80.6933 126.734 81.3013 126.606 81.728C126.478 82.144 126.313 82.4747 126.11 82.72H130.686V76.56H127.246ZM138.92 84.192C138.067 84.192 137.288 84 136.584 83.616C135.88 83.2213 135.331 82.6827 134.936 82C134.542 81.3067 134.344 80.5333 134.344 79.68C134.344 78.3787 134.776 77.3013 135.64 76.448C136.515 75.5947 137.608 75.168 138.92 75.168C139.784 75.168 140.563 75.3653 141.256 75.76C141.96 76.144 142.51 76.6827 142.904 77.376C143.31 78.0587 143.512 78.8267 143.512 79.68C143.512 80.9707 143.075 82.048 142.2 82.912C141.326 83.7653 140.232 84.192 138.92 84.192ZM136.632 81.984C137.24 82.5813 138.003 82.88 138.92 82.88C139.848 82.88 140.611 82.5813 141.208 81.984C141.816 81.376 142.12 80.608 142.12 79.68C142.12 78.752 141.816 77.9893 141.208 77.392C140.611 76.784 139.848 76.48 138.92 76.48C138.003 76.48 137.24 76.784 136.632 77.392C136.035 77.9893 135.736 78.752 135.736 79.68C135.736 80.608 136.035 81.376 136.632 81.984ZM151.131 84L148.171 80.128H146.939V84H145.579V75.36H146.939V78.864H148.187L150.859 75.36H152.507L149.355 79.504L152.827 84H151.131ZM160.524 75.36H161.98L157.868 84.352C157.548 85.056 157.233 85.6 156.924 85.984C156.614 86.368 156.268 86.6453 155.884 86.816C155.5 86.9973 155.03 87.088 154.476 87.088H153.66V85.856H154.364C154.94 85.856 155.372 85.7387 155.66 85.504C155.948 85.2693 156.268 84.7893 156.62 84.064L156.924 83.408L153.084 75.36H154.572L157.644 81.904L160.524 75.36ZM173.846 84H172.534L171.302 77.584L168.246 83.824H167.942L164.902 77.584L163.67 84H162.358L164.006 75.36H165.142L168.102 81.408L171.046 75.36H172.182L173.846 84ZM183.862 79.712C183.862 79.8293 183.852 79.9947 183.83 80.208H176.454C176.561 81.008 176.892 81.6533 177.446 82.144C178.001 82.624 178.684 82.864 179.494 82.864C180.092 82.864 180.62 82.736 181.078 82.48C181.548 82.2133 181.921 81.84 182.198 81.36H183.622C183.26 82.256 182.716 82.9547 181.99 83.456C181.265 83.9467 180.433 84.192 179.494 84.192C178.246 84.192 177.201 83.76 176.358 82.896C175.516 82.032 175.094 80.96 175.094 79.68C175.094 78.3893 175.516 77.3173 176.358 76.464C177.201 75.6 178.246 75.168 179.494 75.168C180.785 75.168 181.836 75.6053 182.646 76.48C183.457 77.3547 183.862 78.432 183.862 79.712ZM179.494 76.464C178.982 76.464 178.513 76.5653 178.086 76.768C177.67 76.9707 177.324 77.264 177.046 77.648C176.769 78.0213 176.582 78.4533 176.486 78.944H182.486C182.39 78.4427 182.204 78.0053 181.926 77.632C181.649 77.248 181.302 76.96 180.886 76.768C180.47 76.5653 180.006 76.464 179.494 76.464ZM191.844 75.36H193.172V84H191.844V80.176H187.22V84H185.892V75.36H187.22V78.896H191.844V75.36ZM202.579 75.36V76.592H199.363V84H198.035V76.592H194.819V75.36H202.579ZM207.692 78.08C208.598 78.08 209.34 78.3573 209.916 78.912C210.492 79.456 210.78 80.1707 210.78 81.056C210.78 81.92 210.492 82.6293 209.916 83.184C209.34 83.728 208.598 84 207.692 84H204.22V75.36H205.548V78.08H207.692ZM212.348 75.36H213.708V84H212.348V75.36ZM207.516 82.784C208.081 82.784 208.534 82.624 208.876 82.304C209.217 81.984 209.388 81.568 209.388 81.056C209.388 80.5333 209.217 80.112 208.876 79.792C208.534 79.4613 208.081 79.296 207.516 79.296H205.548V82.784H207.516ZM224.53 84.192C223.676 84.192 222.898 84 222.194 83.616C221.49 83.2213 220.94 82.6827 220.546 82C220.151 81.3067 219.954 80.5333 219.954 79.68C219.954 78.3787 220.386 77.3013 221.25 76.448C222.124 75.5947 223.218 75.168 224.53 75.168C225.394 75.168 226.172 75.3653 226.866 75.76C227.57 76.144 228.119 76.6827 228.514 77.376C228.919 78.0587 229.122 78.8267 229.122 79.68C229.122 80.9707 228.684 82.048 227.81 82.912C226.935 83.7653 225.842 84.192 224.53 84.192ZM222.242 81.984C222.85 82.5813 223.612 82.88 224.53 82.88C225.458 82.88 226.22 82.5813 226.818 81.984C227.426 81.376 227.73 80.608 227.73 79.68C227.73 78.752 227.426 77.9893 226.818 77.392C226.22 76.784 225.458 76.48 224.53 76.48C223.612 76.48 222.85 76.784 222.242 77.392C221.644 77.9893 221.346 78.752 221.346 79.68C221.346 80.608 221.644 81.376 222.242 81.984ZM237.141 75.36H238.469V84H237.141V80.176H232.517V84H231.189V75.36H232.517V78.896H237.141V75.36ZM242.692 75.36H248.356V84H246.996V76.544H243.828L243.38 80.912C243.262 82.0533 242.969 82.864 242.5 83.344C242.03 83.8133 241.326 84.048 240.388 84.048H240.148V82.768H240.452C240.942 82.768 241.316 82.6293 241.572 82.352C241.828 82.064 241.988 81.6107 242.052 80.992L242.692 75.36ZM258.455 75.36H259.543V84H258.407L258.263 82.688C257.857 83.168 257.361 83.5413 256.775 83.808C256.199 84.064 255.564 84.192 254.871 84.192C253.601 84.192 252.54 83.7653 251.687 82.912C250.833 82.048 250.407 80.9707 250.407 79.68C250.407 78.3893 250.833 77.3173 251.687 76.464C252.54 75.6 253.601 75.168 254.871 75.168C255.575 75.168 256.215 75.3013 256.791 75.568C257.377 75.8347 257.873 76.208 258.279 76.688L258.455 75.36ZM252.695 81.968C253.303 82.576 254.065 82.88 254.983 82.88C255.9 82.88 256.657 82.576 257.255 81.968C257.852 81.36 258.151 80.5973 258.151 79.68C258.151 78.7627 257.852 78 257.255 77.392C256.657 76.784 255.9 76.48 254.983 76.48C254.065 76.48 253.303 76.7893 252.695 77.408C252.097 78.016 251.799 78.7733 251.799 79.68C251.799 80.5867 252.097 81.3493 252.695 81.968ZM267.946 72.592V73.616H263.754V72.592H267.946ZM268.634 75.36H269.386V84H268.106V77.824L263.066 84H262.282V75.36H263.578V81.488L268.634 75.36ZM278.094 75.36H279.422V84H278.094V80.176H273.47V84H272.142V75.36H273.47V78.896H278.094V75.36ZM291.112 75.36H292.424V84H291.112V80.688C290.451 80.944 289.763 81.072 289.048 81.072C288.024 81.072 287.198 80.7787 286.568 80.192C285.95 79.5947 285.64 78.7627 285.64 77.696V75.36H286.968V77.6C286.968 78.2933 287.155 78.8267 287.528 79.2C287.912 79.5733 288.456 79.76 289.16 79.76C289.832 79.76 290.483 79.6053 291.112 79.296V75.36ZM303.237 79.712C303.237 79.8293 303.227 79.9947 303.205 80.208H295.829C295.936 81.008 296.267 81.6533 296.821 82.144C297.376 82.624 298.059 82.864 298.869 82.864C299.467 82.864 299.995 82.736 300.453 82.48C300.923 82.2133 301.296 81.84 301.573 81.36H302.997C302.635 82.256 302.091 82.9547 301.365 83.456C300.64 83.9467 299.808 84.192 298.869 84.192C297.621 84.192 296.576 83.76 295.733 82.896C294.891 82.032 294.469 80.96 294.469 79.68C294.469 78.3893 294.891 77.3173 295.733 76.464C296.576 75.6 297.621 75.168 298.869 75.168C300.16 75.168 301.211 75.6053 302.021 76.48C302.832 77.3547 303.237 78.432 303.237 79.712ZM298.869 76.464C298.357 76.464 297.888 76.5653 297.461 76.768C297.045 76.9707 296.699 77.264 296.421 77.648C296.144 78.0213 295.957 78.4533 295.861 78.944H301.861C301.765 78.4427 301.579 78.0053 301.301 77.632C301.024 77.248 300.677 76.96 300.261 76.768C299.845 76.5653 299.381 76.464 298.869 76.464ZM309.843 75.168C311.133 75.168 312.195 75.5947 313.027 76.448C313.869 77.3013 314.291 78.3787 314.291 79.68C314.291 80.9707 313.869 82.048 313.027 82.912C312.195 83.7653 311.133 84.192 309.843 84.192C308.541 84.192 307.469 83.744 306.627 82.848V87.088H305.267V75.36H306.195L306.467 76.688C306.872 76.208 307.363 75.8347 307.939 75.568C308.525 75.3013 309.16 75.168 309.843 75.168ZM309.747 82.88C310.664 82.88 311.421 82.576 312.019 81.968C312.616 81.36 312.915 80.5973 312.915 79.68C312.915 78.7627 312.616 78 312.019 77.392C311.421 76.784 310.664 76.48 309.747 76.48C308.829 76.48 308.067 76.7893 307.459 77.408C306.861 78.016 306.563 78.7733 306.563 79.68C306.563 80.2773 306.696 80.8213 306.963 81.312C307.24 81.8027 307.624 82.1867 308.115 82.464C308.605 82.7413 309.149 82.88 309.747 82.88ZM324.44 79.712C324.44 79.8293 324.43 79.9947 324.408 80.208H317.032C317.139 81.008 317.47 81.6533 318.024 82.144C318.579 82.624 319.262 82.864 320.072 82.864C320.67 82.864 321.198 82.736 321.656 82.48C322.126 82.2133 322.499 81.84 322.776 81.36H324.2C323.838 82.256 323.294 82.9547 322.568 83.456C321.843 83.9467 321.011 84.192 320.072 84.192C318.824 84.192 317.779 83.76 316.936 82.896C316.094 82.032 315.672 80.96 315.672 79.68C315.672 78.3893 316.094 77.3173 316.936 76.464C317.779 75.6 318.824 75.168 320.072 75.168C321.363 75.168 322.414 75.6053 323.224 76.48C324.035 77.3547 324.44 78.432 324.44 79.712ZM320.072 76.464C319.56 76.464 319.091 76.5653 318.664 76.768C318.248 76.9707 317.902 77.264 317.624 77.648C317.347 78.0213 317.16 78.4533 317.064 78.944H323.064C322.968 78.4427 322.782 78.0053 322.504 77.632C322.227 77.248 321.88 76.96 321.464 76.768C321.048 76.5653 320.584 76.464 320.072 76.464ZM330.966 79.44C331.755 79.8667 332.15 80.5707 332.15 81.552C332.15 82.064 332.006 82.5227 331.718 82.928C331.44 83.3227 331.046 83.632 330.534 83.856C330.032 84.08 329.467 84.192 328.838 84.192C327.92 84.192 327.163 83.9573 326.566 83.488C325.979 83.0187 325.648 82.3893 325.574 81.6H326.806C326.891 82.0053 327.115 82.3253 327.478 82.56C327.84 82.784 328.294 82.896 328.838 82.896C329.414 82.896 329.888 82.7627 330.262 82.496C330.635 82.2293 330.822 81.8773 330.822 81.44C330.822 81.0347 330.662 80.6987 330.342 80.432C330.032 80.1653 329.638 80.032 329.158 80.032H327.878V78.928H329.158C329.606 78.928 329.963 78.816 330.23 78.592C330.507 78.3573 330.646 78.0587 330.646 77.696C330.646 77.3013 330.48 76.9813 330.15 76.736C329.819 76.4907 329.382 76.368 328.838 76.368C328.358 76.368 327.958 76.4747 327.638 76.688C327.318 76.9013 327.115 77.1893 327.03 77.552H325.798C325.84 77.0827 325.995 76.6667 326.262 76.304C326.539 75.9413 326.902 75.664 327.35 75.472C327.808 75.2693 328.315 75.168 328.87 75.168C329.755 75.168 330.486 75.3973 331.062 75.856C331.638 76.3147 331.926 76.8907 331.926 77.584C331.926 78.416 331.606 79.0347 330.966 79.44ZM62.848 97.36H68.512V106H67.152V98.544H63.984L63.536 102.912C63.4187 104.053 63.1253 104.864 62.656 105.344C62.1867 105.813 61.4827 106.048 60.544 106.048H60.304V104.768H60.608C61.0987 104.768 61.472 104.629 61.728 104.352C61.984 104.064 62.144 103.611 62.208 102.992L62.848 97.36ZM77.603 97.36H78.355V106H77.075V99.824L72.035 106H71.251V97.36H72.547V103.488L77.603 97.36ZM85.8624 97.36H87.1744V106H85.8624V102.688C85.201 102.944 84.513 103.072 83.7984 103.072C82.7744 103.072 81.9477 102.779 81.3184 102.192C80.6997 101.595 80.3904 100.763 80.3904 99.696V97.36H81.7184V99.6C81.7184 100.293 81.905 100.827 82.2784 101.2C82.6624 101.573 83.2064 101.76 83.9104 101.76C84.5824 101.76 85.233 101.605 85.8624 101.296V97.36ZM95.8593 97.36H97.1873V106H95.8593V102.176H91.2353V106H89.9073V97.36H91.2353V100.896H95.8593V97.36ZM103.411 100.08C104.317 100.08 105.059 100.357 105.635 100.912C106.211 101.456 106.499 102.171 106.499 103.056C106.499 103.92 106.211 104.629 105.635 105.184C105.059 105.728 104.317 106 103.411 106H99.9385V97.36H101.267V100.08H103.411ZM108.067 97.36H109.427V106H108.067V97.36ZM103.235 104.784C103.8 104.784 104.253 104.624 104.595 104.304C104.936 103.984 105.107 103.568 105.107 103.056C105.107 102.533 104.936 102.112 104.595 101.792C104.253 101.461 103.8 101.296 103.235 101.296H101.267V104.784H103.235ZM117.837 94.592V95.616H113.645V94.592H117.837ZM118.525 97.36H119.277V106H117.997V99.824L112.957 106H112.173V97.36H113.469V103.488L118.525 97.36ZM131.772 106L128.812 102.128H127.58V106H126.22V97.36H127.58V100.864H128.828L131.5 97.36H133.148L129.996 101.504L133.468 106H131.772ZM141.986 97.36H143.074V106H141.938L141.794 104.688C141.389 105.168 140.893 105.541 140.306 105.808C139.73 106.064 139.095 106.192 138.402 106.192C137.133 106.192 136.071 105.765 135.218 104.912C134.365 104.048 133.938 102.971 133.938 101.68C133.938 100.389 134.365 99.3173 135.218 98.464C136.071 97.6 137.133 97.168 138.402 97.168C139.106 97.168 139.746 97.3013 140.322 97.568C140.909 97.8347 141.405 98.208 141.81 98.688L141.986 97.36ZM136.226 103.968C136.834 104.576 137.597 104.88 138.514 104.88C139.431 104.88 140.189 104.576 140.786 103.968C141.383 103.36 141.682 102.597 141.682 101.68C141.682 100.763 141.383 100 140.786 99.392C140.189 98.784 139.431 98.48 138.514 98.48C137.597 98.48 136.834 98.7893 136.226 99.408C135.629 100.016 135.33 100.773 135.33 101.68C135.33 102.587 135.629 103.349 136.226 103.968ZM150.054 97.808C151.28 97.808 152.288 98.1973 153.078 98.976C153.867 99.744 154.262 100.731 154.262 101.936C154.262 103.184 153.851 104.208 153.03 105.008C152.208 105.797 151.152 106.192 149.862 106.192C148.507 106.192 147.424 105.765 146.614 104.912C145.814 104.048 145.414 102.896 145.414 101.456C145.414 99.2373 145.814 97.5787 146.614 96.48C147.414 95.3813 148.8 94.592 150.774 94.112L153.334 93.504V94.848L150.806 95.456C149.686 95.712 148.811 96.1333 148.182 96.72C147.552 97.3067 147.147 98.0853 146.966 99.056C147.723 98.224 148.752 97.808 150.054 97.808ZM149.862 104.88C150.715 104.88 151.43 104.603 152.006 104.048C152.582 103.483 152.87 102.784 152.87 101.952C152.87 101.109 152.582 100.405 152.006 99.84C151.43 99.2747 150.715 98.992 149.862 98.992C148.998 98.992 148.278 99.2747 147.702 99.84C147.126 100.395 146.838 101.093 146.838 101.936C146.838 102.352 146.912 102.741 147.062 103.104C147.222 103.467 147.435 103.776 147.702 104.032C147.968 104.288 148.288 104.496 148.661 104.656C149.035 104.805 149.435 104.88 149.862 104.88ZM162.697 97.36H163.449V106H162.169V99.824L157.129 106H156.345V97.36H157.641V103.488L162.697 97.36ZM172.156 97.36H173.484V106H172.156V102.176H167.532V106H166.204V97.36H167.532V100.896H172.156V97.36ZM184.315 101.712C184.315 101.829 184.305 101.995 184.283 102.208H176.907C177.014 103.008 177.345 103.653 177.899 104.144C178.454 104.624 179.137 104.864 179.947 104.864C180.545 104.864 181.073 104.736 181.531 104.48C182.001 104.213 182.374 103.84 182.651 103.36H184.075C183.713 104.256 183.169 104.955 182.443 105.456C181.718 105.947 180.886 106.192 179.947 106.192C178.699 106.192 177.654 105.76 176.811 104.896C175.969 104.032 175.547 102.96 175.547 101.68C175.547 100.389 175.969 99.3173 176.811 98.464C177.654 97.6 178.699 97.168 179.947 97.168C181.238 97.168 182.289 97.6053 183.099 98.48C183.91 99.3547 184.315 100.432 184.315 101.712ZM179.947 98.464C179.435 98.464 178.966 98.5653 178.539 98.768C178.123 98.9707 177.777 99.264 177.499 99.648C177.222 100.021 177.035 100.453 176.939 100.944H182.939C182.843 100.443 182.657 100.005 182.379 99.632C182.102 99.248 181.755 98.96 181.339 98.768C180.923 98.5653 180.459 98.464 179.947 98.464ZM192.735 97.36V98.592H189.519V106H188.191V98.592H184.975V97.36H192.735ZM205.486 97.36H206.574V106H205.438L205.294 104.688C204.889 105.168 204.393 105.541 203.806 105.808C203.23 106.064 202.595 106.192 201.902 106.192C200.633 106.192 199.571 105.765 198.718 104.912C197.865 104.048 197.438 102.971 197.438 101.68C197.438 100.389 197.865 99.3173 198.718 98.464C199.571 97.6 200.633 97.168 201.902 97.168C202.606 97.168 203.246 97.3013 203.822 97.568C204.409 97.8347 204.905 98.208 205.31 98.688L205.486 97.36ZM199.726 103.968C200.334 104.576 201.097 104.88 202.014 104.88C202.931 104.88 203.689 104.576 204.286 103.968C204.883 103.36 205.182 102.597 205.182 101.68C205.182 100.763 204.883 100 204.286 99.392C203.689 98.784 202.931 98.48 202.014 98.48C201.097 98.48 200.334 98.7893 199.726 99.408C199.129 100.016 198.83 100.773 198.83 101.68C198.83 102.587 199.129 103.349 199.726 103.968ZM213.554 97.808C214.78 97.808 215.788 98.1973 216.578 98.976C217.367 99.744 217.762 100.731 217.762 101.936C217.762 103.184 217.351 104.208 216.53 105.008C215.708 105.797 214.652 106.192 213.362 106.192C212.007 106.192 210.924 105.765 210.114 104.912C209.314 104.048 208.914 102.896 208.914 101.456C208.914 99.2373 209.314 97.5787 210.114 96.48C210.914 95.3813 212.3 94.592 214.274 94.112L216.834 93.504V94.848L214.306 95.456C213.186 95.712 212.311 96.1333 211.682 96.72C211.052 97.3067 210.647 98.0853 210.466 99.056C211.223 98.224 212.252 97.808 213.554 97.808ZM213.362 104.88C214.215 104.88 214.93 104.603 215.506 104.048C216.082 103.483 216.37 102.784 216.37 101.952C216.37 101.109 216.082 100.405 215.506 99.84C214.93 99.2747 214.215 98.992 213.362 98.992C212.498 98.992 211.778 99.2747 211.202 99.84C210.626 100.395 210.338 101.093 210.338 101.936C210.338 102.352 210.412 102.741 210.562 103.104C210.722 103.467 210.935 103.776 211.202 104.032C211.468 104.288 211.788 104.496 212.161 104.656C212.535 104.805 212.935 104.88 213.362 104.88ZM226.197 97.36H226.949V106H225.669V99.824L220.629 106H219.845V97.36H221.141V103.488L226.197 97.36ZM236.36 97.36V98.592H233.144V106H231.816V98.592H228.6V97.36H236.36ZM244.305 97.36H245.761L241.649 106.352C241.329 107.056 241.014 107.6 240.705 107.984C240.396 108.368 240.049 108.645 239.665 108.816C239.281 108.997 238.812 109.088 238.257 109.088H237.441V107.856H238.145C238.721 107.856 239.153 107.739 239.441 107.504C239.729 107.269 240.049 106.789 240.401 106.064L240.705 105.408L236.865 97.36H238.353L241.425 103.904L244.305 97.36ZM251.952 97.168C253.243 97.168 254.304 97.5947 255.136 98.448C255.979 99.3013 256.4 100.379 256.4 101.68C256.4 102.971 255.979 104.048 255.136 104.912C254.304 105.765 253.243 106.192 251.952 106.192C250.651 106.192 249.579 105.744 248.736 104.848V109.088H247.376V97.36H248.304L248.576 98.688C248.981 98.208 249.472 97.8347 250.048 97.568C250.635 97.3013 251.269 97.168 251.952 97.168ZM251.856 104.88C252.773 104.88 253.531 104.576 254.128 103.968C254.725 103.36 255.024 102.597 255.024 101.68C255.024 100.763 254.725 100 254.128 99.392C253.531 98.784 252.773 98.48 251.856 98.48C250.939 98.48 250.176 98.7893 249.568 99.408C248.971 100.016 248.672 100.773 248.672 101.68C248.672 102.277 248.805 102.821 249.072 103.312C249.349 103.803 249.733 104.187 250.224 104.464C250.715 104.741 251.259 104.88 251.856 104.88ZM264.822 97.36H265.574V106H264.294V99.824L259.254 106H258.47V97.36H259.766V103.488L264.822 97.36ZM276.409 101.712C276.409 101.829 276.398 101.995 276.377 102.208H269.001C269.108 103.008 269.438 103.653 269.993 104.144C270.548 104.624 271.23 104.864 272.041 104.864C272.638 104.864 273.166 104.736 273.625 104.48C274.094 104.213 274.468 103.84 274.745 103.36H276.169C275.806 104.256 275.262 104.955 274.537 105.456C273.812 105.947 272.98 106.192 272.041 106.192C270.793 106.192 269.748 105.76 268.905 104.896C268.062 104.032 267.641 102.96 267.641 101.68C267.641 100.389 268.062 99.3173 268.905 98.464C269.748 97.6 270.793 97.168 272.041 97.168C273.332 97.168 274.382 97.6053 275.193 98.48C276.004 99.3547 276.409 100.432 276.409 101.712ZM272.041 98.464C271.529 98.464 271.06 98.5653 270.633 98.768C270.217 98.9707 269.87 99.264 269.593 99.648C269.316 100.021 269.129 100.453 269.033 100.944H275.033C274.937 100.443 274.75 100.005 274.473 99.632C274.196 99.248 273.849 98.96 273.433 98.768C273.017 98.5653 272.553 98.464 272.041 98.464ZM284.391 97.36H285.719V106H284.391V102.176H279.767V106H278.439V97.36H279.767V100.896H284.391V97.36ZM295.126 97.36V98.592H291.91V106H290.582V98.592H287.366V97.36H295.126ZM303.845 97.36H304.933V106H303.797L303.653 104.688C303.248 105.168 302.752 105.541 302.165 105.808C301.589 106.064 300.955 106.192 300.261 106.192C298.992 106.192 297.931 105.765 297.077 104.912C296.224 104.048 295.797 102.971 295.797 101.68C295.797 100.389 296.224 99.3173 297.077 98.464C297.931 97.6 298.992 97.168 300.261 97.168C300.965 97.168 301.605 97.3013 302.181 97.568C302.768 97.8347 303.264 98.208 303.669 98.688L303.845 97.36ZM298.085 103.968C298.693 104.576 299.456 104.88 300.373 104.88C301.291 104.88 302.048 104.576 302.645 103.968C303.243 103.36 303.541 102.597 303.541 101.68C303.541 100.763 303.243 100 302.645 99.392C302.048 98.784 301.291 98.48 300.373 98.48C299.456 98.48 298.693 98.7893 298.085 99.408C297.488 100.016 297.189 100.773 297.189 101.68C297.189 102.587 297.488 103.349 298.085 103.968Z" fill="black"/>
<rect width="40" height="40" rx="20" fill="#EF302B"/>
<path d="M21.7241 18.016C22.9721 18.24 23.9721 18.808 24.7241 19.72C25.4921 20.632 25.8761 21.72 25.8761 22.984C25.8761 24.52 25.3481 25.792 24.2921 26.8C23.2521 27.792 21.9481 28.288 20.3801 28.288C18.8601 28.288 17.5961 27.816 16.5881 26.872C15.5961 25.912 15.0681 24.68 15.0041 23.176H17.5961C17.6441 23.976 17.9241 24.624 18.4361 25.12C18.9481 25.6 19.5961 25.84 20.3801 25.84C21.2121 25.84 21.9001 25.568 22.4441 25.024C22.9881 24.464 23.2601 23.76 23.2601 22.912C23.2601 22.496 23.1801 22.112 23.0201 21.76C22.8601 21.392 22.6441 21.08 22.3721 20.824C22.1001 20.568 21.7721 20.376 21.3881 20.248C21.0041 20.104 20.5881 20.032 20.1401 20.032H18.1241V19.528L21.4361 14.392H15.4841V12.04H25.2521V12.568L21.7241 18.016Z" fill="white"/>
<circle cx="20" cy="79" r="6" fill="white" stroke="#EF302B" stroke-width="2"/>
<path d="M20 72V40" stroke="#EF302B" stroke-width="2"/>
<path d="M64.872 131.2C65.4973 131.2 66.062 131.34 66.566 131.62C67.0793 131.9 67.4807 132.287 67.77 132.782C68.0593 133.277 68.204 133.827 68.204 134.434C68.204 135.358 67.8867 136.128 67.252 136.744C66.6173 137.36 65.824 137.668 64.872 137.668H62.856V141H61.246V131.2H64.872ZM64.788 136.142C65.0493 136.142 65.2873 136.1 65.502 136.016C65.726 135.932 65.9173 135.815 66.076 135.666C66.2347 135.517 66.356 135.335 66.44 135.12C66.5333 134.905 66.58 134.677 66.58 134.434C66.58 134.107 66.5007 133.818 66.342 133.566C66.1927 133.305 65.9827 133.099 65.712 132.95C65.4413 132.801 65.1333 132.726 64.788 132.726H62.856V136.142H64.788ZM76.8193 137.234C76.8193 137.374 76.8099 137.547 76.7913 137.752H70.6593C70.7526 138.359 71.0046 138.839 71.4153 139.194C71.8353 139.549 72.3533 139.726 72.9693 139.726C73.2679 139.726 73.5479 139.684 73.8093 139.6C74.0706 139.507 74.2993 139.381 74.4953 139.222C74.7006 139.054 74.8686 138.853 74.9993 138.62H76.6373C76.3386 139.423 75.8626 140.053 75.2093 140.51C74.5559 140.958 73.8093 141.182 72.9693 141.182C71.8586 141.182 70.9299 140.804 70.1833 140.048C69.4459 139.292 69.0773 138.349 69.0773 137.22C69.0773 136.091 69.4459 135.148 70.1833 134.392C70.9299 133.636 71.8586 133.258 72.9693 133.258C73.7253 133.258 74.3973 133.44 74.9853 133.804C75.5733 134.159 76.0259 134.639 76.3433 135.246C76.6606 135.843 76.8193 136.506 76.8193 137.234ZM72.9693 134.658C72.3906 134.658 71.8959 134.821 71.4853 135.148C71.0839 135.475 70.8179 135.923 70.6873 136.492H75.2653C75.1719 136.109 75.0179 135.783 74.8033 135.512C74.5886 135.232 74.3226 135.022 74.0053 134.882C73.6973 134.733 73.3519 134.658 72.9693 134.658ZM83.2993 133.44V134.826H79.9953V141H78.4693V133.44H83.2993ZM90.193 133.44H91.061V141H89.577V136.198L85.545 141H84.649V133.44H86.147V138.2L90.193 133.44ZM96.6779 141.182C95.5579 141.182 94.6153 140.804 93.8499 140.048C93.0939 139.283 92.7159 138.34 92.7159 137.22C92.7159 136.091 93.0939 135.148 93.8499 134.392C94.6153 133.636 95.5626 133.258 96.6919 133.258C97.6159 133.258 98.4186 133.519 99.0999 134.042C99.7813 134.565 100.225 135.26 100.43 136.128H98.8899C98.6939 135.699 98.3999 135.363 98.0079 135.12C97.6159 134.868 97.1726 134.742 96.6779 134.742C96.2393 134.742 95.8379 134.849 95.4739 135.064C95.1099 135.279 94.8206 135.577 94.6059 135.96C94.4006 136.333 94.2979 136.753 94.2979 137.22C94.2979 137.92 94.5266 138.508 94.9839 138.984C95.4413 139.46 96.0059 139.698 96.6779 139.698C97.1726 139.698 97.6113 139.572 97.9939 139.32C98.3859 139.068 98.6846 138.709 98.8899 138.242H100.458C100.243 139.129 99.7906 139.843 99.0999 140.384C98.4186 140.916 97.6113 141.182 96.6779 141.182ZM107.895 133.44V134.84H105.235V141H103.723V134.84H101.049V133.44H107.895ZM113.318 133.258C114.065 133.258 114.737 133.431 115.334 133.776C115.932 134.112 116.398 134.583 116.734 135.19C117.07 135.797 117.238 136.473 117.238 137.22C117.238 138.359 116.865 139.306 116.118 140.062C115.381 140.809 114.448 141.182 113.318 141.182C112.348 141.182 111.512 140.879 110.812 140.272V143.716H109.258V133.44H110.308L110.602 134.364C111.33 133.627 112.236 133.258 113.318 133.258ZM111.428 138.998C111.895 139.465 112.483 139.698 113.192 139.698C113.911 139.698 114.504 139.465 114.97 138.998C115.437 138.522 115.67 137.929 115.67 137.22C115.67 136.511 115.437 135.923 114.97 135.456C114.504 134.98 113.916 134.742 113.206 134.742C112.74 134.742 112.315 134.849 111.932 135.064C111.55 135.279 111.251 135.577 111.036 135.96C110.831 136.333 110.728 136.753 110.728 137.22C110.728 137.929 110.962 138.522 111.428 138.998ZM125.239 133.44H126.443V141H125.183L125.029 140.076C124.301 140.813 123.391 141.182 122.299 141.182C121.169 141.182 120.227 140.804 119.471 140.048C118.724 139.292 118.351 138.349 118.351 137.22C118.351 136.081 118.724 135.139 119.471 134.392C120.227 133.636 121.169 133.258 122.299 133.258C123.409 133.258 124.329 133.631 125.057 134.378L125.239 133.44ZM120.633 138.998C121.109 139.465 121.701 139.698 122.411 139.698C123.129 139.698 123.717 139.465 124.175 138.998C124.641 138.522 124.875 137.929 124.875 137.22C124.875 136.501 124.641 135.909 124.175 135.442C123.717 134.975 123.129 134.742 122.411 134.742C121.944 134.742 121.519 134.849 121.137 135.064C120.763 135.279 120.469 135.577 120.255 135.96C120.04 136.333 119.933 136.753 119.933 137.22C119.933 137.929 120.166 138.522 120.633 138.998ZM135.015 139.572H136.023V142.904H134.609V141H128.659V133.44H130.185V139.572H133.489V133.44H135.015V139.572ZM143.213 133.44H144.081V141H142.597V136.198L138.565 141H137.669V133.44H139.167V138.2L143.213 133.44ZM148.409 133.44H152.021V141H150.509V138.228H148.927L147.275 141H145.581L147.387 137.976C146.93 137.789 146.571 137.509 146.309 137.136C146.048 136.763 145.917 136.329 145.917 135.834C145.917 135.153 146.155 134.583 146.631 134.126C147.107 133.669 147.7 133.44 148.409 133.44ZM148.619 136.87H150.509V134.812H148.619C148.395 134.812 148.195 134.859 148.017 134.952C147.849 135.036 147.719 135.157 147.625 135.316C147.532 135.465 147.485 135.643 147.485 135.848C147.485 136.147 147.588 136.394 147.793 136.59C147.999 136.777 148.274 136.87 148.619 136.87Z" fill="#1E4391"/>
<path d="M60.5801 151H154" stroke="#1E4391" stroke-width="2"/>
</svg>
